0
SECTION
2
HEADER
9
$ACADVER
1
AC1015
9
$HANDSEED
5
1200
9
$DWGCODEPAGE
3
ANSI_1252
9
$INSBASE
10
0.0
20
0.0
30
0.0
9
$INSUNITS
70
4
9
$MEASUREMENT
70
1
9
$LUNITS
70
2
9
$LUPREC
70
3
9
$AUNITS
70
0
9
$AUPREC
70
2
9
$FILLETRAD
40
0.0
9
$TEXTSIZE
40
2.5
9
$DIMSCALE
40
2.0
9
$DIMTXT
40
2.5
9
$DIMASZ
40
1.8
9
$DIMEXE
40
1.2
9
$DIMEXO
40
0.6
9
$DIMDLI
40
6.0
9
$DIMTIH
70
0
9
$DIMTOH
70
0
9
$DIMTAD
70
1
9
$LTSCALE
40
1.0
9
$PDMODE
70
35
9
$PDSIZE
40
0.0
9
$CLAYER
8
0
9
$EXTMIN
10
0.0
20
0.0
30
0.0
9
$EXTMAX
10
117600.0
20
14850.0
30
0.0
9
$LIMMIN
10
0.0
20
0.0
9
$LIMMAX
10
117600.0
20
14850.0
0
ENDSEC
0
SECTION
2
TABLES
0
TABLE
2
VPORT
5
200
330
0
100
AcDbSymbolTable
70
1
0
VPORT
5
201
330
0
100
AcDbSymbolTableRecord
100
AcDbViewportTableRecord
2
*ACTIVE
70
0
10
0.0
20
0.0
11
1.0
21
1.0
12
500.0
22
500.0
13
0.0
23
0.0
14
100.0
24
100.0
15
0.0
25
0.0
16
0.0
26
0.0
36
1.0
17
0.0
27
0.0
37
0.0
40
1000.0
41
1.0
42
50.0
43
0.0
44
0.0
50
0.0
51
0.0
71
0
72
100
73
1
74
3
75
0
76
1
77
0
78
0
0
ENDTAB
0
TABLE
2
LTYPE
5
202
330
0
100
AcDbSymbolTable
70
6
0
LTYPE
5
203
330
0
100
AcDbSymbolTableRecord
100
AcDbLinetypeTableRecord
2
CONTINUOUS
70
0
3
Línea continua ______
72
65
73
0
40
0.0
0
LTYPE
5
204
330
0
100
AcDbSymbolTableRecord
100
AcDbLinetypeTableRecord
2
DASHED
70
0
3
Línea discontinua _ _ _ _
72
65
73
2
40
0.75
49
0.5
49
-0.25
0
LTYPE
5
205
330
0
100
AcDbSymbolTableRecord
100
AcDbLinetypeTableRecord
2
CENTER
70
0
3
Eje __ _ __ _ __
72
65
73
4
40
2.0
49
1.25
49
-0.25
49
0.25
49
-0.25
0
LTYPE
5
206
330
0
100
AcDbSymbolTableRecord
100
AcDbLinetypeTableRecord
2
HIDDEN
70
0
3
Oculta __ __ __
72
65
73
2
40
0.375
49
0.25
49
-0.125
0
LTYPE
5
207
330
0
100
AcDbSymbolTableRecord
100
AcDbLinetypeTableRecord
2
PHANTOM
70
0
3
Fantasma _____ _ _____
72
65
73
6
40
2.5
49
1.25
49
-0.25
49
0.25
49
-0.25
49
0.25
49
-0.25
0
LTYPE
5
208
330
0
100
AcDbSymbolTableRecord
100
AcDbLinetypeTableRecord
2
DOTTED
70
0
3
Punteada . . . .
72
65
73
2
40
0.25
49
0.0
49
-0.25
0
ENDTAB
0
TABLE
2
LAYER
5
209
330
0
100
AcDbSymbolTable
70
16
0
LAYER
5
20A
330
0
100
AcDbSymbolTableRecord
100
AcDbLayerTableRecord
2
0
70
0
62
7
6
CONTINUOUS
370
-3
0
LAYER
5
20B
330
0
100
AcDbSymbolTableRecord
100
AcDbLayerTableRecord
2
ARQ-MURO
70
0
62
7
6
CONTINUOUS
370
-3
0
LAYER
5
20C
330
0
100
AcDbSymbolTableRecord
100
AcDbLayerTableRecord
2
DW-PERFIL
70
0
62
4
6
CONTINUOUS
370
-3
0
LAYER
5
20D
330
0
100
AcDbSymbolTableRecord
100
AcDbLayerTableRecord
2
DW-CANAL
70
0
62
5
6
CONTINUOUS
370
-3
0
LAYER
5
20E
330
0
100
AcDbSymbolTableRecord
100
AcDbLayerTableRecord
2
DW-OMEGA
70
0
62
140
6
CONTINUOUS
370
-3
0
LAYER
5
20F
330
0
100
AcDbSymbolTableRecord
100
AcDbLayerTableRecord
2
DW-PRIMARIO
70
0
62
30
6
CONTINUOUS
370
-3
0
LAYER
5
210
330
0
100
AcDbSymbolTableRecord
100
AcDbLayerTableRecord
2
DW-PLACA
70
0
62
3
6
CONTINUOUS
370
-3
0
LAYER
5
211
330
0
100
AcDbSymbolTableRecord
100
AcDbLayerTableRecord
2
DW-AISLANTE
70
0
62
40
6
CONTINUOUS
370
-3
0
LAYER
5
212
330
0
100
AcDbSymbolTableRecord
100
AcDbLayerTableRecord
2
DW-ABERTURA
70
0
62
2
6
CONTINUOUS
370
-3
0
LAYER
5
213
330
0
100
AcDbSymbolTableRecord
100
AcDbLayerTableRecord
2
DW-FIJACION
70
0
62
8
6
CONTINUOUS
370
-3
0
LAYER
5
214
330
0
100
AcDbSymbolTableRecord
100
AcDbLayerTableRecord
2
DW-EJE
70
0
62
1
6
CENTER
370
-3
0
LAYER
5
215
330
0
100
AcDbSymbolTableRecord
100
AcDbLayerTableRecord
2
DW-COTA
70
0
62
6
6
CONTINUOUS
370
-3
0
LAYER
5
216
330
0
100
AcDbSymbolTableRecord
100
AcDbLayerTableRecord
2
DW-TEXTO
70
0
62
7
6
CONTINUOUS
370
-3
0
LAYER
5
217
330
0
100
AcDbSymbolTableRecord
100
AcDbLayerTableRecord
2
DW-SIMBOLO
70
0
62
7
6
CONTINUOUS
370
-3
0
LAYER
5
218
330
0
100
AcDbSymbolTableRecord
100
AcDbLayerTableRecord
2
PLANO-MARCO
70
0
62
7
6
CONTINUOUS
370
-3
0
LAYER
5
219
330
0
100
AcDbSymbolTableRecord
100
AcDbLayerTableRecord
2
PLANO-TABLA
70
0
62
7
6
CONTINUOUS
370
-3
0
ENDTAB
0
TABLE
2
STYLE
5
21A
330
0
100
AcDbSymbolTable
70
4
0
STYLE
5
21B
330
0
100
AcDbSymbolTableRecord
100
AcDbTextStyleTableRecord
2
STANDARD
70
0
40
0.0
41
1.0
50
0.0
71
0
42
2.5
3
txt.shx
4

0
STYLE
5
21C
330
0
100
AcDbSymbolTableRecord
100
AcDbTextStyleTableRecord
2
ROMANS
70
0
40
0.0
41
0.85
50
0.0
71
0
42
2.5
3
romans.shx
4

0
STYLE
5
21D
330
0
100
AcDbSymbolTableRecord
100
AcDbTextStyleTableRecord
2
ISOCP
70
0
40
0.0
41
1.0
50
0.0
71
0
42
2.5
3
isocp.shx
4

0
STYLE
5
21E
330
0
100
AcDbSymbolTableRecord
100
AcDbTextStyleTableRecord
2
TECHNICAL
70
0
40
0.0
41
1.0
50
0.0
71
0
42
2.5
3
monotxt.shx
4

0
ENDTAB
0
TABLE
2
VIEW
5
21F
330
0
100
AcDbSymbolTable
70
0
0
ENDTAB
0
TABLE
2
UCS
5
220
330
0
100
AcDbSymbolTable
70
0
0
ENDTAB
0
TABLE
2
DIMSTYLE
5
221
330
0
100
AcDbSymbolTable
70
1
0
DIMSTYLE
105
222
330
0
100
AcDbSymbolTableRecord
100
AcDbDimStyleTableRecord
2
DRYWALL-ISO
70
0
3

40
2.0
41
1.8
42
1.2
43
0.6
44
6.0
140
2.5
147
1.0
77
0
78
0
0
ENDTAB
0
TABLE
2
BLOCK_RECORD
5
223
330
0
100
AcDbSymbolTable
70
2
0
BLOCK_RECORD
5
224
330
0
100
AcDbSymbolTableRecord
100
AcDbBlockTableRecord
2
*MODEL_SPACE
0
BLOCK_RECORD
5
225
330
0
100
AcDbSymbolTableRecord
100
AcDbBlockTableRecord
2
*PAPER_SPACE
0
ENDTAB
0
TABLE
2
APPID
5
226
330
0
100
AcDbSymbolTable
70
2
0
APPID
5
227
330
0
100
AcDbSymbolTableRecord
100
AcDbRegAppTableRecord
2
ACAD
70
0
0
APPID
5
228
330
0
100
AcDbSymbolTableRecord
100
AcDbRegAppTableRecord
2
DRYWALLPRO
70
0
0
ENDTAB
0
ENDSEC
0
SECTION
2
ENTITIES
0
LWPOLYLINE
5
229
330
224
100
AcDbEntity
100
AcDbPolyline
8
PLANO-MARCO
90
4
70
1
43
0.0
10
400.0
20
400.0
10
20600.0
20
400.0
10
20600.0
20
14450.0
10
400.0
20
14450.0
0
LWPOLYLINE
5
22A
330
224
100
AcDbEntity
100
AcDbPolyline
8
PLANO-MARCO
90
4
70
1
43
0.0
10
550.0
20
550.0
10
20450.0
20
550.0
10
20450.0
20
14300.0
10
550.0
20
14300.0
0
LINE
5
22B
330
224
100
AcDbEntity
8
PLANO-MARCO
10
550.0
20
2550.0
30
0.0
11
20450.0
21
2550.0
31
0.0
0
LINE
5
22C
330
224
100
AcDbEntity
8
PLANO-MARCO
10
5326.0
20
550.0
30
0.0
11
5326.0
21
2550.0
31
0.0
0
LINE
5
22D
330
224
100
AcDbEntity
8
PLANO-MARCO
10
9704.0
20
550.0
30
0.0
11
9704.0
21
2550.0
31
0.0
0
LINE
5
22E
330
224
100
AcDbEntity
8
PLANO-MARCO
10
13087.0
20
550.0
30
0.0
11
13087.0
21
2550.0
31
0.0
0
LINE
5
22F
330
224
100
AcDbEntity
8
PLANO-MARCO
10
15674.0
20
550.0
30
0.0
11
15674.0
21
2550.0
31
0.0
0
LINE
5
230
330
224
100
AcDbEntity
8
PLANO-MARCO
10
18062.0
20
550.0
30
0.0
11
18062.0
21
2550.0
31
0.0
0
LINE
5
231
330
224
100
AcDbEntity
8
PLANO-MARCO
10
550.0
20
1390.0
30
0.0
11
20450.0
21
1390.0
31
0.0
0
TEXT
5
232
330
224
100
AcDbEntity
100
AcDbText
8
DW-TEXTO
10
1000.0
20
13550.0
30
0.0
40
450.0
1
MEMORIA DE SISTEMAS CONSTRUCTIVOS EN SECO
50
0.0
72
0
73
0
100
AcDbText
0
TEXT
5
233
330
224
100
AcDbEntity
100
AcDbText
8
DW-TEXTO
10
1000.0
20
12850.0
30
0.0
40
300.0
1
RESIDENCIAL LOS ÁLAMOS - PROYECTO REFORMA
50
0.0
72
0
73
0
100
AcDbText
0
TEXT
5
234
330
224
100
AcDbEntity
100
AcDbText
8
DW-TEXTO
10
1000.0
20
12350.0
30
0.0
40
150.0
1
CLIENTE: Ing. Carlos Mendoza
50
0.0
72
0
73
0
100
AcDbText
0
TEXT
5
235
330
224
100
AcDbEntity
100
AcDbText
8
DW-TEXTO
10
1000.0
20
12050.0
30
0.0
40
150.0
1
DIRECCION: Av. Libertador 450, Piso 3
50
0.0
72
0
73
0
100
AcDbText
0
TEXT
5
236
330
224
100
AcDbEntity
100
AcDbText
8
DW-TEXTO
10
1000.0
20
11750.0
30
0.0
40
150.0
1
CONTRATISTA: Drywall & Steel Master SL - +34 910 000 111
50
0.0
72
0
73
0
100
AcDbText
0
TEXT
5
237
330
224
100
AcDbEntity
100
AcDbText
8
DW-TEXTO
10
1000.0
20
11450.0
30
0.0
40
150.0
1
SUPERFICIE NETA: 50.24 m2 - ESCALA 1:50
50
0.0
72
0
73
0
100
AcDbText
0
TEXT
5
238
330
224
100
AcDbEntity
100
AcDbText
8
DW-TEXTO
10
1000.0
20
10750.0
30
0.0
40
200.0
1
INDICE DE LAMINAS
50
0.0
72
0
73
0
100
AcDbText
0
TEXT
5
239
330
224
100
AcDbEntity
100
AcDbText
8
DW-TEXTO
10
1100.0
20
10400.0
30
0.0
40
130.0
1
LAMINA-01
50
0.0
72
0
73
0
100
AcDbText
0
TEXT
5
23A
330
224
100
AcDbEntity
100
AcDbText
8
DW-TEXTO
10
2100.0
20
10400.0
30
0.0
40
130.0
1
Planta general de sistemas drywall
50
0.0
72
0
73
0
100
AcDbText
0
TEXT
5
23B
330
224
100
AcDbEntity
100
AcDbText
8
DW-TEXTO
10
1100.0
20
10130.0
30
0.0
40
130.0
1
LAMINA-02
50
0.0
72
0
73
0
100
AcDbText
0
TEXT
5
23C
330
224
100
AcDbEntity
100
AcDbText
8
DW-TEXTO
10
2100.0
20
10130.0
30
0.0
40
130.0
1
Planta general de sistemas drywall
50
0.0
72
0
73
0
100
AcDbText
0
TEXT
5
23D
330
224
100
AcDbEntity
100
AcDbText
8
DW-TEXTO
10
1100.0
20
9860.0
30
0.0
40
130.0
1
COMPUTO-01
50
0.0
72
0
73
0
100
AcDbText
0
TEXT
5
23E
330
224
100
AcDbEntity
100
AcDbText
8
DW-TEXTO
10
2100.0
20
9860.0
30
0.0
40
130.0
1
Computo de materiales (1)
50
0.0
72
0
73
0
100
AcDbText
0
TEXT
5
23F
330
224
100
AcDbEntity
100
AcDbText
8
DW-TEXTO
10
1100.0
20
9590.0
30
0.0
40
130.0
1
COMPUTO-02
50
0.0
72
0
73
0
100
AcDbText
0
TEXT
5
240
330
224
100
AcDbEntity
100
AcDbText
8
DW-TEXTO
10
2100.0
20
9590.0
30
0.0
40
130.0
1
Computo de materiales (2)
50
0.0
72
0
73
0
100
AcDbText
0
TEXT
5
241
330
224
100
AcDbEntity
100
AcDbText
8
DW-TEXTO
10
1000.0
20
8920.0
30
0.0
40
200.0
1
NOTAS GENERALES
50
0.0
72
0
73
0
100
AcDbText
0
TEXT
5
242
330
224
100
AcDbEntity
100
AcDbText
8
DW-TEXTO
10
1000.0
20
8570.0
30
0.0
40
115.0
1
Presupuesto incluye suministro, acarreo interno, instalación de perfilería conforme a normativa
50
0.0
72
0
73
0
100
AcDbText
0
TEXT
5
243
330
224
100
AcDbEntity
100
AcDbText
8
DW-TEXTO
10
1000.0
20
8340.0
30
0.0
40
115.0
1
ASTM C840 y tratamiento de juntas hasta Nivel 4 listo para pintar.
50
0.0
72
0
73
0
100
AcDbText
0
TEXT
5
244
330
224
100
AcDbEntity
100
AcDbText
8
DW-TEXTO
10
1000.0
20
8110.0
30
0.0
40
115.0
1

50
0.0
72
0
73
0
100
AcDbText
0
TEXT
5
245
330
224
100
AcDbEntity
100
AcDbText
8
DW-TEXTO
10
1000.0
20
7880.0
30
0.0
40
115.0
1
RECOMENDACIONES TECNICAS:
50
0.0
72
0
73
0
100
AcDbText
0
TEXT
5
246
330
224
100
AcDbEntity
100
AcDbText
8
DW-TEXTO
10
1000.0
20
7650.0
30
0.0
40
115.0
1
- Asegure nivelación láser previa en todo el perímetro antes de colocar los ángulos.
50
0.0
72
0
73
0
100
AcDbText
0
TEXT
5
247
330
224
100
AcDbEntity
100
AcDbText
8
DW-TEXTO
10
1000.0
20
7420.0
30
0.0
40
115.0
1
- Los perfiles primarios deben estar suspendidos a 1.20m máximo con varilla roscada o alambre
50
0.0
72
0
73
0
100
AcDbText
0
TEXT
5
248
330
224
100
AcDbEntity
100
AcDbText
8
DW-TEXTO
10
1000.0
20
7190.0
30
0.0
40
115.0
1
galvanizado #12.
50
0.0
72
0
73
0
100
AcDbText
0
TEXT
5
249
330
224
100
AcDbEntity
100
AcDbText
8
DW-TEXTO
10
1000.0
20
6960.0
30
0.0
40
115.0
1
- Perfiles Omega modulados cada 40.7cm transversalmente para evitar pandeo.
50
0.0
72
0
73
0
100
AcDbText
0
TEXT
5
24A
330
224
100
AcDbEntity
100
AcDbText
8
DW-TEXTO
10
1000.0
20
6730.0
30
0.0
40
115.0
1
- Dejar 10mm de holgura perimetral para absorción de dilataciones térmicas.
50
0.0
72
0
73
0
100
AcDbText
0
TEXT
5
24B
330
224
100
AcDbEntity
100
AcDbText
8
DW-TEXTO
10
1000.0
20
6500.0
30
0.0
40
115.0
1
- Alterne las juntas de las placas entre ambas caras: nunca haga coincidir una junta en la
50
0.0
72
0
73
0
100
AcDbText
0
TEXT
5
24C
330
224
100
AcDbEntity
100
AcDbText
8
DW-TEXTO
10
1000.0
20
6270.0
30
0.0
40
115.0
1
misma posición de ambas caras.
50
0.0
72
0
73
0
100
AcDbText
0
TEXT
5
24D
330
224
100
AcDbEntity
100
AcDbText
8
DW-TEXTO
10
1000.0
20
6040.0
30
0.0
40
115.0
1
- En puertas y ventanas, refuerce los parantes con canal insertado o montante doble espaldado.
50
0.0
72
0
73
0
100
AcDbText
0
TEXT
5
24E
330
224
100
AcDbEntity
100
AcDbText
8
DW-TEXTO
10
1000.0
20
5810.0
30
0.0
40
115.0
1
- La lana de vidrio debe cubrir completamente la cavidad sin comprimirse excesivamente.
50
0.0
72
0
73
0
100
AcDbText
0
TEXT
5
24F
330
224
100
AcDbEntity
100
AcDbText
8
DW-TEXTO
10
1000.0
20
5580.0
30
0.0
40
115.0
1
- Pase las instalaciones eléctricas e hidrosanitarias por los orificios troquelados antes de
50
0.0
72
0
73
0
100
AcDbText
0
TEXT
5
250
330
224
100
AcDbEntity
100
AcDbText
8
DW-TEXTO
10
1000.0
20
5350.0
30
0.0
40
115.0
1
cerrar la 2ª cara.
50
0.0
72
0
73
0
100
AcDbText
0
TEXT
5
251
330
224
100
AcDbEntity
100
AcDbText
8
DW-TEXTO
10
1000.0
20
5120.0
30
0.0
40
115.0
1
- Utilice tornillos zincados anticorrosión para evitar manchas de óxido por vapor de agua.
50
0.0
72
0
73
0
100
AcDbText
0
TEXT
5
252
330
224
100
AcDbEntity
100
AcDbText
8
DW-TEXTO
10
1000.0
20
4890.0
30
0.0
40
115.0
1
- Se recomienda imprimación hidrófuga y pintura impermeable de acabado.
50
0.0
72
0
73
0
100
AcDbText
0
LWPOLYLINE
5
253
330
224
100
AcDbEntity
100
AcDbPolyline
8
PLANO-MARCO
90
4
70
1
43
0.0
10
16400.0
20
11270.0
10
20000.0
20
11270.0
10
20000.0
20
13850.0
10
16400.0
20
13850.0
0
TEXT
5
254
330
224
100
AcDbEntity
100
AcDbText
8
DW-TEXTO
10
16550.0
20
13650.0
30
0.0
40
150.0
1
LEYENDA DE CAPAS
50
0.0
72
0
73
0
100
AcDbText
0
LINE
5
255
330
224
100
AcDbEntity
8
DW-PERFIL
10
16550.0
20
13300.0
30
0.0
11
17150.0
21
13300.0
31
0.0
0
TEXT
5
256
330
224
100
AcDbEntity
100
AcDbText
8
DW-TEXTO
10
17300.0
20
13260.0
30
0.0
40
115.0
1
Parante / montante
50
0.0
72
0
73
0
100
AcDbText
0
LINE
5
257
330
224
100
AcDbEntity
8
DW-CANAL
10
16550.0
20
13040.0
30
0.0
11
17150.0
21
13040.0
31
0.0
0
TEXT
5
258
330
224
100
AcDbEntity
100
AcDbText
8
DW-TEXTO
10
17300.0
20
13000.0
30
0.0
40
115.0
1
Canal, solera y angular
50
0.0
72
0
73
0
100
AcDbText
0
LINE
5
259
330
224
100
AcDbEntity
8
DW-OMEGA
10
16550.0
20
12780.0
30
0.0
11
17150.0
21
12780.0
31
0.0
0
TEXT
5
25A
330
224
100
AcDbEntity
100
AcDbText
8
DW-TEXTO
10
17300.0
20
12740.0
30
0.0
40
115.0
1
Omega / furring
50
0.0
72
0
73
0
100
AcDbText
0
LINE
5
25B
330
224
100
AcDbEntity
8
DW-PRIMARIO
10
16550.0
20
12520.0
30
0.0
11
17150.0
21
12520.0
31
0.0
0
TEXT
5
25C
330
224
100
AcDbEntity
100
AcDbText
8
DW-TEXTO
10
17300.0
20
12480.0
30
0.0
40
115.0
1
Perfil primario suspendido
50
0.0
72
0
73
0
100
AcDbText
0
LINE
5
25D
330
224
100
AcDbEntity
8
DW-PLACA
10
16550.0
20
12260.0
30
0.0
11
17150.0
21
12260.0
31
0.0
0
TEXT
5
25E
330
224
100
AcDbEntity
100
AcDbText
8
DW-TEXTO
10
17300.0
20
12220.0
30
0.0
40
115.0
1
Modulacion de placas
50
0.0
72
0
73
0
100
AcDbText
0
LINE
5
25F
330
224
100
AcDbEntity
8
DW-AISLANTE
10
16550.0
20
12000.0
30
0.0
11
17150.0
21
12000.0
31
0.0
0
TEXT
5
260
330
224
100
AcDbEntity
100
AcDbText
8
DW-TEXTO
10
17300.0
20
11960.0
30
0.0
40
115.0
1
Aislamiento
50
0.0
72
0
73
0
100
AcDbText
0
LINE
5
261
330
224
100
AcDbEntity
8
DW-ABERTURA
10
16550.0
20
11740.0
30
0.0
11
17150.0
21
11740.0
31
0.0
0
TEXT
5
262
330
224
100
AcDbEntity
100
AcDbText
8
DW-TEXTO
10
17300.0
20
11700.0
30
0.0
40
115.0
1
Aberturas y refuerzos
50
0.0
72
0
73
0
100
AcDbText
0
LINE
5
263
330
224
100
AcDbEntity
8
DW-FIJACION
10
16550.0
20
11480.0
30
0.0
11
17150.0
21
11480.0
31
0.0
0
TEXT
5
264
330
224
100
AcDbEntity
100
AcDbText
8
DW-TEXTO
10
17300.0
20
11440.0
30
0.0
40
115.0
1
Fijaciones
50
0.0
72
0
73
0
100
AcDbText
0
TEXT
5
265
330
224
100
AcDbEntity
100
AcDbText
8
DW-TEXTO
10
675.0
20
1070.0
30
0.0
40
100.0
1
EMPRESA / CONTRATISTA
50
0.0
72
0
73
0
100
AcDbText
0
TEXT
5
266
330
224
100
AcDbEntity
100
AcDbText
8
DW-TEXTO
10
675.0
20
710.0
30
0.0
40
130.0
1
Drywall & Steel Master SL
50
0.0
72
0
73
0
100
AcDbText
0
TEXT
5
267
330
224
100
AcDbEntity
100
AcDbText
8
DW-TEXTO
10
5451.0
20
1070.0
30
0.0
40
100.0
1
PROYECTO
50
0.0
72
0
73
0
100
AcDbText
0
TEXT
5
268
330
224
100
AcDbEntity
100
AcDbText
8
DW-TEXTO
10
5451.0
20
710.0
30
0.0
40
130.0
1
Residencial Los Álamos - Proyecto Reforma
50
0.0
72
0
73
0
100
AcDbText
0
TEXT
5
269
330
224
100
AcDbEntity
100
AcDbText
8
DW-TEXTO
10
9829.0
20
1070.0
30
0.0
40
100.0
1
CLIENTE
50
0.0
72
0
73
0
100
AcDbText
0
TEXT
5
26A
330
224
100
AcDbEntity
100
AcDbText
8
DW-TEXTO
10
9829.0
20
710.0
30
0.0
40
130.0
1
Ing. Carlos Mendoza
50
0.0
72
0
73
0
100
AcDbText
0
TEXT
5
26B
330
224
100
AcDbEntity
100
AcDbText
8
DW-TEXTO
10
13212.0
20
1070.0
30
0.0
40
100.0
1
ESCALA / UNIDADES
50
0.0
72
0
73
0
100
AcDbText
0
TEXT
5
26C
330
224
100
AcDbEntity
100
AcDbText
8
DW-TEXTO
10
13212.0
20
710.0
30
0.0
40
130.0
1
1:50 (MM)
50
0.0
72
0
73
0
100
AcDbText
0
TEXT
5
26D
330
224
100
AcDbEntity
100
AcDbText
8
DW-TEXTO
10
15799.0
20
1070.0
30
0.0
40
100.0
1
LAM.
50
0.0
72
0
73
0
100
AcDbText
0
TEXT
5
26E
330
224
100
AcDbEntity
100
AcDbText
8
DW-TEXTO
10
15799.0
20
710.0
30
0.0
40
170.0
1
1/5
50
0.0
72
0
73
0
100
AcDbText
0
TEXT
5
26F
330
224
100
AcDbEntity
100
AcDbText
8
DW-TEXTO
10
18187.0
20
1070.0
30
0.0
40
100.0
1
FECHA / REV.
50
0.0
72
0
73
0
100
AcDbText
0
TEXT
5
270
330
224
100
AcDbEntity
100
AcDbText
8
DW-TEXTO
10
18187.0
20
710.0
30
0.0
40
130.0
1
2026-10-03 / A
50
0.0
72
0
73
0
100
AcDbText
0
TEXT
5
271
330
224
100
AcDbEntity
100
AcDbText
8
DW-TEXTO
10
650.0
20
2750.0
30
0.0
40
160.0
1
INDICE, LEYENDA Y NOTAS GENERALES
50
0.0
72
0
73
0
100
AcDbText
0
TEXT
5
272
330
224
100
AcDbEntity
100
AcDbText
8
DW-TEXTO
10
20350.0
20
2750.0
30
0.0
40
130.0
1
SUP. NETA: 50.24 m2
50
0.0
72
2
73
0
11
20350.0
21
2750.0
31
0.0
100
AcDbText
0
LWPOLYLINE
5
273
330
224
100
AcDbEntity
100
AcDbPolyline
8
PLANO-MARCO
90
4
70
1
43
0.0
10
400.0
20
400.0
10
20600.0
20
400.0
10
20600.0
20
14450.0
10
400.0
20
14450.0
0
LWPOLYLINE
5
274
330
224
100
AcDbEntity
100
AcDbPolyline
8
PLANO-MARCO
90
4
70
1
43
0.0
10
550.0
20
550.0
10
20450.0
20
550.0
10
20450.0
20
14300.0
10
550.0
20
14300.0
0
LINE
5
275
330
224
100
AcDbEntity
8
PLANO-MARCO
10
550.0
20
2550.0
30
0.0
11
20450.0
21
2550.0
31
0.0
0
LINE
5
276
330
224
100
AcDbEntity
8
PLANO-MARCO
10
5326.0
20
550.0
30
0.0
11
5326.0
21
2550.0
31
0.0
0
LINE
5
277
330
224
100
AcDbEntity
8
PLANO-MARCO
10
9704.0
20
550.0
30
0.0
11
9704.0
21
2550.0
31
0.0
0
LINE
5
278
330
224
100
AcDbEntity
8
PLANO-MARCO
10
13087.0
20
550.0
30
0.0
11
13087.0
21
2550.0
31
0.0
0
LINE
5
279
330
224
100
AcDbEntity
8
PLANO-MARCO
10
15674.0
20
550.0
30
0.0
11
15674.0
21
2550.0
31
0.0
0
LINE
5
27A
330
224
100
AcDbEntity
8
PLANO-MARCO
10
18062.0
20
550.0
30
0.0
11
18062.0
21
2550.0
31
0.0
0
LINE
5
27B
330
224
100
AcDbEntity
8
PLANO-MARCO
10
550.0
20
1390.0
30
0.0
11
20450.0
21
1390.0
31
0.0
0
LWPOLYLINE
5
27C
330
224
100
AcDbEntity
100
AcDbPolyline
8
ARQ-MURO
90
4
70
1
43
0.0
10
26206.0
20
5444.5
10
32706.0
20
5444.5
10
32706.0
20
10244.5
10
26206.0
20
10244.5
0
LWPOLYLINE
5
27D
330
224
100
AcDbEntity
100
AcDbPolyline
8
DW-CANAL
90
4
70
1
43
0.0
10
26231.0
20
5469.5
10
32681.0
20
5469.5
10
32681.0
20
10219.5
10
26231.0
20
10219.5
0
LINE
5
27E
330
224
100
AcDbEntity
8
DW-PRIMARIO
10
26794.0
20
5444.5
30
0.0
11
26794.0
21
10244.5
31
0.0
0
LINE
5
27F
330
224
100
AcDbEntity
8
DW-PRIMARIO
10
26818.0
20
5444.5
30
0.0
11
26818.0
21
10244.5
31
0.0
0
LINE
5
280
330
224
100
AcDbEntity
8
DW-PRIMARIO
10
27994.0
20
5444.5
30
0.0
11
27994.0
21
10244.5
31
0.0
0
LINE
5
281
330
224
100
AcDbEntity
8
DW-PRIMARIO
10
28018.0
20
5444.5
30
0.0
11
28018.0
21
10244.5
31
0.0
0
LINE
5
282
330
224
100
AcDbEntity
8
DW-PRIMARIO
10
29194.0
20
5444.5
30
0.0
11
29194.0
21
10244.5
31
0.0
0
LINE
5
283
330
224
100
AcDbEntity
8
DW-PRIMARIO
10
29218.0
20
5444.5
30
0.0
11
29218.0
21
10244.5
31
0.0
0
LINE
5
284
330
224
100
AcDbEntity
8
DW-PRIMARIO
10
30394.0
20
5444.5
30
0.0
11
30394.0
21
10244.5
31
0.0
0
LINE
5
285
330
224
100
AcDbEntity
8
DW-PRIMARIO
10
30418.0
20
5444.5
30
0.0
11
30418.0
21
10244.5
31
0.0
0
LINE
5
286
330
224
100
AcDbEntity
8
DW-PRIMARIO
10
31594.0
20
5444.5
30
0.0
11
31594.0
21
10244.5
31
0.0
0
LINE
5
287
330
224
100
AcDbEntity
8
DW-PRIMARIO
10
31618.0
20
5444.5
30
0.0
11
31618.0
21
10244.5
31
0.0
0
LINE
5
288
330
224
100
AcDbEntity
8
DW-OMEGA
10
26206.0
20
5851.5
30
0.0
11
32706.0
21
5851.5
31
0.0
0
LINE
5
289
330
224
100
AcDbEntity
8
DW-OMEGA
10
26206.0
20
6258.5
30
0.0
11
32706.0
21
6258.5
31
0.0
0
LINE
5
28A
330
224
100
AcDbEntity
8
DW-OMEGA
10
26206.0
20
6665.5
30
0.0
11
32706.0
21
6665.5
31
0.0
0
LINE
5
28B
330
224
100
AcDbEntity
8
DW-OMEGA
10
26206.0
20
7072.5
30
0.0
11
32706.0
21
7072.5
31
0.0
0
LINE
5
28C
330
224
100
AcDbEntity
8
DW-OMEGA
10
26206.0
20
7479.5
30
0.0
11
32706.0
21
7479.5
31
0.0
0
LINE
5
28D
330
224
100
AcDbEntity
8
DW-OMEGA
10
26206.0
20
7886.5
30
0.0
11
32706.0
21
7886.5
31
0.0
0
LINE
5
28E
330
224
100
AcDbEntity
8
DW-OMEGA
10
26206.0
20
8293.5
30
0.0
11
32706.0
21
8293.5
31
0.0
0
LINE
5
28F
330
224
100
AcDbEntity
8
DW-OMEGA
10
26206.0
20
8700.5
30
0.0
11
32706.0
21
8700.5
31
0.0
0
LINE
5
290
330
224
100
AcDbEntity
8
DW-OMEGA
10
26206.0
20
9107.5
30
0.0
11
32706.0
21
9107.5
31
0.0
0
LINE
5
291
330
224
100
AcDbEntity
8
DW-OMEGA
10
26206.0
20
9514.5
30
0.0
11
32706.0
21
9514.5
31
0.0
0
LINE
5
292
330
224
100
AcDbEntity
8
DW-OMEGA
10
26206.0
20
9921.5
30
0.0
11
32706.0
21
9921.5
31
0.0
0
CIRCLE
5
293
330
224
100
AcDbEntity
100
AcDbCircle
8
DW-SIMBOLO
10
26806.0
20
6044.5
30
0.0
40
30.0
0
LINE
5
294
330
224
100
AcDbEntity
8
DW-SIMBOLO
10
26758.0
20
6044.5
30
0.0
11
26854.0
21
6044.5
31
0.0
0
LINE
5
295
330
224
100
AcDbEntity
8
DW-SIMBOLO
10
26806.0
20
5996.5
30
0.0
11
26806.0
21
6092.5
31
0.0
0
CIRCLE
5
296
330
224
100
AcDbEntity
100
AcDbCircle
8
DW-SIMBOLO
10
26806.0
20
7244.5
30
0.0
40
30.0
0
LINE
5
297
330
224
100
AcDbEntity
8
DW-SIMBOLO
10
26758.0
20
7244.5
30
0.0
11
26854.0
21
7244.5
31
0.0
0
LINE
5
298
330
224
100
AcDbEntity
8
DW-SIMBOLO
10
26806.0
20
7196.5
30
0.0
11
26806.0
21
7292.5
31
0.0
0
CIRCLE
5
299
330
224
100
AcDbEntity
100
AcDbCircle
8
DW-SIMBOLO
10
26806.0
20
8444.5
30
0.0
40
30.0
0
LINE
5
29A
330
224
100
AcDbEntity
8
DW-SIMBOLO
10
26758.0
20
8444.5
30
0.0
11
26854.0
21
8444.5
31
0.0
0
LINE
5
29B
330
224
100
AcDbEntity
8
DW-SIMBOLO
10
26806.0
20
8396.5
30
0.0
11
26806.0
21
8492.5
31
0.0
0
CIRCLE
5
29C
330
224
100
AcDbEntity
100
AcDbCircle
8
DW-SIMBOLO
10
26806.0
20
9644.5
30
0.0
40
30.0
0
LINE
5
29D
330
224
100
AcDbEntity
8
DW-SIMBOLO
10
26758.0
20
9644.5
30
0.0
11
26854.0
21
9644.5
31
0.0
0
LINE
5
29E
330
224
100
AcDbEntity
8
DW-SIMBOLO
10
26806.0
20
9596.5
30
0.0
11
26806.0
21
9692.5
31
0.0
0
CIRCLE
5
29F
330
224
100
AcDbEntity
100
AcDbCircle
8
DW-SIMBOLO
10
28006.0
20
6044.5
30
0.0
40
30.0
0
LINE
5
2A0
330
224
100
AcDbEntity
8
DW-SIMBOLO
10
27958.0
20
6044.5
30
0.0
11
28054.0
21
6044.5
31
0.0
0
LINE
5
2A1
330
224
100
AcDbEntity
8
DW-SIMBOLO
10
28006.0
20
5996.5
30
0.0
11
28006.0
21
6092.5
31
0.0
0
CIRCLE
5
2A2
330
224
100
AcDbEntity
100
AcDbCircle
8
DW-SIMBOLO
10
28006.0
20
7244.5
30
0.0
40
30.0
0
LINE
5
2A3
330
224
100
AcDbEntity
8
DW-SIMBOLO
10
27958.0
20
7244.5
30
0.0
11
28054.0
21
7244.5
31
0.0
0
LINE
5
2A4
330
224
100
AcDbEntity
8
DW-SIMBOLO
10
28006.0
20
7196.5
30
0.0
11
28006.0
21
7292.5
31
0.0
0
CIRCLE
5
2A5
330
224
100
AcDbEntity
100
AcDbCircle
8
DW-SIMBOLO
10
28006.0
20
8444.5
30
0.0
40
30.0
0
LINE
5
2A6
330
224
100
AcDbEntity
8
DW-SIMBOLO
10
27958.0
20
8444.5
30
0.0
11
28054.0
21
8444.5
31
0.0
0
LINE
5
2A7
330
224
100
AcDbEntity
8
DW-SIMBOLO
10
28006.0
20
8396.5
30
0.0
11
28006.0
21
8492.5
31
0.0
0
CIRCLE
5
2A8
330
224
100
AcDbEntity
100
AcDbCircle
8
DW-SIMBOLO
10
28006.0
20
9644.5
30
0.0
40
30.0
0
LINE
5
2A9
330
224
100
AcDbEntity
8
DW-SIMBOLO
10
27958.0
20
9644.5
30
0.0
11
28054.0
21
9644.5
31
0.0
0
LINE
5
2AA
330
224
100
AcDbEntity
8
DW-SIMBOLO
10
28006.0
20
9596.5
30
0.0
11
28006.0
21
9692.5
31
0.0
0
CIRCLE
5
2AB
330
224
100
AcDbEntity
100
AcDbCircle
8
DW-SIMBOLO
10
29206.0
20
6044.5
30
0.0
40
30.0
0
LINE
5
2AC
330
224
100
AcDbEntity
8
DW-SIMBOLO
10
29158.0
20
6044.5
30
0.0
11
29254.0
21
6044.5
31
0.0
0
LINE
5
2AD
330
224
100
AcDbEntity
8
DW-SIMBOLO
10
29206.0
20
5996.5
30
0.0
11
29206.0
21
6092.5
31
0.0
0
CIRCLE
5
2AE
330
224
100
AcDbEntity
100
AcDbCircle
8
DW-SIMBOLO
10
29206.0
20
7244.5
30
0.0
40
30.0
0
LINE
5
2AF
330
224
100
AcDbEntity
8
DW-SIMBOLO
10
29158.0
20
7244.5
30
0.0
11
29254.0
21
7244.5
31
0.0
0
LINE
5
2B0
330
224
100
AcDbEntity
8
DW-SIMBOLO
10
29206.0
20
7196.5
30
0.0
11
29206.0
21
7292.5
31
0.0
0
CIRCLE
5
2B1
330
224
100
AcDbEntity
100
AcDbCircle
8
DW-SIMBOLO
10
29206.0
20
8444.5
30
0.0
40
30.0
0
LINE
5
2B2
330
224
100
AcDbEntity
8
DW-SIMBOLO
10
29158.0
20
8444.5
30
0.0
11
29254.0
21
8444.5
31
0.0
0
LINE
5
2B3
330
224
100
AcDbEntity
8
DW-SIMBOLO
10
29206.0
20
8396.5
30
0.0
11
29206.0
21
8492.5
31
0.0
0
CIRCLE
5
2B4
330
224
100
AcDbEntity
100
AcDbCircle
8
DW-SIMBOLO
10
29206.0
20
9644.5
30
0.0
40
30.0
0
LINE
5
2B5
330
224
100
AcDbEntity
8
DW-SIMBOLO
10
29158.0
20
9644.5
30
0.0
11
29254.0
21
9644.5
31
0.0
0
LINE
5
2B6
330
224
100
AcDbEntity
8
DW-SIMBOLO
10
29206.0
20
9596.5
30
0.0
11
29206.0
21
9692.5
31
0.0
0
CIRCLE
5
2B7
330
224
100
AcDbEntity
100
AcDbCircle
8
DW-SIMBOLO
10
30406.0
20
6044.5
30
0.0
40
30.0
0
LINE
5
2B8
330
224
100
AcDbEntity
8
DW-SIMBOLO
10
30358.0
20
6044.5
30
0.0
11
30454.0
21
6044.5
31
0.0
0
LINE
5
2B9
330
224
100
AcDbEntity
8
DW-SIMBOLO
10
30406.0
20
5996.5
30
0.0
11
30406.0
21
6092.5
31
0.0
0
CIRCLE
5
2BA
330
224
100
AcDbEntity
100
AcDbCircle
8
DW-SIMBOLO
10
30406.0
20
7244.5
30
0.0
40
30.0
0
LINE
5
2BB
330
224
100
AcDbEntity
8
DW-SIMBOLO
10
30358.0
20
7244.5
30
0.0
11
30454.0
21
7244.5
31
0.0
0
LINE
5
2BC
330
224
100
AcDbEntity
8
DW-SIMBOLO
10
30406.0
20
7196.5
30
0.0
11
30406.0
21
7292.5
31
0.0
0
CIRCLE
5
2BD
330
224
100
AcDbEntity
100
AcDbCircle
8
DW-SIMBOLO
10
30406.0
20
8444.5
30
0.0
40
30.0
0
LINE
5
2BE
330
224
100
AcDbEntity
8
DW-SIMBOLO
10
30358.0
20
8444.5
30
0.0
11
30454.0
21
8444.5
31
0.0
0
LINE
5
2BF
330
224
100
AcDbEntity
8
DW-SIMBOLO
10
30406.0
20
8396.5
30
0.0
11
30406.0
21
8492.5
31
0.0
0
CIRCLE
5
2C0
330
224
100
AcDbEntity
100
AcDbCircle
8
DW-SIMBOLO
10
30406.0
20
9644.5
30
0.0
40
30.0
0
LINE
5
2C1
330
224
100
AcDbEntity
8
DW-SIMBOLO
10
30358.0
20
9644.5
30
0.0
11
30454.0
21
9644.5
31
0.0
0
LINE
5
2C2
330
224
100
AcDbEntity
8
DW-SIMBOLO
10
30406.0
20
9596.5
30
0.0
11
30406.0
21
9692.5
31
0.0
0
CIRCLE
5
2C3
330
224
100
AcDbEntity
100
AcDbCircle
8
DW-SIMBOLO
10
31606.0
20
6044.5
30
0.0
40
30.0
0
LINE
5
2C4
330
224
100
AcDbEntity
8
DW-SIMBOLO
10
31558.0
20
6044.5
30
0.0
11
31654.0
21
6044.5
31
0.0
0
LINE
5
2C5
330
224
100
AcDbEntity
8
DW-SIMBOLO
10
31606.0
20
5996.5
30
0.0
11
31606.0
21
6092.5
31
0.0
0
CIRCLE
5
2C6
330
224
100
AcDbEntity
100
AcDbCircle
8
DW-SIMBOLO
10
31606.0
20
7244.5
30
0.0
40
30.0
0
LINE
5
2C7
330
224
100
AcDbEntity
8
DW-SIMBOLO
10
31558.0
20
7244.5
30
0.0
11
31654.0
21
7244.5
31
0.0
0
LINE
5
2C8
330
224
100
AcDbEntity
8
DW-SIMBOLO
10
31606.0
20
7196.5
30
0.0
11
31606.0
21
7292.5
31
0.0
0
CIRCLE
5
2C9
330
224
100
AcDbEntity
100
AcDbCircle
8
DW-SIMBOLO
10
31606.0
20
8444.5
30
0.0
40
30.0
0
LINE
5
2CA
330
224
100
AcDbEntity
8
DW-SIMBOLO
10
31558.0
20
8444.5
30
0.0
11
31654.0
21
8444.5
31
0.0
0
LINE
5
2CB
330
224
100
AcDbEntity
8
DW-SIMBOLO
10
31606.0
20
8396.5
30
0.0
11
31606.0
21
8492.5
31
0.0
0
CIRCLE
5
2CC
330
224
100
AcDbEntity
100
AcDbCircle
8
DW-SIMBOLO
10
31606.0
20
9644.5
30
0.0
40
30.0
0
LINE
5
2CD
330
224
100
AcDbEntity
8
DW-SIMBOLO
10
31558.0
20
9644.5
30
0.0
11
31654.0
21
9644.5
31
0.0
0
LINE
5
2CE
330
224
100
AcDbEntity
8
DW-SIMBOLO
10
31606.0
20
9596.5
30
0.0
11
31606.0
21
9692.5
31
0.0
0
LWPOLYLINE
5
2CF
330
224
100
AcDbEntity
100
AcDbPolyline
8
DW-PLACA
90
4
70
1
43
0.0
10
26206.0
20
5444.5
10
27406.0
20
5444.5
10
27406.0
20
7844.5
10
26206.0
20
7844.5
0
LWPOLYLINE
5
2D0
330
224
100
AcDbEntity
100
AcDbPolyline
8
DW-PLACA
90
4
70
1
43
0.0
10
27406.0
20
5444.5
10
28606.0
20
5444.5
10
28606.0
20
7844.5
10
27406.0
20
7844.5
0
LWPOLYLINE
5
2D1
330
224
100
AcDbEntity
100
AcDbPolyline
8
DW-PLACA
90
4
70
1
43
0.0
10
28606.0
20
5444.5
10
29806.0
20
5444.5
10
29806.0
20
7844.5
10
28606.0
20
7844.5
0
LWPOLYLINE
5
2D2
330
224
100
AcDbEntity
100
AcDbPolyline
8
DW-PLACA
90
4
70
1
43
0.0
10
29806.0
20
5444.5
10
31006.0
20
5444.5
10
31006.0
20
7844.5
10
29806.0
20
7844.5
0
LWPOLYLINE
5
2D3
330
224
100
AcDbEntity
100
AcDbPolyline
8
DW-PLACA
90
4
70
1
43
0.0
10
31006.0
20
5444.5
10
32206.0
20
5444.5
10
32206.0
20
7844.5
10
31006.0
20
7844.5
0
LWPOLYLINE
5
2D4
330
224
100
AcDbEntity
100
AcDbPolyline
8
DW-PLACA
90
4
70
1
43
0.0
10
32206.0
20
5444.5
10
32706.0
20
5444.5
10
32706.0
20
7844.5
10
32206.0
20
7844.5
0
LWPOLYLINE
5
2D5
330
224
100
AcDbEntity
100
AcDbPolyline
8
DW-PLACA
90
4
70
1
43
0.0
10
26206.0
20
7844.5
10
26806.0
20
7844.5
10
26806.0
20
10244.5
10
26206.0
20
10244.5
0
LWPOLYLINE
5
2D6
330
224
100
AcDbEntity
100
AcDbPolyline
8
DW-PLACA
90
4
70
1
43
0.0
10
26806.0
20
7844.5
10
28006.0
20
7844.5
10
28006.0
20
10244.5
10
26806.0
20
10244.5
0
LWPOLYLINE
5
2D7
330
224
100
AcDbEntity
100
AcDbPolyline
8
DW-PLACA
90
4
70
1
43
0.0
10
28006.0
20
7844.5
10
29206.0
20
7844.5
10
29206.0
20
10244.5
10
28006.0
20
10244.5
0
LWPOLYLINE
5
2D8
330
224
100
AcDbEntity
100
AcDbPolyline
8
DW-PLACA
90
4
70
1
43
0.0
10
29206.0
20
7844.5
10
30406.0
20
7844.5
10
30406.0
20
10244.5
10
29206.0
20
10244.5
0
LWPOLYLINE
5
2D9
330
224
100
AcDbEntity
100
AcDbPolyline
8
DW-PLACA
90
4
70
1
43
0.0
10
30406.0
20
7844.5
10
31606.0
20
7844.5
10
31606.0
20
10244.5
10
30406.0
20
10244.5
0
LWPOLYLINE
5
2DA
330
224
100
AcDbEntity
100
AcDbPolyline
8
DW-PLACA
90
4
70
1
43
0.0
10
31606.0
20
7844.5
10
32706.0
20
7844.5
10
32706.0
20
10244.5
10
31606.0
20
10244.5
0
LINE
5
2DB
330
224
100
AcDbEntity
8
DW-EJE
10
25706.0
20
7844.5
30
0.0
11
33206.0
21
7844.5
31
0.0
0
LINE
5
2DC
330
224
100
AcDbEntity
8
DW-EJE
10
29456.0
20
4944.5
30
0.0
11
29456.0
21
10744.5
31
0.0
0
LINE
5
2DD
330
224
100
AcDbEntity
8
DW-COTA
10
26206.0
20
5364.5
30
0.0
11
26206.0
21
4695.5
31
0.0
0
LINE
5
2DE
330
224
100
AcDbEntity
8
DW-COTA
10
32706.0
20
5364.5
30
0.0
11
32706.0
21
4695.5
31
0.0
0
LINE
5
2DF
330
224
100
AcDbEntity
8
DW-COTA
10
26206.0
20
4744.5
30
0.0
11
32706.0
21
4744.5
31
0.0
0
LINE
5
2E0
330
224
100
AcDbEntity
8
DW-COTA
10
26157.0
20
4695.5
30
0.0
11
26255.0
21
4793.5
31
0.0
0
LINE
5
2E1
330
224
100
AcDbEntity
8
DW-COTA
10
32657.0
20
4695.5
30
0.0
11
32755.0
21
4793.5
31
0.0
0
TEXT
5
2E2
330
224
100
AcDbEntity
100
AcDbText
8
DW-COTA
10
29456.0
20
4793.5
30
0.0
40
140.0
1
6.50
50
0.0
72
4
73
2
11
29456.0
21
4793.5
31
0.0
100
AcDbText
0
LINE
5
2E3
330
224
100
AcDbEntity
8
DW-COTA
10
26136.0
20
5444.5
30
0.0
11
25157.0
21
5444.5
31
0.0
0
LINE
5
2E4
330
224
100
AcDbEntity
8
DW-COTA
10
26136.0
20
10244.5
30
0.0
11
25157.0
21
10244.5
31
0.0
0
LINE
5
2E5
330
224
100
AcDbEntity
8
DW-COTA
10
25206.0
20
5444.5
30
0.0
11
25206.0
21
10244.5
31
0.0
0
LINE
5
2E6
330
224
100
AcDbEntity
8
DW-COTA
10
25157.0
20
5395.5
30
0.0
11
25255.0
21
5493.5
31
0.0
0
LINE
5
2E7
330
224
100
AcDbEntity
8
DW-COTA
10
25157.0
20
10195.5
30
0.0
11
25255.0
21
10293.5
31
0.0
0
TEXT
5
2E8
330
224
100
AcDbEntity
100
AcDbText
8
DW-COTA
10
25150.0
20
7844.5
30
0.0
40
140.0
1
4.80
50
90.0
72
4
73
2
11
25150.0
21
7844.5
31
0.0
100
AcDbText
0
LINE
5
2E9
330
224
100
AcDbEntity
8
DW-COTA
10
26206.0
20
10304.5
30
0.0
11
26206.0
21
10979.5
31
0.0
0
LINE
5
2EA
330
224
100
AcDbEntity
8
DW-COTA
10
27406.0
20
10304.5
30
0.0
11
27406.0
21
10979.5
31
0.0
0
LINE
5
2EB
330
224
100
AcDbEntity
8
DW-COTA
10
26206.0
20
10944.5
30
0.0
11
27406.0
21
10944.5
31
0.0
0
LINE
5
2EC
330
224
100
AcDbEntity
8
DW-COTA
10
26171.0
20
10909.5
30
0.0
11
26241.0
21
10979.5
31
0.0
0
LINE
5
2ED
330
224
100
AcDbEntity
8
DW-COTA
10
27371.0
20
10909.5
30
0.0
11
27441.0
21
10979.5
31
0.0
0
TEXT
5
2EE
330
224
100
AcDbEntity
100
AcDbText
8
DW-COTA
10
26806.0
20
10979.5
30
0.0
40
100.0
1
1.20
50
0.0
72
4
73
2
11
26806.0
21
10979.5
31
0.0
100
AcDbText
0
LINE
5
2EF
330
224
100
AcDbEntity
8
DW-COTA
10
27406.0
20
10304.5
30
0.0
11
27406.0
21
10979.5
31
0.0
0
LINE
5
2F0
330
224
100
AcDbEntity
8
DW-COTA
10
28606.0
20
10304.5
30
0.0
11
28606.0
21
10979.5
31
0.0
0
LINE
5
2F1
330
224
100
AcDbEntity
8
DW-COTA
10
27406.0
20
10944.5
30
0.0
11
28606.0
21
10944.5
31
0.0
0
LINE
5
2F2
330
224
100
AcDbEntity
8
DW-COTA
10
27371.0
20
10909.5
30
0.0
11
27441.0
21
10979.5
31
0.0
0
LINE
5
2F3
330
224
100
AcDbEntity
8
DW-COTA
10
28571.0
20
10909.5
30
0.0
11
28641.0
21
10979.5
31
0.0
0
TEXT
5
2F4
330
224
100
AcDbEntity
100
AcDbText
8
DW-COTA
10
28006.0
20
10979.5
30
0.0
40
100.0
1
1.20
50
0.0
72
4
73
2
11
28006.0
21
10979.5
31
0.0
100
AcDbText
0
LINE
5
2F5
330
224
100
AcDbEntity
8
DW-COTA
10
28606.0
20
10304.5
30
0.0
11
28606.0
21
10979.5
31
0.0
0
LINE
5
2F6
330
224
100
AcDbEntity
8
DW-COTA
10
29806.0
20
10304.5
30
0.0
11
29806.0
21
10979.5
31
0.0
0
LINE
5
2F7
330
224
100
AcDbEntity
8
DW-COTA
10
28606.0
20
10944.5
30
0.0
11
29806.0
21
10944.5
31
0.0
0
LINE
5
2F8
330
224
100
AcDbEntity
8
DW-COTA
10
28571.0
20
10909.5
30
0.0
11
28641.0
21
10979.5
31
0.0
0
LINE
5
2F9
330
224
100
AcDbEntity
8
DW-COTA
10
29771.0
20
10909.5
30
0.0
11
29841.0
21
10979.5
31
0.0
0
TEXT
5
2FA
330
224
100
AcDbEntity
100
AcDbText
8
DW-COTA
10
29206.0
20
10979.5
30
0.0
40
100.0
1
1.20
50
0.0
72
4
73
2
11
29206.0
21
10979.5
31
0.0
100
AcDbText
0
LINE
5
2FB
330
224
100
AcDbEntity
8
DW-COTA
10
29806.0
20
10304.5
30
0.0
11
29806.0
21
10979.5
31
0.0
0
LINE
5
2FC
330
224
100
AcDbEntity
8
DW-COTA
10
31006.0
20
10304.5
30
0.0
11
31006.0
21
10979.5
31
0.0
0
LINE
5
2FD
330
224
100
AcDbEntity
8
DW-COTA
10
29806.0
20
10944.5
30
0.0
11
31006.0
21
10944.5
31
0.0
0
LINE
5
2FE
330
224
100
AcDbEntity
8
DW-COTA
10
29771.0
20
10909.5
30
0.0
11
29841.0
21
10979.5
31
0.0
0
LINE
5
2FF
330
224
100
AcDbEntity
8
DW-COTA
10
30971.0
20
10909.5
30
0.0
11
31041.0
21
10979.5
31
0.0
0
TEXT
5
300
330
224
100
AcDbEntity
100
AcDbText
8
DW-COTA
10
30406.0
20
10979.5
30
0.0
40
100.0
1
1.20
50
0.0
72
4
73
2
11
30406.0
21
10979.5
31
0.0
100
AcDbText
0
LINE
5
301
330
224
100
AcDbEntity
8
DW-COTA
10
31006.0
20
10304.5
30
0.0
11
31006.0
21
10979.5
31
0.0
0
LINE
5
302
330
224
100
AcDbEntity
8
DW-COTA
10
32206.0
20
10304.5
30
0.0
11
32206.0
21
10979.5
31
0.0
0
LINE
5
303
330
224
100
AcDbEntity
8
DW-COTA
10
31006.0
20
10944.5
30
0.0
11
32206.0
21
10944.5
31
0.0
0
LINE
5
304
330
224
100
AcDbEntity
8
DW-COTA
10
30971.0
20
10909.5
30
0.0
11
31041.0
21
10979.5
31
0.0
0
LINE
5
305
330
224
100
AcDbEntity
8
DW-COTA
10
32171.0
20
10909.5
30
0.0
11
32241.0
21
10979.5
31
0.0
0
TEXT
5
306
330
224
100
AcDbEntity
100
AcDbText
8
DW-COTA
10
31606.0
20
10979.5
30
0.0
40
100.0
1
1.20
50
0.0
72
4
73
2
11
31606.0
21
10979.5
31
0.0
100
AcDbText
0
LINE
5
307
330
224
100
AcDbEntity
8
DW-COTA
10
32206.0
20
10304.5
30
0.0
11
32206.0
21
10979.5
31
0.0
0
LINE
5
308
330
224
100
AcDbEntity
8
DW-COTA
10
32706.0
20
10304.5
30
0.0
11
32706.0
21
10979.5
31
0.0
0
LINE
5
309
330
224
100
AcDbEntity
8
DW-COTA
10
32206.0
20
10944.5
30
0.0
11
32706.0
21
10944.5
31
0.0
0
LINE
5
30A
330
224
100
AcDbEntity
8
DW-COTA
10
32171.0
20
10909.5
30
0.0
11
32241.0
21
10979.5
31
0.0
0
LINE
5
30B
330
224
100
AcDbEntity
8
DW-COTA
10
32671.0
20
10909.5
30
0.0
11
32741.0
21
10979.5
31
0.0
0
TEXT
5
30C
330
224
100
AcDbEntity
100
AcDbText
8
DW-COTA
10
32456.0
20
10979.5
30
0.0
40
100.0
1
0.50
50
0.0
72
4
73
2
11
32456.0
21
10979.5
31
0.0
100
AcDbText
0
TEXT
5
30D
330
224
100
AcDbEntity
100
AcDbText
8
DW-TEXTO
10
26206.0
20
10894.5
30
0.0
40
120.0
1
OMEGAS @ 0.41 / PRIMARIOS @ 1.20
50
0.0
72
0
73
0
100
AcDbText
0
TEXT
5
30E
330
224
100
AcDbEntity
100
AcDbText
8
DW-TEXTO
10
26206.0
20
11944.5
30
0.0
40
210.0
1
SALÓN PRINCIPAL - TECHO CONTINUO ST
50
0.0
72
0
73
0
100
AcDbText
0
TEXT
5
30F
330
224
100
AcDbEntity
100
AcDbText
8
DW-TEXTO
10
26206.0
20
11594.5
30
0.0
40
130.0
1
Techo ST (Estándar) - PLANTA DE CIELO RASO (1 pano)
50
0.0
72
0
73
0
100
AcDbText
0
TEXT
5
310
330
224
100
AcDbEntity
100
AcDbText
8
DW-TEXTO
10
26206.0
20
11244.5
30
0.0
40
110.0
1
NOTA: Cielo raso suspendido a 2.70m con perfilería primario y omega.
50
0.0
72
0
73
0
100
AcDbText
0
LWPOLYLINE
5
311
330
224
100
AcDbEntity
100
AcDbPolyline
8
ARQ-MURO
90
4
70
1
43
0.0
10
35362.0
20
7444.5
10
40562.0
20
7444.5
10
40562.0
20
10244.5
10
35362.0
20
10244.5
0
LINE
5
312
330
224
100
AcDbEntity
8
DW-CANAL
10
35362.0
20
7474.5
30
0.0
11
40562.0
21
7474.5
31
0.0
0
LINE
5
313
330
224
100
AcDbEntity
8
DW-CANAL
10
35362.0
20
10214.5
30
0.0
11
40562.0
21
10214.5
31
0.0
0
LWPOLYLINE
5
314
330
224
100
AcDbEntity
100
AcDbPolyline
8
DW-PERFIL
90
4
70
1
43
0.0
10
35362.0
20
7474.5
10
35410.0
20
7474.5
10
35410.0
20
10214.5
10
35362.0
20
10214.5
0
LWPOLYLINE
5
315
330
224
100
AcDbEntity
100
AcDbPolyline
8
DW-PERFIL
90
4
70
1
43
0.0
10
36583.0
20
7474.5
10
36631.0
20
7474.5
10
36631.0
20
10214.5
10
36583.0
20
10214.5
0
LWPOLYLINE
5
316
330
224
100
AcDbEntity
100
AcDbPolyline
8
DW-PERFIL
90
4
70
1
43
0.0
10
36990.0
20
7474.5
10
37038.0
20
7474.5
10
37038.0
20
10214.5
10
36990.0
20
10214.5
0
LWPOLYLINE
5
317
330
224
100
AcDbEntity
100
AcDbPolyline
8
DW-PERFIL
90
4
70
1
43
0.0
10
37397.0
20
7474.5
10
37445.0
20
7474.5
10
37445.0
20
10214.5
10
37397.0
20
10214.5
0
LWPOLYLINE
5
318
330
224
100
AcDbEntity
100
AcDbPolyline
8
DW-PERFIL
90
4
70
1
43
0.0
10
37804.0
20
7474.5
10
37852.0
20
7474.5
10
37852.0
20
10214.5
10
37804.0
20
10214.5
0
LWPOLYLINE
5
319
330
224
100
AcDbEntity
100
AcDbPolyline
8
DW-PERFIL
90
4
70
1
43
0.0
10
38211.0
20
7474.5
10
38259.0
20
7474.5
10
38259.0
20
10214.5
10
38211.0
20
10214.5
0
LWPOLYLINE
5
31A
330
224
100
AcDbEntity
100
AcDbPolyline
8
DW-PERFIL
90
4
70
1
43
0.0
10
38618.0
20
7474.5
10
38666.0
20
7474.5
10
38666.0
20
10214.5
10
38618.0
20
10214.5
0
LWPOLYLINE
5
31B
330
224
100
AcDbEntity
100
AcDbPolyline
8
DW-PERFIL
90
4
70
1
43
0.0
10
39025.0
20
7474.5
10
39073.0
20
7474.5
10
39073.0
20
10214.5
10
39025.0
20
10214.5
0
LWPOLYLINE
5
31C
330
224
100
AcDbEntity
100
AcDbPolyline
8
DW-PERFIL
90
4
70
1
43
0.0
10
39432.0
20
7474.5
10
39480.0
20
7474.5
10
39480.0
20
10214.5
10
39432.0
20
10214.5
0
LWPOLYLINE
5
31D
330
224
100
AcDbEntity
100
AcDbPolyline
8
DW-PERFIL
90
4
70
1
43
0.0
10
39839.0
20
7474.5
10
39887.0
20
7474.5
10
39887.0
20
10214.5
10
39839.0
20
10214.5
0
LWPOLYLINE
5
31E
330
224
100
AcDbEntity
100
AcDbPolyline
8
DW-PERFIL
90
4
70
1
43
0.0
10
40246.0
20
7474.5
10
40294.0
20
7474.5
10
40294.0
20
10214.5
10
40246.0
20
10214.5
0
LWPOLYLINE
5
31F
330
224
100
AcDbEntity
100
AcDbPolyline
8
DW-PERFIL
90
4
70
1
43
0.0
10
40514.0
20
7474.5
10
40562.0
20
7474.5
10
40562.0
20
10214.5
10
40514.0
20
10214.5
0
LWPOLYLINE
5
320
330
224
100
AcDbEntity
100
AcDbPolyline
8
DW-PERFIL
90
4
70
1
43
0.0
10
35614.0
20
7474.5
10
35662.0
20
7474.5
10
35662.0
20
10214.5
10
35614.0
20
10214.5
0
LWPOLYLINE
5
321
330
224
100
AcDbEntity
100
AcDbPolyline
8
DW-PERFIL
90
4
70
1
43
0.0
10
36482.0
20
7474.5
10
36530.0
20
7474.5
10
36530.0
20
10214.5
10
36482.0
20
10214.5
0
LWPOLYLINE
5
322
330
224
100
AcDbEntity
100
AcDbPolyline
8
DW-PERFIL
90
4
70
1
43
0.0
10
35614.0
20
9514.5
10
36530.0
20
9514.5
10
36530.0
20
9604.5
10
35614.0
20
9604.5
0
LWPOLYLINE
5
323
330
224
100
AcDbEntity
100
AcDbPolyline
8
DW-ABERTURA
90
4
70
1
43
0.0
10
35662.0
20
7464.5
10
36482.0
20
7464.5
10
36482.0
20
9514.5
10
35662.0
20
9514.5
0
TEXT
5
324
330
224
100
AcDbEntity
100
AcDbText
8
DW-TEXTO
10
35662.0
20
9654.5
30
0.0
40
110.0
1
Puerta Paso 0.82 x 2.05
50
0.0
72
0
73
0
100
AcDbText
0
LWPOLYLINE
5
325
330
224
100
AcDbEntity
100
AcDbPolyline
8
DW-AISLANTE
90
24
70
0
43
0.0
10
36615.56
20
7474.5
10
36753.94
20
7593.630435
10
36615.56
20
7712.76087
10
36753.94
20
7831.891304
10
36615.56
20
7951.021739
10
36753.94
20
8070.152174
10
36615.56
20
8189.282609
10
36753.94
20
8308.413043
10
36615.56
20
8427.543478
10
36753.94
20
8546.673913
10
36615.56
20
8665.804348
10
36753.94
20
8784.934783
10
36615.56
20
8904.065217
10
36753.94
20
9023.195652
10
36615.56
20
9142.326087
10
36753.94
20
9261.456522
10
36615.56
20
9380.586957
10
36753.94
20
9499.717391
10
36615.56
20
9618.847826
10
36753.94
20
9737.978261
10
36615.56
20
9857.108696
10
36753.94
20
9976.23913
10
36615.56
20
10095.369565
10
36753.94
20
10214.5
0
LWPOLYLINE
5
326
330
224
100
AcDbEntity
100
AcDbPolyline
8
DW-AISLANTE
90
24
70
0
43
0.0
10
37022.56
20
7474.5
10
37160.94
20
7593.630435
10
37022.56
20
7712.76087
10
37160.94
20
7831.891304
10
37022.56
20
7951.021739
10
37160.94
20
8070.152174
10
37022.56
20
8189.282609
10
37160.94
20
8308.413043
10
37022.56
20
8427.543478
10
37160.94
20
8546.673913
10
37022.56
20
8665.804348
10
37160.94
20
8784.934783
10
37022.56
20
8904.065217
10
37160.94
20
9023.195652
10
37022.56
20
9142.326087
10
37160.94
20
9261.456522
10
37022.56
20
9380.586957
10
37160.94
20
9499.717391
10
37022.56
20
9618.847826
10
37160.94
20
9737.978261
10
37022.56
20
9857.108696
10
37160.94
20
9976.23913
10
37022.56
20
10095.369565
10
37160.94
20
10214.5
0
LWPOLYLINE
5
327
330
224
100
AcDbEntity
100
AcDbPolyline
8
DW-AISLANTE
90
24
70
0
43
0.0
10
37429.56
20
7474.5
10
37567.94
20
7593.630435
10
37429.56
20
7712.76087
10
37567.94
20
7831.891304
10
37429.56
20
7951.021739
10
37567.94
20
8070.152174
10
37429.56
20
8189.282609
10
37567.94
20
8308.413043
10
37429.56
20
8427.543478
10
37567.94
20
8546.673913
10
37429.56
20
8665.804348
10
37567.94
20
8784.934783
10
37429.56
20
8904.065217
10
37567.94
20
9023.195652
10
37429.56
20
9142.326087
10
37567.94
20
9261.456522
10
37429.56
20
9380.586957
10
37567.94
20
9499.717391
10
37429.56
20
9618.847826
10
37567.94
20
9737.978261
10
37429.56
20
9857.108696
10
37567.94
20
9976.23913
10
37429.56
20
10095.369565
10
37567.94
20
10214.5
0
LWPOLYLINE
5
328
330
224
100
AcDbEntity
100
AcDbPolyline
8
DW-AISLANTE
90
24
70
0
43
0.0
10
37836.56
20
7474.5
10
37974.94
20
7593.630435
10
37836.56
20
7712.76087
10
37974.94
20
7831.891304
10
37836.56
20
7951.021739
10
37974.94
20
8070.152174
10
37836.56
20
8189.282609
10
37974.94
20
8308.413043
10
37836.56
20
8427.543478
10
37974.94
20
8546.673913
10
37836.56
20
8665.804348
10
37974.94
20
8784.934783
10
37836.56
20
8904.065217
10
37974.94
20
9023.195652
10
37836.56
20
9142.326087
10
37974.94
20
9261.456522
10
37836.56
20
9380.586957
10
37974.94
20
9499.717391
10
37836.56
20
9618.847826
10
37974.94
20
9737.978261
10
37836.56
20
9857.108696
10
37974.94
20
9976.23913
10
37836.56
20
10095.369565
10
37974.94
20
10214.5
0
LWPOLYLINE
5
329
330
224
100
AcDbEntity
100
AcDbPolyline
8
DW-AISLANTE
90
24
70
0
43
0.0
10
38243.56
20
7474.5
10
38381.94
20
7593.630435
10
38243.56
20
7712.76087
10
38381.94
20
7831.891304
10
38243.56
20
7951.021739
10
38381.94
20
8070.152174
10
38243.56
20
8189.282609
10
38381.94
20
8308.413043
10
38243.56
20
8427.543478
10
38381.94
20
8546.673913
10
38243.56
20
8665.804348
10
38381.94
20
8784.934783
10
38243.56
20
8904.065217
10
38381.94
20
9023.195652
10
38243.56
20
9142.326087
10
38381.94
20
9261.456522
10
38243.56
20
9380.586957
10
38381.94
20
9499.717391
10
38243.56
20
9618.847826
10
38381.94
20
9737.978261
10
38243.56
20
9857.108696
10
38381.94
20
9976.23913
10
38243.56
20
10095.369565
10
38381.94
20
10214.5
0
LWPOLYLINE
5
32A
330
224
100
AcDbEntity
100
AcDbPolyline
8
DW-AISLANTE
90
24
70
0
43
0.0
10
38650.56
20
7474.5
10
38788.94
20
7593.630435
10
38650.56
20
7712.76087
10
38788.94
20
7831.891304
10
38650.56
20
7951.021739
10
38788.94
20
8070.152174
10
38650.56
20
8189.282609
10
38788.94
20
8308.413043
10
38650.56
20
8427.543478
10
38788.94
20
8546.673913
10
38650.56
20
8665.804348
10
38788.94
20
8784.934783
10
38650.56
20
8904.065217
10
38788.94
20
9023.195652
10
38650.56
20
9142.326087
10
38788.94
20
9261.456522
10
38650.56
20
9380.586957
10
38788.94
20
9499.717391
10
38650.56
20
9618.847826
10
38788.94
20
9737.978261
10
38650.56
20
9857.108696
10
38788.94
20
9976.23913
10
38650.56
20
10095.369565
10
38788.94
20
10214.5
0
LWPOLYLINE
5
32B
330
224
100
AcDbEntity
100
AcDbPolyline
8
DW-AISLANTE
90
24
70
0
43
0.0
10
39057.56
20
7474.5
10
39195.94
20
7593.630435
10
39057.56
20
7712.76087
10
39195.94
20
7831.891304
10
39057.56
20
7951.021739
10
39195.94
20
8070.152174
10
39057.56
20
8189.282609
10
39195.94
20
8308.413043
10
39057.56
20
8427.543478
10
39195.94
20
8546.673913
10
39057.56
20
8665.804348
10
39195.94
20
8784.934783
10
39057.56
20
8904.065217
10
39195.94
20
9023.195652
10
39057.56
20
9142.326087
10
39195.94
20
9261.456522
10
39057.56
20
9380.586957
10
39195.94
20
9499.717391
10
39057.56
20
9618.847826
10
39195.94
20
9737.978261
10
39057.56
20
9857.108696
10
39195.94
20
9976.23913
10
39057.56
20
10095.369565
10
39195.94
20
10214.5
0
LWPOLYLINE
5
32C
330
224
100
AcDbEntity
100
AcDbPolyline
8
DW-AISLANTE
90
24
70
0
43
0.0
10
39464.56
20
7474.5
10
39602.94
20
7593.630435
10
39464.56
20
7712.76087
10
39602.94
20
7831.891304
10
39464.56
20
7951.021739
10
39602.94
20
8070.152174
10
39464.56
20
8189.282609
10
39602.94
20
8308.413043
10
39464.56
20
8427.543478
10
39602.94
20
8546.673913
10
39464.56
20
8665.804348
10
39602.94
20
8784.934783
10
39464.56
20
8904.065217
10
39602.94
20
9023.195652
10
39464.56
20
9142.326087
10
39602.94
20
9261.456522
10
39464.56
20
9380.586957
10
39602.94
20
9499.717391
10
39464.56
20
9618.847826
10
39602.94
20
9737.978261
10
39464.56
20
9857.108696
10
39602.94
20
9976.23913
10
39464.56
20
10095.369565
10
39602.94
20
10214.5
0
LWPOLYLINE
5
32D
330
224
100
AcDbEntity
100
AcDbPolyline
8
DW-AISLANTE
90
24
70
0
43
0.0
10
39871.56
20
7474.5
10
40009.94
20
7593.630435
10
39871.56
20
7712.76087
10
40009.94
20
7831.891304
10
39871.56
20
7951.021739
10
40009.94
20
8070.152174
10
39871.56
20
8189.282609
10
40009.94
20
8308.413043
10
39871.56
20
8427.543478
10
40009.94
20
8546.673913
10
39871.56
20
8665.804348
10
40009.94
20
8784.934783
10
39871.56
20
8904.065217
10
40009.94
20
9023.195652
10
39871.56
20
9142.326087
10
40009.94
20
9261.456522
10
39871.56
20
9380.586957
10
40009.94
20
9499.717391
10
39871.56
20
9618.847826
10
40009.94
20
9737.978261
10
39871.56
20
9857.108696
10
40009.94
20
9976.23913
10
39871.56
20
10095.369565
10
40009.94
20
10214.5
0
LWPOLYLINE
5
32E
330
224
100
AcDbEntity
100
AcDbPolyline
8
DW-AISLANTE
90
24
70
0
43
0.0
10
40267.44
20
7474.5
10
40358.56
20
7593.630435
10
40267.44
20
7712.76087
10
40358.56
20
7831.891304
10
40267.44
20
7951.021739
10
40358.56
20
8070.152174
10
40267.44
20
8189.282609
10
40358.56
20
8308.413043
10
40267.44
20
8427.543478
10
40358.56
20
8546.673913
10
40267.44
20
8665.804348
10
40358.56
20
8784.934783
10
40267.44
20
8904.065217
10
40358.56
20
9023.195652
10
40267.44
20
9142.326087
10
40358.56
20
9261.456522
10
40267.44
20
9380.586957
10
40358.56
20
9499.717391
10
40267.44
20
9618.847826
10
40358.56
20
9737.978261
10
40267.44
20
9857.108696
10
40358.56
20
9976.23913
10
40267.44
20
10095.369565
10
40358.56
20
10214.5
0
LWPOLYLINE
5
32F
330
224
100
AcDbEntity
100
AcDbPolyline
8
DW-PLACA
90
4
70
1
43
0.0
10
35362.0
20
7444.5
10
36562.0
20
7444.5
10
36562.0
20
9844.5
10
35362.0
20
9844.5
0
LWPOLYLINE
5
330
330
224
100
AcDbEntity
100
AcDbPolyline
8
DW-PLACA
90
4
70
1
43
0.0
10
36562.0
20
7444.5
10
37762.0
20
7444.5
10
37762.0
20
9844.5
10
36562.0
20
9844.5
0
LWPOLYLINE
5
331
330
224
100
AcDbEntity
100
AcDbPolyline
8
DW-PLACA
90
4
70
1
43
0.0
10
37762.0
20
7444.5
10
38962.0
20
7444.5
10
38962.0
20
9844.5
10
37762.0
20
9844.5
0
LWPOLYLINE
5
332
330
224
100
AcDbEntity
100
AcDbPolyline
8
DW-PLACA
90
4
70
1
43
0.0
10
38962.0
20
7444.5
10
40162.0
20
7444.5
10
40162.0
20
9844.5
10
38962.0
20
9844.5
0
LWPOLYLINE
5
333
330
224
100
AcDbEntity
100
AcDbPolyline
8
DW-PLACA
90
4
70
1
43
0.0
10
40162.0
20
7444.5
10
40562.0
20
7444.5
10
40562.0
20
9844.5
10
40162.0
20
9844.5
0
LWPOLYLINE
5
334
330
224
100
AcDbEntity
100
AcDbPolyline
8
DW-PLACA
90
4
70
1
43
0.0
10
35362.0
20
9844.5
10
35962.0
20
9844.5
10
35962.0
20
10244.5
10
35362.0
20
10244.5
0
LWPOLYLINE
5
335
330
224
100
AcDbEntity
100
AcDbPolyline
8
DW-PLACA
90
4
70
1
43
0.0
10
35962.0
20
9844.5
10
37162.0
20
9844.5
10
37162.0
20
10244.5
10
35962.0
20
10244.5
0
LWPOLYLINE
5
336
330
224
100
AcDbEntity
100
AcDbPolyline
8
DW-PLACA
90
4
70
1
43
0.0
10
37162.0
20
9844.5
10
38362.0
20
9844.5
10
38362.0
20
10244.5
10
37162.0
20
10244.5
0
LWPOLYLINE
5
337
330
224
100
AcDbEntity
100
AcDbPolyline
8
DW-PLACA
90
4
70
1
43
0.0
10
38362.0
20
9844.5
10
39562.0
20
9844.5
10
39562.0
20
10244.5
10
38362.0
20
10244.5
0
LWPOLYLINE
5
338
330
224
100
AcDbEntity
100
AcDbPolyline
8
DW-PLACA
90
4
70
1
43
0.0
10
39562.0
20
9844.5
10
40562.0
20
9844.5
10
40562.0
20
10244.5
10
39562.0
20
10244.5
0
LINE
5
339
330
224
100
AcDbEntity
8
DW-EJE
10
34762.0
20
10844.5
30
0.0
11
41162.0
21
10844.5
31
0.0
0
CIRCLE
5
33A
330
224
100
AcDbEntity
100
AcDbCircle
8
DW-EJE
10
35362.0
20
10844.5
30
0.0
40
175.0
0
CIRCLE
5
33B
330
224
100
AcDbEntity
100
AcDbCircle
8
DW-EJE
10
40562.0
20
10844.5
30
0.0
40
175.0
0
LINE
5
33C
330
224
100
AcDbEntity
8
DW-COTA
10
35362.0
20
7364.5
30
0.0
11
35362.0
21
6695.5
31
0.0
0
LINE
5
33D
330
224
100
AcDbEntity
8
DW-COTA
10
40562.0
20
7364.5
30
0.0
11
40562.0
21
6695.5
31
0.0
0
LINE
5
33E
330
224
100
AcDbEntity
8
DW-COTA
10
35362.0
20
6744.5
30
0.0
11
40562.0
21
6744.5
31
0.0
0
LINE
5
33F
330
224
100
AcDbEntity
8
DW-COTA
10
35313.0
20
6695.5
30
0.0
11
35411.0
21
6793.5
31
0.0
0
LINE
5
340
330
224
100
AcDbEntity
8
DW-COTA
10
40513.0
20
6695.5
30
0.0
11
40611.0
21
6793.5
31
0.0
0
TEXT
5
341
330
224
100
AcDbEntity
100
AcDbText
8
DW-COTA
10
37962.0
20
6793.5
30
0.0
40
140.0
1
5.20
50
0.0
72
4
73
2
11
37962.0
21
6793.5
31
0.0
100
AcDbText
0
LINE
5
342
330
224
100
AcDbEntity
8
DW-COTA
10
35362.0
20
6694.5
30
0.0
11
35362.0
21
6109.5
31
0.0
0
LINE
5
343
330
224
100
AcDbEntity
8
DW-COTA
10
35386.0
20
6694.5
30
0.0
11
35386.0
21
6109.5
31
0.0
0
LINE
5
344
330
224
100
AcDbEntity
8
DW-COTA
10
35362.0
20
6144.5
30
0.0
11
35386.0
21
6144.5
31
0.0
0
LINE
5
345
330
224
100
AcDbEntity
8
DW-COTA
10
35327.0
20
6109.5
30
0.0
11
35397.0
21
6179.5
31
0.0
0
LINE
5
346
330
224
100
AcDbEntity
8
DW-COTA
10
35351.0
20
6109.5
30
0.0
11
35421.0
21
6179.5
31
0.0
0
TEXT
5
347
330
224
100
AcDbEntity
100
AcDbText
8
DW-COTA
10
35374.0
20
6179.5
30
0.0
40
100.0
1
0.02
50
0.0
72
4
73
2
11
35374.0
21
6179.5
31
0.0
100
AcDbText
0
LINE
5
348
330
224
100
AcDbEntity
8
DW-COTA
10
35386.0
20
6694.5
30
0.0
11
35386.0
21
6109.5
31
0.0
0
LINE
5
349
330
224
100
AcDbEntity
8
DW-COTA
10
36607.0
20
6694.5
30
0.0
11
36607.0
21
6109.5
31
0.0
0
LINE
5
34A
330
224
100
AcDbEntity
8
DW-COTA
10
35386.0
20
6144.5
30
0.0
11
36607.0
21
6144.5
31
0.0
0
LINE
5
34B
330
224
100
AcDbEntity
8
DW-COTA
10
35351.0
20
6109.5
30
0.0
11
35421.0
21
6179.5
31
0.0
0
LINE
5
34C
330
224
100
AcDbEntity
8
DW-COTA
10
36572.0
20
6109.5
30
0.0
11
36642.0
21
6179.5
31
0.0
0
TEXT
5
34D
330
224
100
AcDbEntity
100
AcDbText
8
DW-COTA
10
35996.5
20
6179.5
30
0.0
40
100.0
1
1.22
50
0.0
72
4
73
2
11
35996.5
21
6179.5
31
0.0
100
AcDbText
0
LINE
5
34E
330
224
100
AcDbEntity
8
DW-COTA
10
36607.0
20
6694.5
30
0.0
11
36607.0
21
6109.5
31
0.0
0
LINE
5
34F
330
224
100
AcDbEntity
8
DW-COTA
10
37014.0
20
6694.5
30
0.0
11
37014.0
21
6109.5
31
0.0
0
LINE
5
350
330
224
100
AcDbEntity
8
DW-COTA
10
36607.0
20
6144.5
30
0.0
11
37014.0
21
6144.5
31
0.0
0
LINE
5
351
330
224
100
AcDbEntity
8
DW-COTA
10
36572.0
20
6109.5
30
0.0
11
36642.0
21
6179.5
31
0.0
0
LINE
5
352
330
224
100
AcDbEntity
8
DW-COTA
10
36979.0
20
6109.5
30
0.0
11
37049.0
21
6179.5
31
0.0
0
TEXT
5
353
330
224
100
AcDbEntity
100
AcDbText
8
DW-COTA
10
36810.5
20
6179.5
30
0.0
40
100.0
1
0.41
50
0.0
72
4
73
2
11
36810.5
21
6179.5
31
0.0
100
AcDbText
0
LINE
5
354
330
224
100
AcDbEntity
8
DW-COTA
10
37014.0
20
6694.5
30
0.0
11
37014.0
21
6109.5
31
0.0
0
LINE
5
355
330
224
100
AcDbEntity
8
DW-COTA
10
37421.0
20
6694.5
30
0.0
11
37421.0
21
6109.5
31
0.0
0
LINE
5
356
330
224
100
AcDbEntity
8
DW-COTA
10
37014.0
20
6144.5
30
0.0
11
37421.0
21
6144.5
31
0.0
0
LINE
5
357
330
224
100
AcDbEntity
8
DW-COTA
10
36979.0
20
6109.5
30
0.0
11
37049.0
21
6179.5
31
0.0
0
LINE
5
358
330
224
100
AcDbEntity
8
DW-COTA
10
37386.0
20
6109.5
30
0.0
11
37456.0
21
6179.5
31
0.0
0
TEXT
5
359
330
224
100
AcDbEntity
100
AcDbText
8
DW-COTA
10
37217.5
20
6179.5
30
0.0
40
100.0
1
0.41
50
0.0
72
4
73
2
11
37217.5
21
6179.5
31
0.0
100
AcDbText
0
LINE
5
35A
330
224
100
AcDbEntity
8
DW-COTA
10
37421.0
20
6694.5
30
0.0
11
37421.0
21
6109.5
31
0.0
0
LINE
5
35B
330
224
100
AcDbEntity
8
DW-COTA
10
37828.0
20
6694.5
30
0.0
11
37828.0
21
6109.5
31
0.0
0
LINE
5
35C
330
224
100
AcDbEntity
8
DW-COTA
10
37421.0
20
6144.5
30
0.0
11
37828.0
21
6144.5
31
0.0
0
LINE
5
35D
330
224
100
AcDbEntity
8
DW-COTA
10
37386.0
20
6109.5
30
0.0
11
37456.0
21
6179.5
31
0.0
0
LINE
5
35E
330
224
100
AcDbEntity
8
DW-COTA
10
37793.0
20
6109.5
30
0.0
11
37863.0
21
6179.5
31
0.0
0
TEXT
5
35F
330
224
100
AcDbEntity
100
AcDbText
8
DW-COTA
10
37624.5
20
6179.5
30
0.0
40
100.0
1
0.41
50
0.0
72
4
73
2
11
37624.5
21
6179.5
31
0.0
100
AcDbText
0
LINE
5
360
330
224
100
AcDbEntity
8
DW-COTA
10
37828.0
20
6694.5
30
0.0
11
37828.0
21
6109.5
31
0.0
0
LINE
5
361
330
224
100
AcDbEntity
8
DW-COTA
10
38235.0
20
6694.5
30
0.0
11
38235.0
21
6109.5
31
0.0
0
LINE
5
362
330
224
100
AcDbEntity
8
DW-COTA
10
37828.0
20
6144.5
30
0.0
11
38235.0
21
6144.5
31
0.0
0
LINE
5
363
330
224
100
AcDbEntity
8
DW-COTA
10
37793.0
20
6109.5
30
0.0
11
37863.0
21
6179.5
31
0.0
0
LINE
5
364
330
224
100
AcDbEntity
8
DW-COTA
10
38200.0
20
6109.5
30
0.0
11
38270.0
21
6179.5
31
0.0
0
TEXT
5
365
330
224
100
AcDbEntity
100
AcDbText
8
DW-COTA
10
38031.5
20
6179.5
30
0.0
40
100.0
1
0.41
50
0.0
72
4
73
2
11
38031.5
21
6179.5
31
0.0
100
AcDbText
0
LINE
5
366
330
224
100
AcDbEntity
8
DW-COTA
10
38235.0
20
6694.5
30
0.0
11
38235.0
21
6109.5
31
0.0
0
LINE
5
367
330
224
100
AcDbEntity
8
DW-COTA
10
38642.0
20
6694.5
30
0.0
11
38642.0
21
6109.5
31
0.0
0
LINE
5
368
330
224
100
AcDbEntity
8
DW-COTA
10
38235.0
20
6144.5
30
0.0
11
38642.0
21
6144.5
31
0.0
0
LINE
5
369
330
224
100
AcDbEntity
8
DW-COTA
10
38200.0
20
6109.5
30
0.0
11
38270.0
21
6179.5
31
0.0
0
LINE
5
36A
330
224
100
AcDbEntity
8
DW-COTA
10
38607.0
20
6109.5
30
0.0
11
38677.0
21
6179.5
31
0.0
0
TEXT
5
36B
330
224
100
AcDbEntity
100
AcDbText
8
DW-COTA
10
38438.5
20
6179.5
30
0.0
40
100.0
1
0.41
50
0.0
72
4
73
2
11
38438.5
21
6179.5
31
0.0
100
AcDbText
0
LINE
5
36C
330
224
100
AcDbEntity
8
DW-COTA
10
38642.0
20
6694.5
30
0.0
11
38642.0
21
6109.5
31
0.0
0
LINE
5
36D
330
224
100
AcDbEntity
8
DW-COTA
10
39049.0
20
6694.5
30
0.0
11
39049.0
21
6109.5
31
0.0
0
LINE
5
36E
330
224
100
AcDbEntity
8
DW-COTA
10
38642.0
20
6144.5
30
0.0
11
39049.0
21
6144.5
31
0.0
0
LINE
5
36F
330
224
100
AcDbEntity
8
DW-COTA
10
38607.0
20
6109.5
30
0.0
11
38677.0
21
6179.5
31
0.0
0
LINE
5
370
330
224
100
AcDbEntity
8
DW-COTA
10
39014.0
20
6109.5
30
0.0
11
39084.0
21
6179.5
31
0.0
0
TEXT
5
371
330
224
100
AcDbEntity
100
AcDbText
8
DW-COTA
10
38845.5
20
6179.5
30
0.0
40
100.0
1
0.41
50
0.0
72
4
73
2
11
38845.5
21
6179.5
31
0.0
100
AcDbText
0
LINE
5
372
330
224
100
AcDbEntity
8
DW-COTA
10
39049.0
20
6694.5
30
0.0
11
39049.0
21
6109.5
31
0.0
0
LINE
5
373
330
224
100
AcDbEntity
8
DW-COTA
10
39456.0
20
6694.5
30
0.0
11
39456.0
21
6109.5
31
0.0
0
LINE
5
374
330
224
100
AcDbEntity
8
DW-COTA
10
39049.0
20
6144.5
30
0.0
11
39456.0
21
6144.5
31
0.0
0
LINE
5
375
330
224
100
AcDbEntity
8
DW-COTA
10
39014.0
20
6109.5
30
0.0
11
39084.0
21
6179.5
31
0.0
0
LINE
5
376
330
224
100
AcDbEntity
8
DW-COTA
10
39421.0
20
6109.5
30
0.0
11
39491.0
21
6179.5
31
0.0
0
TEXT
5
377
330
224
100
AcDbEntity
100
AcDbText
8
DW-COTA
10
39252.5
20
6179.5
30
0.0
40
100.0
1
0.41
50
0.0
72
4
73
2
11
39252.5
21
6179.5
31
0.0
100
AcDbText
0
LINE
5
378
330
224
100
AcDbEntity
8
DW-COTA
10
39456.0
20
6694.5
30
0.0
11
39456.0
21
6109.5
31
0.0
0
LINE
5
379
330
224
100
AcDbEntity
8
DW-COTA
10
39863.0
20
6694.5
30
0.0
11
39863.0
21
6109.5
31
0.0
0
LINE
5
37A
330
224
100
AcDbEntity
8
DW-COTA
10
39456.0
20
6144.5
30
0.0
11
39863.0
21
6144.5
31
0.0
0
LINE
5
37B
330
224
100
AcDbEntity
8
DW-COTA
10
39421.0
20
6109.5
30
0.0
11
39491.0
21
6179.5
31
0.0
0
LINE
5
37C
330
224
100
AcDbEntity
8
DW-COTA
10
39828.0
20
6109.5
30
0.0
11
39898.0
21
6179.5
31
0.0
0
TEXT
5
37D
330
224
100
AcDbEntity
100
AcDbText
8
DW-COTA
10
39659.5
20
6179.5
30
0.0
40
100.0
1
0.41
50
0.0
72
4
73
2
11
39659.5
21
6179.5
31
0.0
100
AcDbText
0
LINE
5
37E
330
224
100
AcDbEntity
8
DW-COTA
10
39863.0
20
6694.5
30
0.0
11
39863.0
21
6109.5
31
0.0
0
LINE
5
37F
330
224
100
AcDbEntity
8
DW-COTA
10
40270.0
20
6694.5
30
0.0
11
40270.0
21
6109.5
31
0.0
0
LINE
5
380
330
224
100
AcDbEntity
8
DW-COTA
10
39863.0
20
6144.5
30
0.0
11
40270.0
21
6144.5
31
0.0
0
LINE
5
381
330
224
100
AcDbEntity
8
DW-COTA
10
39828.0
20
6109.5
30
0.0
11
39898.0
21
6179.5
31
0.0
0
LINE
5
382
330
224
100
AcDbEntity
8
DW-COTA
10
40235.0
20
6109.5
30
0.0
11
40305.0
21
6179.5
31
0.0
0
TEXT
5
383
330
224
100
AcDbEntity
100
AcDbText
8
DW-COTA
10
40066.5
20
6179.5
30
0.0
40
100.0
1
0.41
50
0.0
72
4
73
2
11
40066.5
21
6179.5
31
0.0
100
AcDbText
0
LINE
5
384
330
224
100
AcDbEntity
8
DW-COTA
10
40270.0
20
6694.5
30
0.0
11
40270.0
21
6109.5
31
0.0
0
LINE
5
385
330
224
100
AcDbEntity
8
DW-COTA
10
40538.0
20
6694.5
30
0.0
11
40538.0
21
6109.5
31
0.0
0
LINE
5
386
330
224
100
AcDbEntity
8
DW-COTA
10
40270.0
20
6144.5
30
0.0
11
40538.0
21
6144.5
31
0.0
0
LINE
5
387
330
224
100
AcDbEntity
8
DW-COTA
10
40235.0
20
6109.5
30
0.0
11
40305.0
21
6179.5
31
0.0
0
LINE
5
388
330
224
100
AcDbEntity
8
DW-COTA
10
40503.0
20
6109.5
30
0.0
11
40573.0
21
6179.5
31
0.0
0
TEXT
5
389
330
224
100
AcDbEntity
100
AcDbText
8
DW-COTA
10
40404.0
20
6179.5
30
0.0
40
100.0
1
0.27
50
0.0
72
4
73
2
11
40404.0
21
6179.5
31
0.0
100
AcDbText
0
LINE
5
38A
330
224
100
AcDbEntity
8
DW-COTA
10
40538.0
20
6694.5
30
0.0
11
40538.0
21
6109.5
31
0.0
0
LINE
5
38B
330
224
100
AcDbEntity
8
DW-COTA
10
40562.0
20
6694.5
30
0.0
11
40562.0
21
6109.5
31
0.0
0
LINE
5
38C
330
224
100
AcDbEntity
8
DW-COTA
10
40538.0
20
6144.5
30
0.0
11
40562.0
21
6144.5
31
0.0
0
LINE
5
38D
330
224
100
AcDbEntity
8
DW-COTA
10
40503.0
20
6109.5
30
0.0
11
40573.0
21
6179.5
31
0.0
0
LINE
5
38E
330
224
100
AcDbEntity
8
DW-COTA
10
40527.0
20
6109.5
30
0.0
11
40597.0
21
6179.5
31
0.0
0
TEXT
5
38F
330
224
100
AcDbEntity
100
AcDbText
8
DW-COTA
10
40550.0
20
6179.5
30
0.0
40
100.0
1
0.02
50
0.0
72
4
73
2
11
40550.0
21
6179.5
31
0.0
100
AcDbText
0
LINE
5
390
330
224
100
AcDbEntity
8
DW-COTA
10
35292.0
20
7444.5
30
0.0
11
34313.0
21
7444.5
31
0.0
0
LINE
5
391
330
224
100
AcDbEntity
8
DW-COTA
10
35292.0
20
10244.5
30
0.0
11
34313.0
21
10244.5
31
0.0
0
LINE
5
392
330
224
100
AcDbEntity
8
DW-COTA
10
34362.0
20
7444.5
30
0.0
11
34362.0
21
10244.5
31
0.0
0
LINE
5
393
330
224
100
AcDbEntity
8
DW-COTA
10
34313.0
20
7395.5
30
0.0
11
34411.0
21
7493.5
31
0.0
0
LINE
5
394
330
224
100
AcDbEntity
8
DW-COTA
10
34313.0
20
10195.5
30
0.0
11
34411.0
21
10293.5
31
0.0
0
TEXT
5
395
330
224
100
AcDbEntity
100
AcDbText
8
DW-COTA
10
34306.0
20
8844.5
30
0.0
40
140.0
1
2.80
50
90.0
72
4
73
2
11
34306.0
21
8844.5
31
0.0
100
AcDbText
0
TEXT
5
396
330
224
100
AcDbEntity
100
AcDbText
8
DW-TEXTO
10
35362.0
20
10394.5
30
0.0
40
120.0
1
MODULACION DE PARANTES @ 0.41 m
50
0.0
72
0
73
0
100
AcDbText
0
TEXT
5
397
330
224
100
AcDbEntity
100
AcDbText
8
DW-TEXTO
10
35362.0
20
11944.5
30
0.0
40
210.0
1
DORMITORIO - TABIQUE DIVISOR ACÚSTICO
50
0.0
72
0
73
0
100
AcDbText
0
TEXT
5
398
330
224
100
AcDbEntity
100
AcDbText
8
DW-TEXTO
10
35362.0
20
11594.5
30
0.0
40
130.0
1
Tabique Divisor (Dos caras) - ALZADO DE TABIQUE (1 pano)
50
0.0
72
0
73
0
100
AcDbText
0
TEXT
5
399
330
224
100
AcDbEntity
100
AcDbText
8
DW-TEXTO
10
35362.0
20
11244.5
30
0.0
40
110.0
1
NOTA: Tabique doble cara con lana de vidrio 50mm acústica.
50
0.0
72
0
73
0
100
AcDbText
0
TEXT
5
39A
330
224
100
AcDbEntity
100
AcDbText
8
DW-TEXTO
10
24825.0
20
1070.0
30
0.0
40
100.0
1
EMPRESA / CONTRATISTA
50
0.0
72
0
73
0
100
AcDbText
0
TEXT
5
39B
330
224
100
AcDbEntity
100
AcDbText
8
DW-TEXTO
10
24825.0
20
710.0
30
0.0
40
130.0
1
Drywall & Steel Master SL
50
0.0
72
0
73
0
100
AcDbText
0
TEXT
5
39C
330
224
100
AcDbEntity
100
AcDbText
8
DW-TEXTO
10
29601.0
20
1070.0
30
0.0
40
100.0
1
PROYECTO
50
0.0
72
0
73
0
100
AcDbText
0
TEXT
5
39D
330
224
100
AcDbEntity
100
AcDbText
8
DW-TEXTO
10
29601.0
20
710.0
30
0.0
40
130.0
1
Residencial Los Álamos - Proyecto Reforma
50
0.0
72
0
73
0
100
AcDbText
0
TEXT
5
39E
330
224
100
AcDbEntity
100
AcDbText
8
DW-TEXTO
10
33979.0
20
1070.0
30
0.0
40
100.0
1
CLIENTE
50
0.0
72
0
73
0
100
AcDbText
0
TEXT
5
39F
330
224
100
AcDbEntity
100
AcDbText
8
DW-TEXTO
10
33979.0
20
710.0
30
0.0
40
130.0
1
Ing. Carlos Mendoza
50
0.0
72
0
73
0
100
AcDbText
0
TEXT
5
3A0
330
224
100
AcDbEntity
100
AcDbText
8
DW-TEXTO
10
37362.0
20
1070.0
30
0.0
40
100.0
1
ESCALA / UNIDADES
50
0.0
72
0
73
0
100
AcDbText
0
TEXT
5
3A1
330
224
100
AcDbEntity
100
AcDbText
8
DW-TEXTO
10
37362.0
20
710.0
30
0.0
40
130.0
1
1:50 (MM)
50
0.0
72
0
73
0
100
AcDbText
0
TEXT
5
3A2
330
224
100
AcDbEntity
100
AcDbText
8
DW-TEXTO
10
39949.0
20
1070.0
30
0.0
40
100.0
1
LAM.
50
0.0
72
0
73
0
100
AcDbText
0
TEXT
5
3A3
330
224
100
AcDbEntity
100
AcDbText
8
DW-TEXTO
10
39949.0
20
710.0
30
0.0
40
170.0
1
2/5
50
0.0
72
0
73
0
100
AcDbText
0
TEXT
5
3A4
330
224
100
AcDbEntity
100
AcDbText
8
DW-TEXTO
10
42337.0
20
1070.0
30
0.0
40
100.0
1
FECHA / REV.
50
0.0
72
0
73
0
100
AcDbText
0
TEXT
5
3A5
330
224
100
AcDbEntity
100
AcDbText
8
DW-TEXTO
10
42337.0
20
710.0
30
0.0
40
130.0
1
2026-10-03 / A
50
0.0
72
0
73
0
100
AcDbText
0
TEXT
5
3A6
330
224
100
AcDbEntity
100
AcDbText
8
DW-TEXTO
10
24800.0
20
2750.0
30
0.0
40
160.0
1
PLANTA GENERAL DE SISTEMAS DRYWALL
50
0.0
72
0
73
0
100
AcDbText
0
TEXT
5
3A7
330
224
100
AcDbEntity
100
AcDbText
8
DW-TEXTO
10
44500.0
20
2750.0
30
0.0
40
130.0
1
SUP. NETA: 50.24 m2
50
0.0
72
2
73
0
11
44500.0
21
2750.0
31
0.0
100
AcDbText
0
LWPOLYLINE
5
3A8
330
224
100
AcDbEntity
100
AcDbPolyline
8
PLANO-MARCO
90
4
70
1
43
0.0
10
24550.0
20
400.0
10
44750.0
20
400.0
10
44750.0
20
14450.0
10
24550.0
20
14450.0
0
LWPOLYLINE
5
3A9
330
224
100
AcDbEntity
100
AcDbPolyline
8
PLANO-MARCO
90
4
70
1
43
0.0
10
24700.0
20
550.0
10
44600.0
20
550.0
10
44600.0
20
14300.0
10
24700.0
20
14300.0
0
LINE
5
3AA
330
224
100
AcDbEntity
8
PLANO-MARCO
10
24700.0
20
2550.0
30
0.0
11
44600.0
21
2550.0
31
0.0
0
LINE
5
3AB
330
224
100
AcDbEntity
8
PLANO-MARCO
10
29476.0
20
550.0
30
0.0
11
29476.0
21
2550.0
31
0.0
0
LINE
5
3AC
330
224
100
AcDbEntity
8
PLANO-MARCO
10
33854.0
20
550.0
30
0.0
11
33854.0
21
2550.0
31
0.0
0
LINE
5
3AD
330
224
100
AcDbEntity
8
PLANO-MARCO
10
37237.0
20
550.0
30
0.0
11
37237.0
21
2550.0
31
0.0
0
LINE
5
3AE
330
224
100
AcDbEntity
8
PLANO-MARCO
10
39824.0
20
550.0
30
0.0
11
39824.0
21
2550.0
31
0.0
0
LINE
5
3AF
330
224
100
AcDbEntity
8
PLANO-MARCO
10
42212.0
20
550.0
30
0.0
11
42212.0
21
2550.0
31
0.0
0
LINE
5
3B0
330
224
100
AcDbEntity
8
PLANO-MARCO
10
24700.0
20
1390.0
30
0.0
11
44600.0
21
1390.0
31
0.0
0
LWPOLYLINE
5
3B1
330
224
100
AcDbEntity
100
AcDbPolyline
8
ARQ-MURO
90
4
70
1
43
0.0
10
50356.0
20
6744.5
10
53156.0
20
6744.5
10
53156.0
20
8944.5
10
50356.0
20
8944.5
0
LWPOLYLINE
5
3B2
330
224
100
AcDbEntity
100
AcDbPolyline
8
DW-CANAL
90
4
70
1
43
0.0
10
50381.0
20
6769.5
10
53131.0
20
6769.5
10
53131.0
20
8919.5
10
50381.0
20
8919.5
0
LINE
5
3B3
330
224
100
AcDbEntity
8
DW-PRIMARIO
10
50944.0
20
6744.5
30
0.0
11
50944.0
21
8944.5
31
0.0
0
LINE
5
3B4
330
224
100
AcDbEntity
8
DW-PRIMARIO
10
50968.0
20
6744.5
30
0.0
11
50968.0
21
8944.5
31
0.0
0
LINE
5
3B5
330
224
100
AcDbEntity
8
DW-PRIMARIO
10
52144.0
20
6744.5
30
0.0
11
52144.0
21
8944.5
31
0.0
0
LINE
5
3B6
330
224
100
AcDbEntity
8
DW-PRIMARIO
10
52168.0
20
6744.5
30
0.0
11
52168.0
21
8944.5
31
0.0
0
LINE
5
3B7
330
224
100
AcDbEntity
8
DW-OMEGA
10
50356.0
20
7151.5
30
0.0
11
53156.0
21
7151.5
31
0.0
0
LINE
5
3B8
330
224
100
AcDbEntity
8
DW-OMEGA
10
50356.0
20
7558.5
30
0.0
11
53156.0
21
7558.5
31
0.0
0
LINE
5
3B9
330
224
100
AcDbEntity
8
DW-OMEGA
10
50356.0
20
7965.5
30
0.0
11
53156.0
21
7965.5
31
0.0
0
LINE
5
3BA
330
224
100
AcDbEntity
8
DW-OMEGA
10
50356.0
20
8372.5
30
0.0
11
53156.0
21
8372.5
31
0.0
0
LINE
5
3BB
330
224
100
AcDbEntity
8
DW-OMEGA
10
50356.0
20
8779.5
30
0.0
11
53156.0
21
8779.5
31
0.0
0
CIRCLE
5
3BC
330
224
100
AcDbEntity
100
AcDbCircle
8
DW-SIMBOLO
10
50956.0
20
7344.5
30
0.0
40
30.0
0
LINE
5
3BD
330
224
100
AcDbEntity
8
DW-SIMBOLO
10
50908.0
20
7344.5
30
0.0
11
51004.0
21
7344.5
31
0.0
0
LINE
5
3BE
330
224
100
AcDbEntity
8
DW-SIMBOLO
10
50956.0
20
7296.5
30
0.0
11
50956.0
21
7392.5
31
0.0
0
CIRCLE
5
3BF
330
224
100
AcDbEntity
100
AcDbCircle
8
DW-SIMBOLO
10
50956.0
20
8544.5
30
0.0
40
30.0
0
LINE
5
3C0
330
224
100
AcDbEntity
8
DW-SIMBOLO
10
50908.0
20
8544.5
30
0.0
11
51004.0
21
8544.5
31
0.0
0
LINE
5
3C1
330
224
100
AcDbEntity
8
DW-SIMBOLO
10
50956.0
20
8496.5
30
0.0
11
50956.0
21
8592.5
31
0.0
0
CIRCLE
5
3C2
330
224
100
AcDbEntity
100
AcDbCircle
8
DW-SIMBOLO
10
52156.0
20
7344.5
30
0.0
40
30.0
0
LINE
5
3C3
330
224
100
AcDbEntity
8
DW-SIMBOLO
10
52108.0
20
7344.5
30
0.0
11
52204.0
21
7344.5
31
0.0
0
LINE
5
3C4
330
224
100
AcDbEntity
8
DW-SIMBOLO
10
52156.0
20
7296.5
30
0.0
11
52156.0
21
7392.5
31
0.0
0
CIRCLE
5
3C5
330
224
100
AcDbEntity
100
AcDbCircle
8
DW-SIMBOLO
10
52156.0
20
8544.5
30
0.0
40
30.0
0
LINE
5
3C6
330
224
100
AcDbEntity
8
DW-SIMBOLO
10
52108.0
20
8544.5
30
0.0
11
52204.0
21
8544.5
31
0.0
0
LINE
5
3C7
330
224
100
AcDbEntity
8
DW-SIMBOLO
10
52156.0
20
8496.5
30
0.0
11
52156.0
21
8592.5
31
0.0
0
LWPOLYLINE
5
3C8
330
224
100
AcDbEntity
100
AcDbPolyline
8
DW-PLACA
90
4
70
1
43
0.0
10
50356.0
20
6744.5
10
51556.0
20
6744.5
10
51556.0
20
8944.5
10
50356.0
20
8944.5
0
LWPOLYLINE
5
3C9
330
224
100
AcDbEntity
100
AcDbPolyline
8
DW-PLACA
90
4
70
1
43
0.0
10
51556.0
20
6744.5
10
52756.0
20
6744.5
10
52756.0
20
8944.5
10
51556.0
20
8944.5
0
LWPOLYLINE
5
3CA
330
224
100
AcDbEntity
100
AcDbPolyline
8
DW-PLACA
90
4
70
1
43
0.0
10
52756.0
20
6744.5
10
53156.0
20
6744.5
10
53156.0
20
8944.5
10
52756.0
20
8944.5
0
LINE
5
3CB
330
224
100
AcDbEntity
8
DW-EJE
10
49856.0
20
7844.5
30
0.0
11
53656.0
21
7844.5
31
0.0
0
LINE
5
3CC
330
224
100
AcDbEntity
8
DW-EJE
10
51756.0
20
6244.5
30
0.0
11
51756.0
21
9444.5
31
0.0
0
LINE
5
3CD
330
224
100
AcDbEntity
8
DW-COTA
10
50356.0
20
6664.5
30
0.0
11
50356.0
21
5995.5
31
0.0
0
LINE
5
3CE
330
224
100
AcDbEntity
8
DW-COTA
10
53156.0
20
6664.5
30
0.0
11
53156.0
21
5995.5
31
0.0
0
LINE
5
3CF
330
224
100
AcDbEntity
8
DW-COTA
10
50356.0
20
6044.5
30
0.0
11
53156.0
21
6044.5
31
0.0
0
LINE
5
3D0
330
224
100
AcDbEntity
8
DW-COTA
10
50307.0
20
5995.5
30
0.0
11
50405.0
21
6093.5
31
0.0
0
LINE
5
3D1
330
224
100
AcDbEntity
8
DW-COTA
10
53107.0
20
5995.5
30
0.0
11
53205.0
21
6093.5
31
0.0
0
TEXT
5
3D2
330
224
100
AcDbEntity
100
AcDbText
8
DW-COTA
10
51756.0
20
6093.5
30
0.0
40
140.0
1
2.80
50
0.0
72
4
73
2
11
51756.0
21
6093.5
31
0.0
100
AcDbText
0
LINE
5
3D3
330
224
100
AcDbEntity
8
DW-COTA
10
50286.0
20
6744.5
30
0.0
11
49307.0
21
6744.5
31
0.0
0
LINE
5
3D4
330
224
100
AcDbEntity
8
DW-COTA
10
50286.0
20
8944.5
30
0.0
11
49307.0
21
8944.5
31
0.0
0
LINE
5
3D5
330
224
100
AcDbEntity
8
DW-COTA
10
49356.0
20
6744.5
30
0.0
11
49356.0
21
8944.5
31
0.0
0
LINE
5
3D6
330
224
100
AcDbEntity
8
DW-COTA
10
49307.0
20
6695.5
30
0.0
11
49405.0
21
6793.5
31
0.0
0
LINE
5
3D7
330
224
100
AcDbEntity
8
DW-COTA
10
49307.0
20
8895.5
30
0.0
11
49405.0
21
8993.5
31
0.0
0
TEXT
5
3D8
330
224
100
AcDbEntity
100
AcDbText
8
DW-COTA
10
49300.0
20
7844.5
30
0.0
40
140.0
1
2.20
50
90.0
72
4
73
2
11
49300.0
21
7844.5
31
0.0
100
AcDbText
0
LINE
5
3D9
330
224
100
AcDbEntity
8
DW-COTA
10
50356.0
20
9004.5
30
0.0
11
50356.0
21
9679.5
31
0.0
0
LINE
5
3DA
330
224
100
AcDbEntity
8
DW-COTA
10
51556.0
20
9004.5
30
0.0
11
51556.0
21
9679.5
31
0.0
0
LINE
5
3DB
330
224
100
AcDbEntity
8
DW-COTA
10
50356.0
20
9644.5
30
0.0
11
51556.0
21
9644.5
31
0.0
0
LINE
5
3DC
330
224
100
AcDbEntity
8
DW-COTA
10
50321.0
20
9609.5
30
0.0
11
50391.0
21
9679.5
31
0.0
0
LINE
5
3DD
330
224
100
AcDbEntity
8
DW-COTA
10
51521.0
20
9609.5
30
0.0
11
51591.0
21
9679.5
31
0.0
0
TEXT
5
3DE
330
224
100
AcDbEntity
100
AcDbText
8
DW-COTA
10
50956.0
20
9679.5
30
0.0
40
100.0
1
1.20
50
0.0
72
4
73
2
11
50956.0
21
9679.5
31
0.0
100
AcDbText
0
LINE
5
3DF
330
224
100
AcDbEntity
8
DW-COTA
10
51556.0
20
9004.5
30
0.0
11
51556.0
21
9679.5
31
0.0
0
LINE
5
3E0
330
224
100
AcDbEntity
8
DW-COTA
10
52756.0
20
9004.5
30
0.0
11
52756.0
21
9679.5
31
0.0
0
LINE
5
3E1
330
224
100
AcDbEntity
8
DW-COTA
10
51556.0
20
9644.5
30
0.0
11
52756.0
21
9644.5
31
0.0
0
LINE
5
3E2
330
224
100
AcDbEntity
8
DW-COTA
10
51521.0
20
9609.5
30
0.0
11
51591.0
21
9679.5
31
0.0
0
LINE
5
3E3
330
224
100
AcDbEntity
8
DW-COTA
10
52721.0
20
9609.5
30
0.0
11
52791.0
21
9679.5
31
0.0
0
TEXT
5
3E4
330
224
100
AcDbEntity
100
AcDbText
8
DW-COTA
10
52156.0
20
9679.5
30
0.0
40
100.0
1
1.20
50
0.0
72
4
73
2
11
52156.0
21
9679.5
31
0.0
100
AcDbText
0
LINE
5
3E5
330
224
100
AcDbEntity
8
DW-COTA
10
52756.0
20
9004.5
30
0.0
11
52756.0
21
9679.5
31
0.0
0
LINE
5
3E6
330
224
100
AcDbEntity
8
DW-COTA
10
53156.0
20
9004.5
30
0.0
11
53156.0
21
9679.5
31
0.0
0
LINE
5
3E7
330
224
100
AcDbEntity
8
DW-COTA
10
52756.0
20
9644.5
30
0.0
11
53156.0
21
9644.5
31
0.0
0
LINE
5
3E8
330
224
100
AcDbEntity
8
DW-COTA
10
52721.0
20
9609.5
30
0.0
11
52791.0
21
9679.5
31
0.0
0
LINE
5
3E9
330
224
100
AcDbEntity
8
DW-COTA
10
53121.0
20
9609.5
30
0.0
11
53191.0
21
9679.5
31
0.0
0
TEXT
5
3EA
330
224
100
AcDbEntity
100
AcDbText
8
DW-COTA
10
52956.0
20
9679.5
30
0.0
40
100.0
1
0.40
50
0.0
72
4
73
2
11
52956.0
21
9679.5
31
0.0
100
AcDbText
0
TEXT
5
3EB
330
224
100
AcDbEntity
100
AcDbText
8
DW-TEXTO
10
50356.0
20
9594.5
30
0.0
40
120.0
1
OMEGAS @ 0.41 / PRIMARIOS @ 1.20
50
0.0
72
0
73
0
100
AcDbText
0
TEXT
5
3EC
330
224
100
AcDbEntity
100
AcDbText
8
DW-TEXTO
10
50356.0
20
10644.5
30
0.0
40
210.0
1
BAÑO PRINCIPAL - TECHO RH PLACA VERDE
50
0.0
72
0
73
0
100
AcDbText
0
TEXT
5
3ED
330
224
100
AcDbEntity
100
AcDbText
8
DW-TEXTO
10
50356.0
20
10294.5
30
0.0
40
130.0
1
Techo RH (Resistente a Humedad) - PLANTA DE CIELO RASO (1 pano)
50
0.0
72
0
73
0
100
AcDbText
0
TEXT
5
3EE
330
224
100
AcDbEntity
100
AcDbText
8
DW-TEXTO
10
50356.0
20
9944.5
30
0.0
40
110.0
1
NOTA: Placa resistente a la humedad con tornillería zincada.
50
0.0
72
0
73
0
100
AcDbText
0
TEXT
5
3EF
330
224
100
AcDbEntity
100
AcDbText
8
DW-TEXTO
10
48975.0
20
1070.0
30
0.0
40
100.0
1
EMPRESA / CONTRATISTA
50
0.0
72
0
73
0
100
AcDbText
0
TEXT
5
3F0
330
224
100
AcDbEntity
100
AcDbText
8
DW-TEXTO
10
48975.0
20
710.0
30
0.0
40
130.0
1
Drywall & Steel Master SL
50
0.0
72
0
73
0
100
AcDbText
0
TEXT
5
3F1
330
224
100
AcDbEntity
100
AcDbText
8
DW-TEXTO
10
53751.0
20
1070.0
30
0.0
40
100.0
1
PROYECTO
50
0.0
72
0
73
0
100
AcDbText
0
TEXT
5
3F2
330
224
100
AcDbEntity
100
AcDbText
8
DW-TEXTO
10
53751.0
20
710.0
30
0.0
40
130.0
1
Residencial Los Álamos - Proyecto Reforma
50
0.0
72
0
73
0
100
AcDbText
0
TEXT
5
3F3
330
224
100
AcDbEntity
100
AcDbText
8
DW-TEXTO
10
58129.0
20
1070.0
30
0.0
40
100.0
1
CLIENTE
50
0.0
72
0
73
0
100
AcDbText
0
TEXT
5
3F4
330
224
100
AcDbEntity
100
AcDbText
8
DW-TEXTO
10
58129.0
20
710.0
30
0.0
40
130.0
1
Ing. Carlos Mendoza
50
0.0
72
0
73
0
100
AcDbText
0
TEXT
5
3F5
330
224
100
AcDbEntity
100
AcDbText
8
DW-TEXTO
10
61512.0
20
1070.0
30
0.0
40
100.0
1
ESCALA / UNIDADES
50
0.0
72
0
73
0
100
AcDbText
0
TEXT
5
3F6
330
224
100
AcDbEntity
100
AcDbText
8
DW-TEXTO
10
61512.0
20
710.0
30
0.0
40
130.0
1
1:50 (MM)
50
0.0
72
0
73
0
100
AcDbText
0
TEXT
5
3F7
330
224
100
AcDbEntity
100
AcDbText
8
DW-TEXTO
10
64099.0
20
1070.0
30
0.0
40
100.0
1
LAM.
50
0.0
72
0
73
0
100
AcDbText
0
TEXT
5
3F8
330
224
100
AcDbEntity
100
AcDbText
8
DW-TEXTO
10
64099.0
20
710.0
30
0.0
40
170.0
1
3/5
50
0.0
72
0
73
0
100
AcDbText
0
TEXT
5
3F9
330
224
100
AcDbEntity
100
AcDbText
8
DW-TEXTO
10
66487.0
20
1070.0
30
0.0
40
100.0
1
FECHA / REV.
50
0.0
72
0
73
0
100
AcDbText
0
TEXT
5
3FA
330
224
100
AcDbEntity
100
AcDbText
8
DW-TEXTO
10
66487.0
20
710.0
30
0.0
40
130.0
1
2026-10-03 / A
50
0.0
72
0
73
0
100
AcDbText
0
TEXT
5
3FB
330
224
100
AcDbEntity
100
AcDbText
8
DW-TEXTO
10
48950.0
20
2750.0
30
0.0
40
160.0
1
PLANTA GENERAL DE SISTEMAS DRYWALL
50
0.0
72
0
73
0
100
AcDbText
0
TEXT
5
3FC
330
224
100
AcDbEntity
100
AcDbText
8
DW-TEXTO
10
68650.0
20
2750.0
30
0.0
40
130.0
1
SUP. NETA: 50.24 m2
50
0.0
72
2
73
0
11
68650.0
21
2750.0
31
0.0
100
AcDbText
0
LWPOLYLINE
5
3FD
330
224
100
AcDbEntity
100
AcDbPolyline
8
PLANO-MARCO
90
4
70
1
43
0.0
10
48700.0
20
400.0
10
68900.0
20
400.0
10
68900.0
20
14450.0
10
48700.0
20
14450.0
0
LWPOLYLINE
5
3FE
330
224
100
AcDbEntity
100
AcDbPolyline
8
PLANO-MARCO
90
4
70
1
43
0.0
10
48850.0
20
550.0
10
68750.0
20
550.0
10
68750.0
20
14300.0
10
48850.0
20
14300.0
0
LINE
5
3FF
330
224
100
AcDbEntity
8
PLANO-MARCO
10
48850.0
20
2550.0
30
0.0
11
68750.0
21
2550.0
31
0.0
0
LINE
5
400
330
224
100
AcDbEntity
8
PLANO-MARCO
10
53626.0
20
550.0
30
0.0
11
53626.0
21
2550.0
31
0.0
0
LINE
5
401
330
224
100
AcDbEntity
8
PLANO-MARCO
10
58004.0
20
550.0
30
0.0
11
58004.0
21
2550.0
31
0.0
0
LINE
5
402
330
224
100
AcDbEntity
8
PLANO-MARCO
10
61387.0
20
550.0
30
0.0
11
61387.0
21
2550.0
31
0.0
0
LINE
5
403
330
224
100
AcDbEntity
8
PLANO-MARCO
10
63974.0
20
550.0
30
0.0
11
63974.0
21
2550.0
31
0.0
0
LINE
5
404
330
224
100
AcDbEntity
8
PLANO-MARCO
10
66362.0
20
550.0
30
0.0
11
66362.0
21
2550.0
31
0.0
0
LINE
5
405
330
224
100
AcDbEntity
8
PLANO-MARCO
10
48850.0
20
1390.0
30
0.0
11
68750.0
21
1390.0
31
0.0
0
LWPOLYLINE
5
406
330
224
100
AcDbEntity
100
AcDbPolyline
8
PLANO-MARCO
90
4
70
1
43
0.0
10
72850.0
20
400.0
10
93050.0
20
400.0
10
93050.0
20
14450.0
10
72850.0
20
14450.0
0
LWPOLYLINE
5
407
330
224
100
AcDbEntity
100
AcDbPolyline
8
PLANO-MARCO
90
4
70
1
43
0.0
10
73000.0
20
550.0
10
92900.0
20
550.0
10
92900.0
20
14300.0
10
73000.0
20
14300.0
0
LINE
5
408
330
224
100
AcDbEntity
8
PLANO-MARCO
10
73000.0
20
2550.0
30
0.0
11
92900.0
21
2550.0
31
0.0
0
LINE
5
409
330
224
100
AcDbEntity
8
PLANO-MARCO
10
77776.0
20
550.0
30
0.0
11
77776.0
21
2550.0
31
0.0
0
LINE
5
40A
330
224
100
AcDbEntity
8
PLANO-MARCO
10
82154.0
20
550.0
30
0.0
11
82154.0
21
2550.0
31
0.0
0
LINE
5
40B
330
224
100
AcDbEntity
8
PLANO-MARCO
10
85537.0
20
550.0
30
0.0
11
85537.0
21
2550.0
31
0.0
0
LINE
5
40C
330
224
100
AcDbEntity
8
PLANO-MARCO
10
88124.0
20
550.0
30
0.0
11
88124.0
21
2550.0
31
0.0
0
LINE
5
40D
330
224
100
AcDbEntity
8
PLANO-MARCO
10
90512.0
20
550.0
30
0.0
11
90512.0
21
2550.0
31
0.0
0
LINE
5
40E
330
224
100
AcDbEntity
8
PLANO-MARCO
10
73000.0
20
1390.0
30
0.0
11
92900.0
21
1390.0
31
0.0
0
TEXT
5
40F
330
224
100
AcDbEntity
100
AcDbText
8
DW-TEXTO
10
73450.0
20
13750.0
30
0.0
40
230.0
1
COMPUTO DE MATERIALES
50
0.0
72
0
73
0
100
AcDbText
0
TEXT
5
410
330
224
100
AcDbEntity
100
AcDbText
8
DW-TEXTO
10
92450.0
20
13750.0
30
0.0
40
130.0
1
MONEDA: USD
50
0.0
72
2
73
0
11
92450.0
21
13750.0
31
0.0
100
AcDbText
0
LWPOLYLINE
5
411
330
224
100
AcDbEntity
100
AcDbPolyline
8
PLANO-TABLA
90
4
70
1
43
0.0
10
76850.0
20
13250.0
10
81450.0
20
13250.0
10
81450.0
20
13575.0
10
76850.0
20
13575.0
0
TEXT
5
412
330
224
100
AcDbEntity
100
AcDbText
8
DW-TEXTO
10
76925.0
20
13310.0
30
0.0
40
120.0
1
MATERIAL
50
0.0
72
0
73
0
100
AcDbText
0
LWPOLYLINE
5
413
330
224
100
AcDbEntity
100
AcDbPolyline
8
PLANO-TABLA
90
4
70
1
43
0.0
10
81450.0
20
13250.0
10
82650.0
20
13250.0
10
82650.0
20
13575.0
10
81450.0
20
13575.0
0
TEXT
5
414
330
224
100
AcDbEntity
100
AcDbText
8
DW-TEXTO
10
81525.0
20
13310.0
30
0.0
40
120.0
1
UNIDAD
50
0.0
72
0
73
0
100
AcDbText
0
LWPOLYLINE
5
415
330
224
100
AcDbEntity
100
AcDbPolyline
8
PLANO-TABLA
90
4
70
1
43
0.0
10
82650.0
20
13250.0
10
85250.0
20
13250.0
10
85250.0
20
13575.0
10
82650.0
20
13575.0
0
TEXT
5
416
330
224
100
AcDbEntity
100
AcDbText
8
DW-TEXTO
10
82725.0
20
13310.0
30
0.0
40
120.0
1
FORMATO COMERCIAL
50
0.0
72
0
73
0
100
AcDbText
0
LWPOLYLINE
5
417
330
224
100
AcDbEntity
100
AcDbPolyline
8
PLANO-TABLA
90
4
70
1
43
0.0
10
85250.0
20
13250.0
10
86250.0
20
13250.0
10
86250.0
20
13575.0
10
85250.0
20
13575.0
0
TEXT
5
418
330
224
100
AcDbEntity
100
AcDbText
8
DW-TEXTO
10
86175.0
20
13310.0
30
0.0
40
120.0
1
CANT.
50
0.0
72
2
73
0
11
86175.0
21
13310.0
31
0.0
100
AcDbText
0
LWPOLYLINE
5
419
330
224
100
AcDbEntity
100
AcDbPolyline
8
PLANO-TABLA
90
4
70
1
43
0.0
10
86250.0
20
13250.0
10
87550.0
20
13250.0
10
87550.0
20
13575.0
10
86250.0
20
13575.0
0
TEXT
5
41A
330
224
100
AcDbEntity
100
AcDbText
8
DW-TEXTO
10
87475.0
20
13310.0
30
0.0
40
120.0
1
P. UNIT.
50
0.0
72
2
73
0
11
87475.0
21
13310.0
31
0.0
100
AcDbText
0
LWPOLYLINE
5
41B
330
224
100
AcDbEntity
100
AcDbPolyline
8
PLANO-TABLA
90
4
70
1
43
0.0
10
87550.0
20
13250.0
10
89050.0
20
13250.0
10
89050.0
20
13575.0
10
87550.0
20
13575.0
0
TEXT
5
41C
330
224
100
AcDbEntity
100
AcDbText
8
DW-TEXTO
10
88975.0
20
13310.0
30
0.0
40
120.0
1
TOTAL
50
0.0
72
2
73
0
11
88975.0
21
13310.0
31
0.0
100
AcDbText
0
LWPOLYLINE
5
41D
330
224
100
AcDbEntity
100
AcDbPolyline
8
PLANO-TABLA
90
4
70
1
43
0.0
10
76850.0
20
12925.0
10
81450.0
20
12925.0
10
81450.0
20
13250.0
10
76850.0
20
13250.0
0
TEXT
5
41E
330
224
100
AcDbEntity
100
AcDbText
8
DW-TEXTO
10
76925.0
20
12985.0
30
0.0
40
115.0
1
Placa Drywall ST 12.5mm
50
0.0
72
0
73
0
100
AcDbText
0
LWPOLYLINE
5
41F
330
224
100
AcDbEntity
100
AcDbPolyline
8
PLANO-TABLA
90
4
70
1
43
0.0
10
81450.0
20
12925.0
10
82650.0
20
12925.0
10
82650.0
20
13250.0
10
81450.0
20
13250.0
0
TEXT
5
420
330
224
100
AcDbEntity
100
AcDbText
8
DW-TEXTO
10
81525.0
20
12985.0
30
0.0
40
115.0
1
planchas
50
0.0
72
0
73
0
100
AcDbText
0
LWPOLYLINE
5
421
330
224
100
AcDbEntity
100
AcDbPolyline
8
PLANO-TABLA
90
4
70
1
43
0.0
10
82650.0
20
12925.0
10
85250.0
20
12925.0
10
85250.0
20
13250.0
10
82650.0
20
13250.0
0
TEXT
5
422
330
224
100
AcDbEntity
100
AcDbText
8
DW-TEXTO
10
82725.0
20
12985.0
30
0.0
40
115.0
1
Placa 1.20x2.40m (2.88m²)
50
0.0
72
0
73
0
100
AcDbText
0
LWPOLYLINE
5
423
330
224
100
AcDbEntity
100
AcDbPolyline
8
PLANO-TABLA
90
4
70
1
43
0.0
10
85250.0
20
12925.0
10
86250.0
20
12925.0
10
86250.0
20
13250.0
10
85250.0
20
13250.0
0
TEXT
5
424
330
224
100
AcDbEntity
100
AcDbText
8
DW-TEXTO
10
86175.0
20
12985.0
30
0.0
40
115.0
1
12
50
0.0
72
2
73
0
11
86175.0
21
12985.0
31
0.0
100
AcDbText
0
LWPOLYLINE
5
425
330
224
100
AcDbEntity
100
AcDbPolyline
8
PLANO-TABLA
90
4
70
1
43
0.0
10
86250.0
20
12925.0
10
87550.0
20
12925.0
10
87550.0
20
13250.0
10
86250.0
20
13250.0
0
TEXT
5
426
330
224
100
AcDbEntity
100
AcDbText
8
DW-TEXTO
10
87475.0
20
12985.0
30
0.0
40
115.0
1
12.50
50
0.0
72
2
73
0
11
87475.0
21
12985.0
31
0.0
100
AcDbText
0
LWPOLYLINE
5
427
330
224
100
AcDbEntity
100
AcDbPolyline
8
PLANO-TABLA
90
4
70
1
43
0.0
10
87550.0
20
12925.0
10
89050.0
20
12925.0
10
89050.0
20
13250.0
10
87550.0
20
13250.0
0
TEXT
5
428
330
224
100
AcDbEntity
100
AcDbText
8
DW-TEXTO
10
88975.0
20
12985.0
30
0.0
40
115.0
1
150.00
50
0.0
72
2
73
0
11
88975.0
21
12985.0
31
0.0
100
AcDbText
0
LWPOLYLINE
5
429
330
224
100
AcDbEntity
100
AcDbPolyline
8
PLANO-TABLA
90
4
70
1
43
0.0
10
76850.0
20
12600.0
10
81450.0
20
12600.0
10
81450.0
20
12925.0
10
76850.0
20
12925.0
0
TEXT
5
42A
330
224
100
AcDbEntity
100
AcDbText
8
DW-TEXTO
10
76925.0
20
12660.0
30
0.0
40
115.0
1
Perfil Primario Metálico
50
0.0
72
0
73
0
100
AcDbText
0
LWPOLYLINE
5
42B
330
224
100
AcDbEntity
100
AcDbPolyline
8
PLANO-TABLA
90
4
70
1
43
0.0
10
81450.0
20
12600.0
10
82650.0
20
12600.0
10
82650.0
20
12925.0
10
81450.0
20
12925.0
0
TEXT
5
42C
330
224
100
AcDbEntity
100
AcDbText
8
DW-TEXTO
10
81525.0
20
12660.0
30
0.0
40
115.0
1
m lineales
50
0.0
72
0
73
0
100
AcDbText
0
LWPOLYLINE
5
42D
330
224
100
AcDbEntity
100
AcDbPolyline
8
PLANO-TABLA
90
4
70
1
43
0.0
10
82650.0
20
12600.0
10
85250.0
20
12600.0
10
85250.0
20
12925.0
10
82650.0
20
12925.0
0
TEXT
5
42E
330
224
100
AcDbEntity
100
AcDbText
8
DW-TEXTO
10
82725.0
20
12660.0
30
0.0
40
115.0
1
Tira de 3.00 m
50
0.0
72
0
73
0
100
AcDbText
0
LWPOLYLINE
5
42F
330
224
100
AcDbEntity
100
AcDbPolyline
8
PLANO-TABLA
90
4
70
1
43
0.0
10
85250.0
20
12600.0
10
86250.0
20
12600.0
10
86250.0
20
12925.0
10
85250.0
20
12925.0
0
TEXT
5
430
330
224
100
AcDbEntity
100
AcDbText
8
DW-TEXTO
10
86175.0
20
12660.0
30
0.0
40
115.0
1
10
50
0.0
72
2
73
0
11
86175.0
21
12660.0
31
0.0
100
AcDbText
0
LWPOLYLINE
5
431
330
224
100
AcDbEntity
100
AcDbPolyline
8
PLANO-TABLA
90
4
70
1
43
0.0
10
86250.0
20
12600.0
10
87550.0
20
12600.0
10
87550.0
20
12925.0
10
86250.0
20
12925.0
0
TEXT
5
432
330
224
100
AcDbEntity
100
AcDbText
8
DW-TEXTO
10
87475.0
20
12660.0
30
0.0
40
115.0
1
4.05
50
0.0
72
2
73
0
11
87475.0
21
12660.0
31
0.0
100
AcDbText
0
LWPOLYLINE
5
433
330
224
100
AcDbEntity
100
AcDbPolyline
8
PLANO-TABLA
90
4
70
1
43
0.0
10
87550.0
20
12600.0
10
89050.0
20
12600.0
10
89050.0
20
12925.0
10
87550.0
20
12925.0
0
TEXT
5
434
330
224
100
AcDbEntity
100
AcDbText
8
DW-TEXTO
10
88975.0
20
12660.0
30
0.0
40
115.0
1
40.50
50
0.0
72
2
73
0
11
88975.0
21
12660.0
31
0.0
100
AcDbText
0
LWPOLYLINE
5
435
330
224
100
AcDbEntity
100
AcDbPolyline
8
PLANO-TABLA
90
4
70
1
43
0.0
10
76850.0
20
12275.0
10
81450.0
20
12275.0
10
81450.0
20
12600.0
10
76850.0
20
12600.0
0
TEXT
5
436
330
224
100
AcDbEntity
100
AcDbText
8
DW-TEXTO
10
76925.0
20
12335.0
30
0.0
40
115.0
1
Perfil Omega / Furring
50
0.0
72
0
73
0
100
AcDbText
0
LWPOLYLINE
5
437
330
224
100
AcDbEntity
100
AcDbPolyline
8
PLANO-TABLA
90
4
70
1
43
0.0
10
81450.0
20
12275.0
10
82650.0
20
12275.0
10
82650.0
20
12600.0
10
81450.0
20
12600.0
0
TEXT
5
438
330
224
100
AcDbEntity
100
AcDbText
8
DW-TEXTO
10
81525.0
20
12335.0
30
0.0
40
115.0
1
m lineales
50
0.0
72
0
73
0
100
AcDbText
0
LWPOLYLINE
5
439
330
224
100
AcDbEntity
100
AcDbPolyline
8
PLANO-TABLA
90
4
70
1
43
0.0
10
82650.0
20
12275.0
10
85250.0
20
12275.0
10
85250.0
20
12600.0
10
82650.0
20
12600.0
0
TEXT
5
43A
330
224
100
AcDbEntity
100
AcDbText
8
DW-TEXTO
10
82725.0
20
12335.0
30
0.0
40
115.0
1
Tira de 3.00 m
50
0.0
72
0
73
0
100
AcDbText
0
LWPOLYLINE
5
43B
330
224
100
AcDbEntity
100
AcDbPolyline
8
PLANO-TABLA
90
4
70
1
43
0.0
10
85250.0
20
12275.0
10
86250.0
20
12275.0
10
86250.0
20
12600.0
10
85250.0
20
12600.0
0
TEXT
5
43C
330
224
100
AcDbEntity
100
AcDbText
8
DW-TEXTO
10
86175.0
20
12335.0
30
0.0
40
115.0
1
13
50
0.0
72
2
73
0
11
86175.0
21
12335.0
31
0.0
100
AcDbText
0
LWPOLYLINE
5
43D
330
224
100
AcDbEntity
100
AcDbPolyline
8
PLANO-TABLA
90
4
70
1
43
0.0
10
86250.0
20
12275.0
10
87550.0
20
12275.0
10
87550.0
20
12600.0
10
86250.0
20
12600.0
0
TEXT
5
43E
330
224
100
AcDbEntity
100
AcDbText
8
DW-TEXTO
10
87475.0
20
12335.0
30
0.0
40
115.0
1
3.45
50
0.0
72
2
73
0
11
87475.0
21
12335.0
31
0.0
100
AcDbText
0
LWPOLYLINE
5
43F
330
224
100
AcDbEntity
100
AcDbPolyline
8
PLANO-TABLA
90
4
70
1
43
0.0
10
87550.0
20
12275.0
10
89050.0
20
12275.0
10
89050.0
20
12600.0
10
87550.0
20
12600.0
0
TEXT
5
440
330
224
100
AcDbEntity
100
AcDbText
8
DW-TEXTO
10
88975.0
20
12335.0
30
0.0
40
115.0
1
44.85
50
0.0
72
2
73
0
11
88975.0
21
12335.0
31
0.0
100
AcDbText
0
LWPOLYLINE
5
441
330
224
100
AcDbEntity
100
AcDbPolyline
8
PLANO-TABLA
90
4
70
1
43
0.0
10
76850.0
20
11950.0
10
81450.0
20
11950.0
10
81450.0
20
12275.0
10
76850.0
20
12275.0
0
TEXT
5
442
330
224
100
AcDbEntity
100
AcDbText
8
DW-TEXTO
10
76925.0
20
12010.0
30
0.0
40
115.0
1
Tornillo T1 Estructura (Comecocos)
50
0.0
72
0
73
0
100
AcDbText
0
LWPOLYLINE
5
443
330
224
100
AcDbEntity
100
AcDbPolyline
8
PLANO-TABLA
90
4
70
1
43
0.0
10
81450.0
20
11950.0
10
82650.0
20
11950.0
10
82650.0
20
12275.0
10
81450.0
20
12275.0
0
TEXT
5
444
330
224
100
AcDbEntity
100
AcDbText
8
DW-TEXTO
10
81525.0
20
12010.0
30
0.0
40
115.0
1
piezas
50
0.0
72
0
73
0
100
AcDbText
0
LWPOLYLINE
5
445
330
224
100
AcDbEntity
100
AcDbPolyline
8
PLANO-TABLA
90
4
70
1
43
0.0
10
82650.0
20
11950.0
10
85250.0
20
11950.0
10
85250.0
20
12275.0
10
82650.0
20
12275.0
0
TEXT
5
446
330
224
100
AcDbEntity
100
AcDbText
8
DW-TEXTO
10
82725.0
20
12010.0
30
0.0
40
115.0
1
Caja 1,000 u.
50
0.0
72
0
73
0
100
AcDbText
0
LWPOLYLINE
5
447
330
224
100
AcDbEntity
100
AcDbPolyline
8
PLANO-TABLA
90
4
70
1
43
0.0
10
85250.0
20
11950.0
10
86250.0
20
11950.0
10
86250.0
20
12275.0
10
85250.0
20
12275.0
0
TEXT
5
448
330
224
100
AcDbEntity
100
AcDbText
8
DW-TEXTO
10
86175.0
20
12010.0
30
0.0
40
115.0
1
1
50
0.0
72
2
73
0
11
86175.0
21
12010.0
31
0.0
100
AcDbText
0
LWPOLYLINE
5
449
330
224
100
AcDbEntity
100
AcDbPolyline
8
PLANO-TABLA
90
4
70
1
43
0.0
10
86250.0
20
11950.0
10
87550.0
20
11950.0
10
87550.0
20
12275.0
10
86250.0
20
12275.0
0
TEXT
5
44A
330
224
100
AcDbEntity
100
AcDbText
8
DW-TEXTO
10
87475.0
20
12010.0
30
0.0
40
115.0
1
15.00
50
0.0
72
2
73
0
11
87475.0
21
12010.0
31
0.0
100
AcDbText
0
LWPOLYLINE
5
44B
330
224
100
AcDbEntity
100
AcDbPolyline
8
PLANO-TABLA
90
4
70
1
43
0.0
10
87550.0
20
11950.0
10
89050.0
20
11950.0
10
89050.0
20
12275.0
10
87550.0
20
12275.0
0
TEXT
5
44C
330
224
100
AcDbEntity
100
AcDbText
8
DW-TEXTO
10
88975.0
20
12010.0
30
0.0
40
115.0
1
15.00
50
0.0
72
2
73
0
11
88975.0
21
12010.0
31
0.0
100
AcDbText
0
LWPOLYLINE
5
44D
330
224
100
AcDbEntity
100
AcDbPolyline
8
PLANO-TABLA
90
4
70
1
43
0.0
10
76850.0
20
11625.0
10
81450.0
20
11625.0
10
81450.0
20
11950.0
10
76850.0
20
11950.0
0
TEXT
5
44E
330
224
100
AcDbEntity
100
AcDbText
8
DW-TEXTO
10
76925.0
20
11685.0
30
0.0
40
115.0
1
Tornillo T2 Placa (Punta Aguja)
50
0.0
72
0
73
0
100
AcDbText
0
LWPOLYLINE
5
44F
330
224
100
AcDbEntity
100
AcDbPolyline
8
PLANO-TABLA
90
4
70
1
43
0.0
10
81450.0
20
11625.0
10
82650.0
20
11625.0
10
82650.0
20
11950.0
10
81450.0
20
11950.0
0
TEXT
5
450
330
224
100
AcDbEntity
100
AcDbText
8
DW-TEXTO
10
81525.0
20
11685.0
30
0.0
40
115.0
1
piezas
50
0.0
72
0
73
0
100
AcDbText
0
LWPOLYLINE
5
451
330
224
100
AcDbEntity
100
AcDbPolyline
8
PLANO-TABLA
90
4
70
1
43
0.0
10
82650.0
20
11625.0
10
85250.0
20
11625.0
10
85250.0
20
11950.0
10
82650.0
20
11950.0
0
TEXT
5
452
330
224
100
AcDbEntity
100
AcDbText
8
DW-TEXTO
10
82725.0
20
11685.0
30
0.0
40
115.0
1
Caja 1,000 u.
50
0.0
72
0
73
0
100
AcDbText
0
LWPOLYLINE
5
453
330
224
100
AcDbEntity
100
AcDbPolyline
8
PLANO-TABLA
90
4
70
1
43
0.0
10
85250.0
20
11625.0
10
86250.0
20
11625.0
10
86250.0
20
11950.0
10
85250.0
20
11950.0
0
TEXT
5
454
330
224
100
AcDbEntity
100
AcDbText
8
DW-TEXTO
10
86175.0
20
11685.0
30
0.0
40
115.0
1
1
50
0.0
72
2
73
0
11
86175.0
21
11685.0
31
0.0
100
AcDbText
0
LWPOLYLINE
5
455
330
224
100
AcDbEntity
100
AcDbPolyline
8
PLANO-TABLA
90
4
70
1
43
0.0
10
86250.0
20
11625.0
10
87550.0
20
11625.0
10
87550.0
20
11950.0
10
86250.0
20
11950.0
0
TEXT
5
456
330
224
100
AcDbEntity
100
AcDbText
8
DW-TEXTO
10
87475.0
20
11685.0
30
0.0
40
115.0
1
18.00
50
0.0
72
2
73
0
11
87475.0
21
11685.0
31
0.0
100
AcDbText
0
LWPOLYLINE
5
457
330
224
100
AcDbEntity
100
AcDbPolyline
8
PLANO-TABLA
90
4
70
1
43
0.0
10
87550.0
20
11625.0
10
89050.0
20
11625.0
10
89050.0
20
11950.0
10
87550.0
20
11950.0
0
TEXT
5
458
330
224
100
AcDbEntity
100
AcDbText
8
DW-TEXTO
10
88975.0
20
11685.0
30
0.0
40
115.0
1
18.00
50
0.0
72
2
73
0
11
88975.0
21
11685.0
31
0.0
100
AcDbText
0
LWPOLYLINE
5
459
330
224
100
AcDbEntity
100
AcDbPolyline
8
PLANO-TABLA
90
4
70
1
43
0.0
10
76850.0
20
11300.0
10
81450.0
20
11300.0
10
81450.0
20
11625.0
10
76850.0
20
11625.0
0
TEXT
5
45A
330
224
100
AcDbEntity
100
AcDbText
8
DW-TEXTO
10
76925.0
20
11360.0
30
0.0
40
115.0
1
Cinta de Papel Microperforada
50
0.0
72
0
73
0
100
AcDbText
0
LWPOLYLINE
5
45B
330
224
100
AcDbEntity
100
AcDbPolyline
8
PLANO-TABLA
90
4
70
1
43
0.0
10
81450.0
20
11300.0
10
82650.0
20
11300.0
10
82650.0
20
11625.0
10
81450.0
20
11625.0
0
TEXT
5
45C
330
224
100
AcDbEntity
100
AcDbText
8
DW-TEXTO
10
81525.0
20
11360.0
30
0.0
40
115.0
1
m lineales
50
0.0
72
0
73
0
100
AcDbText
0
LWPOLYLINE
5
45D
330
224
100
AcDbEntity
100
AcDbPolyline
8
PLANO-TABLA
90
4
70
1
43
0.0
10
82650.0
20
11300.0
10
85250.0
20
11300.0
10
85250.0
20
11625.0
10
82650.0
20
11625.0
0
TEXT
5
45E
330
224
100
AcDbEntity
100
AcDbText
8
DW-TEXTO
10
82725.0
20
11360.0
30
0.0
40
115.0
1
Rollo 150 m
50
0.0
72
0
73
0
100
AcDbText
0
LWPOLYLINE
5
45F
330
224
100
AcDbEntity
100
AcDbPolyline
8
PLANO-TABLA
90
4
70
1
43
0.0
10
85250.0
20
11300.0
10
86250.0
20
11300.0
10
86250.0
20
11625.0
10
85250.0
20
11625.0
0
TEXT
5
460
330
224
100
AcDbEntity
100
AcDbText
8
DW-TEXTO
10
86175.0
20
11360.0
30
0.0
40
115.0
1
1
50
0.0
72
2
73
0
11
86175.0
21
11360.0
31
0.0
100
AcDbText
0
LWPOLYLINE
5
461
330
224
100
AcDbEntity
100
AcDbPolyline
8
PLANO-TABLA
90
4
70
1
43
0.0
10
86250.0
20
11300.0
10
87550.0
20
11300.0
10
87550.0
20
11625.0
10
86250.0
20
11625.0
0
TEXT
5
462
330
224
100
AcDbEntity
100
AcDbText
8
DW-TEXTO
10
87475.0
20
11360.0
30
0.0
40
115.0
1
12.00
50
0.0
72
2
73
0
11
87475.0
21
11360.0
31
0.0
100
AcDbText
0
LWPOLYLINE
5
463
330
224
100
AcDbEntity
100
AcDbPolyline
8
PLANO-TABLA
90
4
70
1
43
0.0
10
87550.0
20
11300.0
10
89050.0
20
11300.0
10
89050.0
20
11625.0
10
87550.0
20
11625.0
0
TEXT
5
464
330
224
100
AcDbEntity
100
AcDbText
8
DW-TEXTO
10
88975.0
20
11360.0
30
0.0
40
115.0
1
12.00
50
0.0
72
2
73
0
11
88975.0
21
11360.0
31
0.0
100
AcDbText
0
LWPOLYLINE
5
465
330
224
100
AcDbEntity
100
AcDbPolyline
8
PLANO-TABLA
90
4
70
1
43
0.0
10
76850.0
20
10975.0
10
81450.0
20
10975.0
10
81450.0
20
11300.0
10
76850.0
20
11300.0
0
TEXT
5
466
330
224
100
AcDbEntity
100
AcDbText
8
DW-TEXTO
10
76925.0
20
11035.0
30
0.0
40
115.0
1
Masilla Compuesto de Juntas
50
0.0
72
0
73
0
100
AcDbText
0
LWPOLYLINE
5
467
330
224
100
AcDbEntity
100
AcDbPolyline
8
PLANO-TABLA
90
4
70
1
43
0.0
10
81450.0
20
10975.0
10
82650.0
20
10975.0
10
82650.0
20
11300.0
10
81450.0
20
11300.0
0
TEXT
5
468
330
224
100
AcDbEntity
100
AcDbText
8
DW-TEXTO
10
81525.0
20
11035.0
30
0.0
40
115.0
1
kg
50
0.0
72
0
73
0
100
AcDbText
0
LWPOLYLINE
5
469
330
224
100
AcDbEntity
100
AcDbPolyline
8
PLANO-TABLA
90
4
70
1
43
0.0
10
82650.0
20
10975.0
10
85250.0
20
10975.0
10
85250.0
20
11300.0
10
82650.0
20
11300.0
0
TEXT
5
46A
330
224
100
AcDbEntity
100
AcDbText
8
DW-TEXTO
10
82725.0
20
11035.0
30
0.0
40
115.0
1
Balde 28 kg (o Caja)
50
0.0
72
0
73
0
100
AcDbText
0
LWPOLYLINE
5
46B
330
224
100
AcDbEntity
100
AcDbPolyline
8
PLANO-TABLA
90
4
70
1
43
0.0
10
85250.0
20
10975.0
10
86250.0
20
10975.0
10
86250.0
20
11300.0
10
85250.0
20
11300.0
0
TEXT
5
46C
330
224
100
AcDbEntity
100
AcDbText
8
DW-TEXTO
10
86175.0
20
11035.0
30
0.0
40
115.0
1
2
50
0.0
72
2
73
0
11
86175.0
21
11035.0
31
0.0
100
AcDbText
0
LWPOLYLINE
5
46D
330
224
100
AcDbEntity
100
AcDbPolyline
8
PLANO-TABLA
90
4
70
1
43
0.0
10
86250.0
20
10975.0
10
87550.0
20
10975.0
10
87550.0
20
11300.0
10
86250.0
20
11300.0
0
TEXT
5
46E
330
224
100
AcDbEntity
100
AcDbText
8
DW-TEXTO
10
87475.0
20
11035.0
30
0.0
40
115.0
1
23.80
50
0.0
72
2
73
0
11
87475.0
21
11035.0
31
0.0
100
AcDbText
0
LWPOLYLINE
5
46F
330
224
100
AcDbEntity
100
AcDbPolyline
8
PLANO-TABLA
90
4
70
1
43
0.0
10
87550.0
20
10975.0
10
89050.0
20
10975.0
10
89050.0
20
11300.0
10
87550.0
20
11300.0
0
TEXT
5
470
330
224
100
AcDbEntity
100
AcDbText
8
DW-TEXTO
10
88975.0
20
11035.0
30
0.0
40
115.0
1
47.60
50
0.0
72
2
73
0
11
88975.0
21
11035.0
31
0.0
100
AcDbText
0
LWPOLYLINE
5
471
330
224
100
AcDbEntity
100
AcDbPolyline
8
PLANO-TABLA
90
4
70
1
43
0.0
10
76850.0
20
10650.0
10
81450.0
20
10650.0
10
81450.0
20
10975.0
10
76850.0
20
10975.0
0
TEXT
5
472
330
224
100
AcDbEntity
100
AcDbText
8
DW-TEXTO
10
76925.0
20
10710.0
30
0.0
40
115.0
1
Fijaciones y Clavos de Impacto
50
0.0
72
0
73
0
100
AcDbText
0
LWPOLYLINE
5
473
330
224
100
AcDbEntity
100
AcDbPolyline
8
PLANO-TABLA
90
4
70
1
43
0.0
10
81450.0
20
10650.0
10
82650.0
20
10650.0
10
82650.0
20
10975.0
10
81450.0
20
10975.0
0
TEXT
5
474
330
224
100
AcDbEntity
100
AcDbText
8
DW-TEXTO
10
81525.0
20
10710.0
30
0.0
40
115.0
1
juegos
50
0.0
72
0
73
0
100
AcDbText
0
LWPOLYLINE
5
475
330
224
100
AcDbEntity
100
AcDbPolyline
8
PLANO-TABLA
90
4
70
1
43
0.0
10
82650.0
20
10650.0
10
85250.0
20
10650.0
10
85250.0
20
10975.0
10
82650.0
20
10975.0
0
TEXT
5
476
330
224
100
AcDbEntity
100
AcDbText
8
DW-TEXTO
10
82725.0
20
10710.0
30
0.0
40
115.0
1
Caja 100 juegos
50
0.0
72
0
73
0
100
AcDbText
0
LWPOLYLINE
5
477
330
224
100
AcDbEntity
100
AcDbPolyline
8
PLANO-TABLA
90
4
70
1
43
0.0
10
85250.0
20
10650.0
10
86250.0
20
10650.0
10
86250.0
20
10975.0
10
85250.0
20
10975.0
0
TEXT
5
478
330
224
100
AcDbEntity
100
AcDbText
8
DW-TEXTO
10
86175.0
20
10710.0
30
0.0
40
115.0
1
1
50
0.0
72
2
73
0
11
86175.0
21
10710.0
31
0.0
100
AcDbText
0
LWPOLYLINE
5
479
330
224
100
AcDbEntity
100
AcDbPolyline
8
PLANO-TABLA
90
4
70
1
43
0.0
10
86250.0
20
10650.0
10
87550.0
20
10650.0
10
87550.0
20
10975.0
10
86250.0
20
10975.0
0
TEXT
5
47A
330
224
100
AcDbEntity
100
AcDbText
8
DW-TEXTO
10
87475.0
20
10710.0
30
0.0
40
115.0
1
25.00
50
0.0
72
2
73
0
11
87475.0
21
10710.0
31
0.0
100
AcDbText
0
LWPOLYLINE
5
47B
330
224
100
AcDbEntity
100
AcDbPolyline
8
PLANO-TABLA
90
4
70
1
43
0.0
10
87550.0
20
10650.0
10
89050.0
20
10650.0
10
89050.0
20
10975.0
10
87550.0
20
10975.0
0
TEXT
5
47C
330
224
100
AcDbEntity
100
AcDbText
8
DW-TEXTO
10
88975.0
20
10710.0
30
0.0
40
115.0
1
25.00
50
0.0
72
2
73
0
11
88975.0
21
10710.0
31
0.0
100
AcDbText
0
LWPOLYLINE
5
47D
330
224
100
AcDbEntity
100
AcDbPolyline
8
PLANO-TABLA
90
4
70
1
43
0.0
10
76850.0
20
10325.0
10
81450.0
20
10325.0
10
81450.0
20
10650.0
10
76850.0
20
10650.0
0
TEXT
5
47E
330
224
100
AcDbEntity
100
AcDbText
8
DW-TEXTO
10
76925.0
20
10385.0
30
0.0
40
115.0
1
Placa Drywall ST 12.5mm (Doble Cara)
50
0.0
72
0
73
0
100
AcDbText
0
LWPOLYLINE
5
47F
330
224
100
AcDbEntity
100
AcDbPolyline
8
PLANO-TABLA
90
4
70
1
43
0.0
10
81450.0
20
10325.0
10
82650.0
20
10325.0
10
82650.0
20
10650.0
10
81450.0
20
10650.0
0
TEXT
5
480
330
224
100
AcDbEntity
100
AcDbText
8
DW-TEXTO
10
81525.0
20
10385.0
30
0.0
40
115.0
1
planchas
50
0.0
72
0
73
0
100
AcDbText
0
LWPOLYLINE
5
481
330
224
100
AcDbEntity
100
AcDbPolyline
8
PLANO-TABLA
90
4
70
1
43
0.0
10
82650.0
20
10325.0
10
85250.0
20
10325.0
10
85250.0
20
10650.0
10
82650.0
20
10650.0
0
TEXT
5
482
330
224
100
AcDbEntity
100
AcDbText
8
DW-TEXTO
10
82725.0
20
10385.0
30
0.0
40
115.0
1
Placa 1.20x2.40m (2.88m²)
50
0.0
72
0
73
0
100
AcDbText
0
LWPOLYLINE
5
483
330
224
100
AcDbEntity
100
AcDbPolyline
8
PLANO-TABLA
90
4
70
1
43
0.0
10
85250.0
20
10325.0
10
86250.0
20
10325.0
10
86250.0
20
10650.0
10
85250.0
20
10650.0
0
TEXT
5
484
330
224
100
AcDbEntity
100
AcDbText
8
DW-TEXTO
10
86175.0
20
10385.0
30
0.0
40
115.0
1
10
50
0.0
72
2
73
0
11
86175.0
21
10385.0
31
0.0
100
AcDbText
0
LWPOLYLINE
5
485
330
224
100
AcDbEntity
100
AcDbPolyline
8
PLANO-TABLA
90
4
70
1
43
0.0
10
86250.0
20
10325.0
10
87550.0
20
10325.0
10
87550.0
20
10650.0
10
86250.0
20
10650.0
0
TEXT
5
486
330
224
100
AcDbEntity
100
AcDbText
8
DW-TEXTO
10
87475.0
20
10385.0
30
0.0
40
115.0
1
12.50
50
0.0
72
2
73
0
11
87475.0
21
10385.0
31
0.0
100
AcDbText
0
LWPOLYLINE
5
487
330
224
100
AcDbEntity
100
AcDbPolyline
8
PLANO-TABLA
90
4
70
1
43
0.0
10
87550.0
20
10325.0
10
89050.0
20
10325.0
10
89050.0
20
10650.0
10
87550.0
20
10650.0
0
TEXT
5
488
330
224
100
AcDbEntity
100
AcDbText
8
DW-TEXTO
10
88975.0
20
10385.0
30
0.0
40
115.0
1
125.00
50
0.0
72
2
73
0
11
88975.0
21
10385.0
31
0.0
100
AcDbText
0
LWPOLYLINE
5
489
330
224
100
AcDbEntity
100
AcDbPolyline
8
PLANO-TABLA
90
4
70
1
43
0.0
10
76850.0
20
10000.0
10
81450.0
20
10000.0
10
81450.0
20
10325.0
10
76850.0
20
10325.0
0
TEXT
5
48A
330
224
100
AcDbEntity
100
AcDbText
8
DW-TEXTO
10
76925.0
20
10060.0
30
0.0
40
115.0
1
Canal Guía Metálica (U) 64mm/90mm
50
0.0
72
0
73
0
100
AcDbText
0
LWPOLYLINE
5
48B
330
224
100
AcDbEntity
100
AcDbPolyline
8
PLANO-TABLA
90
4
70
1
43
0.0
10
81450.0
20
10000.0
10
82650.0
20
10000.0
10
82650.0
20
10325.0
10
81450.0
20
10325.0
0
TEXT
5
48C
330
224
100
AcDbEntity
100
AcDbText
8
DW-TEXTO
10
81525.0
20
10060.0
30
0.0
40
115.0
1
m lineales
50
0.0
72
0
73
0
100
AcDbText
0
LWPOLYLINE
5
48D
330
224
100
AcDbEntity
100
AcDbPolyline
8
PLANO-TABLA
90
4
70
1
43
0.0
10
82650.0
20
10000.0
10
85250.0
20
10000.0
10
85250.0
20
10325.0
10
82650.0
20
10325.0
0
TEXT
5
48E
330
224
100
AcDbEntity
100
AcDbText
8
DW-TEXTO
10
82725.0
20
10060.0
30
0.0
40
115.0
1
Tira de 3.00 m
50
0.0
72
0
73
0
100
AcDbText
0
LWPOLYLINE
5
48F
330
224
100
AcDbEntity
100
AcDbPolyline
8
PLANO-TABLA
90
4
70
1
43
0.0
10
85250.0
20
10000.0
10
86250.0
20
10000.0
10
86250.0
20
10325.0
10
85250.0
20
10325.0
0
TEXT
5
490
330
224
100
AcDbEntity
100
AcDbText
8
DW-TEXTO
10
86175.0
20
10060.0
30
0.0
40
115.0
1
5
50
0.0
72
2
73
0
11
86175.0
21
10060.0
31
0.0
100
AcDbText
0
LWPOLYLINE
5
491
330
224
100
AcDbEntity
100
AcDbPolyline
8
PLANO-TABLA
90
4
70
1
43
0.0
10
86250.0
20
10000.0
10
87550.0
20
10000.0
10
87550.0
20
10325.0
10
86250.0
20
10325.0
0
TEXT
5
492
330
224
100
AcDbEntity
100
AcDbText
8
DW-TEXTO
10
87475.0
20
10060.0
30
0.0
40
115.0
1
3.90
50
0.0
72
2
73
0
11
87475.0
21
10060.0
31
0.0
100
AcDbText
0
LWPOLYLINE
5
493
330
224
100
AcDbEntity
100
AcDbPolyline
8
PLANO-TABLA
90
4
70
1
43
0.0
10
87550.0
20
10000.0
10
89050.0
20
10000.0
10
89050.0
20
10325.0
10
87550.0
20
10325.0
0
TEXT
5
494
330
224
100
AcDbEntity
100
AcDbText
8
DW-TEXTO
10
88975.0
20
10060.0
30
0.0
40
115.0
1
19.50
50
0.0
72
2
73
0
11
88975.0
21
10060.0
31
0.0
100
AcDbText
0
LWPOLYLINE
5
495
330
224
100
AcDbEntity
100
AcDbPolyline
8
PLANO-TABLA
90
4
70
1
43
0.0
10
76850.0
20
9675.0
10
81450.0
20
9675.0
10
81450.0
20
10000.0
10
76850.0
20
10000.0
0
TEXT
5
496
330
224
100
AcDbEntity
100
AcDbText
8
DW-TEXTO
10
76925.0
20
9735.0
30
0.0
40
115.0
1
Parante Montante (C) 64mm/90mm
50
0.0
72
0
73
0
100
AcDbText
0
LWPOLYLINE
5
497
330
224
100
AcDbEntity
100
AcDbPolyline
8
PLANO-TABLA
90
4
70
1
43
0.0
10
81450.0
20
9675.0
10
82650.0
20
9675.0
10
82650.0
20
10000.0
10
81450.0
20
10000.0
0
TEXT
5
498
330
224
100
AcDbEntity
100
AcDbText
8
DW-TEXTO
10
81525.0
20
9735.0
30
0.0
40
115.0
1
m lineales
50
0.0
72
0
73
0
100
AcDbText
0
LWPOLYLINE
5
499
330
224
100
AcDbEntity
100
AcDbPolyline
8
PLANO-TABLA
90
4
70
1
43
0.0
10
82650.0
20
9675.0
10
85250.0
20
9675.0
10
85250.0
20
10000.0
10
82650.0
20
10000.0
0
TEXT
5
49A
330
224
100
AcDbEntity
100
AcDbText
8
DW-TEXTO
10
82725.0
20
9735.0
30
0.0
40
115.0
1
Tira de 3.00 m
50
0.0
72
0
73
0
100
AcDbText
0
LWPOLYLINE
5
49B
330
224
100
AcDbEntity
100
AcDbPolyline
8
PLANO-TABLA
90
4
70
1
43
0.0
10
85250.0
20
9675.0
10
86250.0
20
9675.0
10
86250.0
20
10000.0
10
85250.0
20
10000.0
0
TEXT
5
49C
330
224
100
AcDbEntity
100
AcDbText
8
DW-TEXTO
10
86175.0
20
9735.0
30
0.0
40
115.0
1
10
50
0.0
72
2
73
0
11
86175.0
21
9735.0
31
0.0
100
AcDbText
0
LWPOLYLINE
5
49D
330
224
100
AcDbEntity
100
AcDbPolyline
8
PLANO-TABLA
90
4
70
1
43
0.0
10
86250.0
20
9675.0
10
87550.0
20
9675.0
10
87550.0
20
10000.0
10
86250.0
20
10000.0
0
TEXT
5
49E
330
224
100
AcDbEntity
100
AcDbText
8
DW-TEXTO
10
87475.0
20
9735.0
30
0.0
40
115.0
1
4.50
50
0.0
72
2
73
0
11
87475.0
21
9735.0
31
0.0
100
AcDbText
0
LWPOLYLINE
5
49F
330
224
100
AcDbEntity
100
AcDbPolyline
8
PLANO-TABLA
90
4
70
1
43
0.0
10
87550.0
20
9675.0
10
89050.0
20
9675.0
10
89050.0
20
10000.0
10
87550.0
20
10000.0
0
TEXT
5
4A0
330
224
100
AcDbEntity
100
AcDbText
8
DW-TEXTO
10
88975.0
20
9735.0
30
0.0
40
115.0
1
45.00
50
0.0
72
2
73
0
11
88975.0
21
9735.0
31
0.0
100
AcDbText
0
LWPOLYLINE
5
4A1
330
224
100
AcDbEntity
100
AcDbPolyline
8
PLANO-TABLA
90
4
70
1
43
0.0
10
76850.0
20
9350.0
10
81450.0
20
9350.0
10
81450.0
20
9675.0
10
76850.0
20
9675.0
0
TEXT
5
4A2
330
224
100
AcDbEntity
100
AcDbText
8
DW-TEXTO
10
76925.0
20
9410.0
30
0.0
40
115.0
1
Tornillo T1 Estructura
50
0.0
72
0
73
0
100
AcDbText
0
LWPOLYLINE
5
4A3
330
224
100
AcDbEntity
100
AcDbPolyline
8
PLANO-TABLA
90
4
70
1
43
0.0
10
81450.0
20
9350.0
10
82650.0
20
9350.0
10
82650.0
20
9675.0
10
81450.0
20
9675.0
0
TEXT
5
4A4
330
224
100
AcDbEntity
100
AcDbText
8
DW-TEXTO
10
81525.0
20
9410.0
30
0.0
40
115.0
1
piezas
50
0.0
72
0
73
0
100
AcDbText
0
LWPOLYLINE
5
4A5
330
224
100
AcDbEntity
100
AcDbPolyline
8
PLANO-TABLA
90
4
70
1
43
0.0
10
82650.0
20
9350.0
10
85250.0
20
9350.0
10
85250.0
20
9675.0
10
82650.0
20
9675.0
0
TEXT
5
4A6
330
224
100
AcDbEntity
100
AcDbText
8
DW-TEXTO
10
82725.0
20
9410.0
30
0.0
40
115.0
1
Caja 1,000 u.
50
0.0
72
0
73
0
100
AcDbText
0
LWPOLYLINE
5
4A7
330
224
100
AcDbEntity
100
AcDbPolyline
8
PLANO-TABLA
90
4
70
1
43
0.0
10
85250.0
20
9350.0
10
86250.0
20
9350.0
10
86250.0
20
9675.0
10
85250.0
20
9675.0
0
TEXT
5
4A8
330
224
100
AcDbEntity
100
AcDbText
8
DW-TEXTO
10
86175.0
20
9410.0
30
0.0
40
115.0
1
1
50
0.0
72
2
73
0
11
86175.0
21
9410.0
31
0.0
100
AcDbText
0
LWPOLYLINE
5
4A9
330
224
100
AcDbEntity
100
AcDbPolyline
8
PLANO-TABLA
90
4
70
1
43
0.0
10
86250.0
20
9350.0
10
87550.0
20
9350.0
10
87550.0
20
9675.0
10
86250.0
20
9675.0
0
TEXT
5
4AA
330
224
100
AcDbEntity
100
AcDbText
8
DW-TEXTO
10
87475.0
20
9410.0
30
0.0
40
115.0
1
15.00
50
0.0
72
2
73
0
11
87475.0
21
9410.0
31
0.0
100
AcDbText
0
LWPOLYLINE
5
4AB
330
224
100
AcDbEntity
100
AcDbPolyline
8
PLANO-TABLA
90
4
70
1
43
0.0
10
87550.0
20
9350.0
10
89050.0
20
9350.0
10
89050.0
20
9675.0
10
87550.0
20
9675.0
0
TEXT
5
4AC
330
224
100
AcDbEntity
100
AcDbText
8
DW-TEXTO
10
88975.0
20
9410.0
30
0.0
40
115.0
1
15.00
50
0.0
72
2
73
0
11
88975.0
21
9410.0
31
0.0
100
AcDbText
0
LWPOLYLINE
5
4AD
330
224
100
AcDbEntity
100
AcDbPolyline
8
PLANO-TABLA
90
4
70
1
43
0.0
10
76850.0
20
9025.0
10
81450.0
20
9025.0
10
81450.0
20
9350.0
10
76850.0
20
9350.0
0
TEXT
5
4AE
330
224
100
AcDbEntity
100
AcDbText
8
DW-TEXTO
10
76925.0
20
9085.0
30
0.0
40
115.0
1
Tornillo T2 Fijación Placas
50
0.0
72
0
73
0
100
AcDbText
0
LWPOLYLINE
5
4AF
330
224
100
AcDbEntity
100
AcDbPolyline
8
PLANO-TABLA
90
4
70
1
43
0.0
10
81450.0
20
9025.0
10
82650.0
20
9025.0
10
82650.0
20
9350.0
10
81450.0
20
9350.0
0
TEXT
5
4B0
330
224
100
AcDbEntity
100
AcDbText
8
DW-TEXTO
10
81525.0
20
9085.0
30
0.0
40
115.0
1
piezas
50
0.0
72
0
73
0
100
AcDbText
0
LWPOLYLINE
5
4B1
330
224
100
AcDbEntity
100
AcDbPolyline
8
PLANO-TABLA
90
4
70
1
43
0.0
10
82650.0
20
9025.0
10
85250.0
20
9025.0
10
85250.0
20
9350.0
10
82650.0
20
9350.0
0
TEXT
5
4B2
330
224
100
AcDbEntity
100
AcDbText
8
DW-TEXTO
10
82725.0
20
9085.0
30
0.0
40
115.0
1
Caja 1,000 u.
50
0.0
72
0
73
0
100
AcDbText
0
LWPOLYLINE
5
4B3
330
224
100
AcDbEntity
100
AcDbPolyline
8
PLANO-TABLA
90
4
70
1
43
0.0
10
85250.0
20
9025.0
10
86250.0
20
9025.0
10
86250.0
20
9350.0
10
85250.0
20
9350.0
0
TEXT
5
4B4
330
224
100
AcDbEntity
100
AcDbText
8
DW-TEXTO
10
86175.0
20
9085.0
30
0.0
40
115.0
1
1
50
0.0
72
2
73
0
11
86175.0
21
9085.0
31
0.0
100
AcDbText
0
LWPOLYLINE
5
4B5
330
224
100
AcDbEntity
100
AcDbPolyline
8
PLANO-TABLA
90
4
70
1
43
0.0
10
86250.0
20
9025.0
10
87550.0
20
9025.0
10
87550.0
20
9350.0
10
86250.0
20
9350.0
0
TEXT
5
4B6
330
224
100
AcDbEntity
100
AcDbText
8
DW-TEXTO
10
87475.0
20
9085.0
30
0.0
40
115.0
1
18.00
50
0.0
72
2
73
0
11
87475.0
21
9085.0
31
0.0
100
AcDbText
0
LWPOLYLINE
5
4B7
330
224
100
AcDbEntity
100
AcDbPolyline
8
PLANO-TABLA
90
4
70
1
43
0.0
10
87550.0
20
9025.0
10
89050.0
20
9025.0
10
89050.0
20
9350.0
10
87550.0
20
9350.0
0
TEXT
5
4B8
330
224
100
AcDbEntity
100
AcDbText
8
DW-TEXTO
10
88975.0
20
9085.0
30
0.0
40
115.0
1
18.00
50
0.0
72
2
73
0
11
88975.0
21
9085.0
31
0.0
100
AcDbText
0
LWPOLYLINE
5
4B9
330
224
100
AcDbEntity
100
AcDbPolyline
8
PLANO-TABLA
90
4
70
1
43
0.0
10
76850.0
20
8700.0
10
81450.0
20
8700.0
10
81450.0
20
9025.0
10
76850.0
20
9025.0
0
TEXT
5
4BA
330
224
100
AcDbEntity
100
AcDbText
8
DW-TEXTO
10
76925.0
20
8760.0
30
0.0
40
115.0
1
Cinta de Papel Reforzada
50
0.0
72
0
73
0
100
AcDbText
0
LWPOLYLINE
5
4BB
330
224
100
AcDbEntity
100
AcDbPolyline
8
PLANO-TABLA
90
4
70
1
43
0.0
10
81450.0
20
8700.0
10
82650.0
20
8700.0
10
82650.0
20
9025.0
10
81450.0
20
9025.0
0
TEXT
5
4BC
330
224
100
AcDbEntity
100
AcDbText
8
DW-TEXTO
10
81525.0
20
8760.0
30
0.0
40
115.0
1
m lineales
50
0.0
72
0
73
0
100
AcDbText
0
LWPOLYLINE
5
4BD
330
224
100
AcDbEntity
100
AcDbPolyline
8
PLANO-TABLA
90
4
70
1
43
0.0
10
82650.0
20
8700.0
10
85250.0
20
8700.0
10
85250.0
20
9025.0
10
82650.0
20
9025.0
0
TEXT
5
4BE
330
224
100
AcDbEntity
100
AcDbText
8
DW-TEXTO
10
82725.0
20
8760.0
30
0.0
40
115.0
1
Rollo 150 m
50
0.0
72
0
73
0
100
AcDbText
0
LWPOLYLINE
5
4BF
330
224
100
AcDbEntity
100
AcDbPolyline
8
PLANO-TABLA
90
4
70
1
43
0.0
10
85250.0
20
8700.0
10
86250.0
20
8700.0
10
86250.0
20
9025.0
10
85250.0
20
9025.0
0
TEXT
5
4C0
330
224
100
AcDbEntity
100
AcDbText
8
DW-TEXTO
10
86175.0
20
8760.0
30
0.0
40
115.0
1
1
50
0.0
72
2
73
0
11
86175.0
21
8760.0
31
0.0
100
AcDbText
0
LWPOLYLINE
5
4C1
330
224
100
AcDbEntity
100
AcDbPolyline
8
PLANO-TABLA
90
4
70
1
43
0.0
10
86250.0
20
8700.0
10
87550.0
20
8700.0
10
87550.0
20
9025.0
10
86250.0
20
9025.0
0
TEXT
5
4C2
330
224
100
AcDbEntity
100
AcDbText
8
DW-TEXTO
10
87475.0
20
8760.0
30
0.0
40
115.0
1
12.00
50
0.0
72
2
73
0
11
87475.0
21
8760.0
31
0.0
100
AcDbText
0
LWPOLYLINE
5
4C3
330
224
100
AcDbEntity
100
AcDbPolyline
8
PLANO-TABLA
90
4
70
1
43
0.0
10
87550.0
20
8700.0
10
89050.0
20
8700.0
10
89050.0
20
9025.0
10
87550.0
20
9025.0
0
TEXT
5
4C4
330
224
100
AcDbEntity
100
AcDbText
8
DW-TEXTO
10
88975.0
20
8760.0
30
0.0
40
115.0
1
12.00
50
0.0
72
2
73
0
11
88975.0
21
8760.0
31
0.0
100
AcDbText
0
LWPOLYLINE
5
4C5
330
224
100
AcDbEntity
100
AcDbPolyline
8
PLANO-TABLA
90
4
70
1
43
0.0
10
76850.0
20
8375.0
10
81450.0
20
8375.0
10
81450.0
20
8700.0
10
76850.0
20
8700.0
0
TEXT
5
4C6
330
224
100
AcDbEntity
100
AcDbText
8
DW-TEXTO
10
76925.0
20
8435.0
30
0.0
40
115.0
1
Masilla de Juntas Drywall
50
0.0
72
0
73
0
100
AcDbText
0
LWPOLYLINE
5
4C7
330
224
100
AcDbEntity
100
AcDbPolyline
8
PLANO-TABLA
90
4
70
1
43
0.0
10
81450.0
20
8375.0
10
82650.0
20
8375.0
10
82650.0
20
8700.0
10
81450.0
20
8700.0
0
TEXT
5
4C8
330
224
100
AcDbEntity
100
AcDbText
8
DW-TEXTO
10
81525.0
20
8435.0
30
0.0
40
115.0
1
kg
50
0.0
72
0
73
0
100
AcDbText
0
LWPOLYLINE
5
4C9
330
224
100
AcDbEntity
100
AcDbPolyline
8
PLANO-TABLA
90
4
70
1
43
0.0
10
82650.0
20
8375.0
10
85250.0
20
8375.0
10
85250.0
20
8700.0
10
82650.0
20
8700.0
0
TEXT
5
4CA
330
224
100
AcDbEntity
100
AcDbText
8
DW-TEXTO
10
82725.0
20
8435.0
30
0.0
40
115.0
1
Balde 28 kg
50
0.0
72
0
73
0
100
AcDbText
0
LWPOLYLINE
5
4CB
330
224
100
AcDbEntity
100
AcDbPolyline
8
PLANO-TABLA
90
4
70
1
43
0.0
10
85250.0
20
8375.0
10
86250.0
20
8375.0
10
86250.0
20
8700.0
10
85250.0
20
8700.0
0
TEXT
5
4CC
330
224
100
AcDbEntity
100
AcDbText
8
DW-TEXTO
10
86175.0
20
8435.0
30
0.0
40
115.0
1
1
50
0.0
72
2
73
0
11
86175.0
21
8435.0
31
0.0
100
AcDbText
0
LWPOLYLINE
5
4CD
330
224
100
AcDbEntity
100
AcDbPolyline
8
PLANO-TABLA
90
4
70
1
43
0.0
10
86250.0
20
8375.0
10
87550.0
20
8375.0
10
87550.0
20
8700.0
10
86250.0
20
8700.0
0
TEXT
5
4CE
330
224
100
AcDbEntity
100
AcDbText
8
DW-TEXTO
10
87475.0
20
8435.0
30
0.0
40
115.0
1
23.80
50
0.0
72
2
73
0
11
87475.0
21
8435.0
31
0.0
100
AcDbText
0
LWPOLYLINE
5
4CF
330
224
100
AcDbEntity
100
AcDbPolyline
8
PLANO-TABLA
90
4
70
1
43
0.0
10
87550.0
20
8375.0
10
89050.0
20
8375.0
10
89050.0
20
8700.0
10
87550.0
20
8700.0
0
TEXT
5
4D0
330
224
100
AcDbEntity
100
AcDbText
8
DW-TEXTO
10
88975.0
20
8435.0
30
0.0
40
115.0
1
23.80
50
0.0
72
2
73
0
11
88975.0
21
8435.0
31
0.0
100
AcDbText
0
LWPOLYLINE
5
4D1
330
224
100
AcDbEntity
100
AcDbPolyline
8
PLANO-TABLA
90
4
70
1
43
0.0
10
76850.0
20
8050.0
10
81450.0
20
8050.0
10
81450.0
20
8375.0
10
76850.0
20
8375.0
0
TEXT
5
4D2
330
224
100
AcDbEntity
100
AcDbText
8
DW-TEXTO
10
76925.0
20
8110.0
30
0.0
40
115.0
1
Lana de Vidrio Acústica 50mm
50
0.0
72
0
73
0
100
AcDbText
0
LWPOLYLINE
5
4D3
330
224
100
AcDbEntity
100
AcDbPolyline
8
PLANO-TABLA
90
4
70
1
43
0.0
10
81450.0
20
8050.0
10
82650.0
20
8050.0
10
82650.0
20
8375.0
10
81450.0
20
8375.0
0
TEXT
5
4D4
330
224
100
AcDbEntity
100
AcDbText
8
DW-TEXTO
10
81525.0
20
8110.0
30
0.0
40
115.0
1
m²
50
0.0
72
0
73
0
100
AcDbText
0
LWPOLYLINE
5
4D5
330
224
100
AcDbEntity
100
AcDbPolyline
8
PLANO-TABLA
90
4
70
1
43
0.0
10
82650.0
20
8050.0
10
85250.0
20
8050.0
10
85250.0
20
8375.0
10
82650.0
20
8375.0
0
TEXT
5
4D6
330
224
100
AcDbEntity
100
AcDbText
8
DW-TEXTO
10
82725.0
20
8110.0
30
0.0
40
115.0
1
Rollo 14.4 m²
50
0.0
72
0
73
0
100
AcDbText
0
LWPOLYLINE
5
4D7
330
224
100
AcDbEntity
100
AcDbPolyline
8
PLANO-TABLA
90
4
70
1
43
0.0
10
85250.0
20
8050.0
10
86250.0
20
8050.0
10
86250.0
20
8375.0
10
85250.0
20
8375.0
0
TEXT
5
4D8
330
224
100
AcDbEntity
100
AcDbText
8
DW-TEXTO
10
86175.0
20
8110.0
30
0.0
40
115.0
1
2
50
0.0
72
2
73
0
11
86175.0
21
8110.0
31
0.0
100
AcDbText
0
LWPOLYLINE
5
4D9
330
224
100
AcDbEntity
100
AcDbPolyline
8
PLANO-TABLA
90
4
70
1
43
0.0
10
86250.0
20
8050.0
10
87550.0
20
8050.0
10
87550.0
20
8375.0
10
86250.0
20
8375.0
0
TEXT
5
4DA
330
224
100
AcDbEntity
100
AcDbText
8
DW-TEXTO
10
87475.0
20
8110.0
30
0.0
40
115.0
1
46.08
50
0.0
72
2
73
0
11
87475.0
21
8110.0
31
0.0
100
AcDbText
0
LWPOLYLINE
5
4DB
330
224
100
AcDbEntity
100
AcDbPolyline
8
PLANO-TABLA
90
4
70
1
43
0.0
10
87550.0
20
8050.0
10
89050.0
20
8050.0
10
89050.0
20
8375.0
10
87550.0
20
8375.0
0
TEXT
5
4DC
330
224
100
AcDbEntity
100
AcDbText
8
DW-TEXTO
10
88975.0
20
8110.0
30
0.0
40
115.0
1
92.16
50
0.0
72
2
73
0
11
88975.0
21
8110.0
31
0.0
100
AcDbText
0
LWPOLYLINE
5
4DD
330
224
100
AcDbEntity
100
AcDbPolyline
8
PLANO-TABLA
90
4
70
1
43
0.0
10
76850.0
20
7725.0
10
81450.0
20
7725.0
10
81450.0
20
8050.0
10
76850.0
20
8050.0
0
TEXT
5
4DE
330
224
100
AcDbEntity
100
AcDbText
8
DW-TEXTO
10
76925.0
20
7785.0
30
0.0
40
115.0
1
Fijaciones Suelo y Techo
50
0.0
72
0
73
0
100
AcDbText
0
LWPOLYLINE
5
4DF
330
224
100
AcDbEntity
100
AcDbPolyline
8
PLANO-TABLA
90
4
70
1
43
0.0
10
81450.0
20
7725.0
10
82650.0
20
7725.0
10
82650.0
20
8050.0
10
81450.0
20
8050.0
0
TEXT
5
4E0
330
224
100
AcDbEntity
100
AcDbText
8
DW-TEXTO
10
81525.0
20
7785.0
30
0.0
40
115.0
1
juegos
50
0.0
72
0
73
0
100
AcDbText
0
LWPOLYLINE
5
4E1
330
224
100
AcDbEntity
100
AcDbPolyline
8
PLANO-TABLA
90
4
70
1
43
0.0
10
82650.0
20
7725.0
10
85250.0
20
7725.0
10
85250.0
20
8050.0
10
82650.0
20
8050.0
0
TEXT
5
4E2
330
224
100
AcDbEntity
100
AcDbText
8
DW-TEXTO
10
82725.0
20
7785.0
30
0.0
40
115.0
1
Caja 100 juegos
50
0.0
72
0
73
0
100
AcDbText
0
LWPOLYLINE
5
4E3
330
224
100
AcDbEntity
100
AcDbPolyline
8
PLANO-TABLA
90
4
70
1
43
0.0
10
85250.0
20
7725.0
10
86250.0
20
7725.0
10
86250.0
20
8050.0
10
85250.0
20
8050.0
0
TEXT
5
4E4
330
224
100
AcDbEntity
100
AcDbText
8
DW-TEXTO
10
86175.0
20
7785.0
30
0.0
40
115.0
1
1
50
0.0
72
2
73
0
11
86175.0
21
7785.0
31
0.0
100
AcDbText
0
LWPOLYLINE
5
4E5
330
224
100
AcDbEntity
100
AcDbPolyline
8
PLANO-TABLA
90
4
70
1
43
0.0
10
86250.0
20
7725.0
10
87550.0
20
7725.0
10
87550.0
20
8050.0
10
86250.0
20
8050.0
0
TEXT
5
4E6
330
224
100
AcDbEntity
100
AcDbText
8
DW-TEXTO
10
87475.0
20
7785.0
30
0.0
40
115.0
1
25.00
50
0.0
72
2
73
0
11
87475.0
21
7785.0
31
0.0
100
AcDbText
0
LWPOLYLINE
5
4E7
330
224
100
AcDbEntity
100
AcDbPolyline
8
PLANO-TABLA
90
4
70
1
43
0.0
10
87550.0
20
7725.0
10
89050.0
20
7725.0
10
89050.0
20
8050.0
10
87550.0
20
8050.0
0
TEXT
5
4E8
330
224
100
AcDbEntity
100
AcDbText
8
DW-TEXTO
10
88975.0
20
7785.0
30
0.0
40
115.0
1
25.00
50
0.0
72
2
73
0
11
88975.0
21
7785.0
31
0.0
100
AcDbText
0
LWPOLYLINE
5
4E9
330
224
100
AcDbEntity
100
AcDbPolyline
8
PLANO-TABLA
90
4
70
1
43
0.0
10
76850.0
20
7400.0
10
81450.0
20
7400.0
10
81450.0
20
7725.0
10
76850.0
20
7725.0
0
TEXT
5
4EA
330
224
100
AcDbEntity
100
AcDbText
8
DW-TEXTO
10
76925.0
20
7460.0
30
0.0
40
115.0
1
Placa Drywall RH Verde 12.5mm
50
0.0
72
0
73
0
100
AcDbText
0
LWPOLYLINE
5
4EB
330
224
100
AcDbEntity
100
AcDbPolyline
8
PLANO-TABLA
90
4
70
1
43
0.0
10
81450.0
20
7400.0
10
82650.0
20
7400.0
10
82650.0
20
7725.0
10
81450.0
20
7725.0
0
TEXT
5
4EC
330
224
100
AcDbEntity
100
AcDbText
8
DW-TEXTO
10
81525.0
20
7460.0
30
0.0
40
115.0
1
planchas
50
0.0
72
0
73
0
100
AcDbText
0
LWPOLYLINE
5
4ED
330
224
100
AcDbEntity
100
AcDbPolyline
8
PLANO-TABLA
90
4
70
1
43
0.0
10
82650.0
20
7400.0
10
85250.0
20
7400.0
10
85250.0
20
7725.0
10
82650.0
20
7725.0
0
TEXT
5
4EE
330
224
100
AcDbEntity
100
AcDbText
8
DW-TEXTO
10
82725.0
20
7460.0
30
0.0
40
115.0
1
Placa 1.20x2.40m (2.88m²)
50
0.0
72
0
73
0
100
AcDbText
0
LWPOLYLINE
5
4EF
330
224
100
AcDbEntity
100
AcDbPolyline
8
PLANO-TABLA
90
4
70
1
43
0.0
10
85250.0
20
7400.0
10
86250.0
20
7400.0
10
86250.0
20
7725.0
10
85250.0
20
7725.0
0
TEXT
5
4F0
330
224
100
AcDbEntity
100
AcDbText
8
DW-TEXTO
10
86175.0
20
7460.0
30
0.0
40
115.0
1
3
50
0.0
72
2
73
0
11
86175.0
21
7460.0
31
0.0
100
AcDbText
0
LWPOLYLINE
5
4F1
330
224
100
AcDbEntity
100
AcDbPolyline
8
PLANO-TABLA
90
4
70
1
43
0.0
10
86250.0
20
7400.0
10
87550.0
20
7400.0
10
87550.0
20
7725.0
10
86250.0
20
7725.0
0
TEXT
5
4F2
330
224
100
AcDbEntity
100
AcDbText
8
DW-TEXTO
10
87475.0
20
7460.0
30
0.0
40
115.0
1
16.20
50
0.0
72
2
73
0
11
87475.0
21
7460.0
31
0.0
100
AcDbText
0
LWPOLYLINE
5
4F3
330
224
100
AcDbEntity
100
AcDbPolyline
8
PLANO-TABLA
90
4
70
1
43
0.0
10
87550.0
20
7400.0
10
89050.0
20
7400.0
10
89050.0
20
7725.0
10
87550.0
20
7725.0
0
TEXT
5
4F4
330
224
100
AcDbEntity
100
AcDbText
8
DW-TEXTO
10
88975.0
20
7460.0
30
0.0
40
115.0
1
48.60
50
0.0
72
2
73
0
11
88975.0
21
7460.0
31
0.0
100
AcDbText
0
LWPOLYLINE
5
4F5
330
224
100
AcDbEntity
100
AcDbPolyline
8
PLANO-TABLA
90
4
70
1
43
0.0
10
76850.0
20
7075.0
10
81450.0
20
7075.0
10
81450.0
20
7400.0
10
76850.0
20
7400.0
0
TEXT
5
4F6
330
224
100
AcDbEntity
100
AcDbText
8
DW-TEXTO
10
76925.0
20
7135.0
30
0.0
40
115.0
1
Perfil Primario Galvanizado
50
0.0
72
0
73
0
100
AcDbText
0
LWPOLYLINE
5
4F7
330
224
100
AcDbEntity
100
AcDbPolyline
8
PLANO-TABLA
90
4
70
1
43
0.0
10
81450.0
20
7075.0
10
82650.0
20
7075.0
10
82650.0
20
7400.0
10
81450.0
20
7400.0
0
TEXT
5
4F8
330
224
100
AcDbEntity
100
AcDbText
8
DW-TEXTO
10
81525.0
20
7135.0
30
0.0
40
115.0
1
m lineales
50
0.0
72
0
73
0
100
AcDbText
0
LWPOLYLINE
5
4F9
330
224
100
AcDbEntity
100
AcDbPolyline
8
PLANO-TABLA
90
4
70
1
43
0.0
10
82650.0
20
7075.0
10
85250.0
20
7075.0
10
85250.0
20
7400.0
10
82650.0
20
7400.0
0
TEXT
5
4FA
330
224
100
AcDbEntity
100
AcDbText
8
DW-TEXTO
10
82725.0
20
7135.0
30
0.0
40
115.0
1
Tira de 3.00 m
50
0.0
72
0
73
0
100
AcDbText
0
LWPOLYLINE
5
4FB
330
224
100
AcDbEntity
100
AcDbPolyline
8
PLANO-TABLA
90
4
70
1
43
0.0
10
85250.0
20
7075.0
10
86250.0
20
7075.0
10
86250.0
20
7400.0
10
85250.0
20
7400.0
0
TEXT
5
4FC
330
224
100
AcDbEntity
100
AcDbText
8
DW-TEXTO
10
86175.0
20
7135.0
30
0.0
40
115.0
1
2
50
0.0
72
2
73
0
11
86175.0
21
7135.0
31
0.0
100
AcDbText
0
LWPOLYLINE
5
4FD
330
224
100
AcDbEntity
100
AcDbPolyline
8
PLANO-TABLA
90
4
70
1
43
0.0
10
86250.0
20
7075.0
10
87550.0
20
7075.0
10
87550.0
20
7400.0
10
86250.0
20
7400.0
0
TEXT
5
4FE
330
224
100
AcDbEntity
100
AcDbText
8
DW-TEXTO
10
87475.0
20
7135.0
30
0.0
40
115.0
1
4.35
50
0.0
72
2
73
0
11
87475.0
21
7135.0
31
0.0
100
AcDbText
0
LWPOLYLINE
5
4FF
330
224
100
AcDbEntity
100
AcDbPolyline
8
PLANO-TABLA
90
4
70
1
43
0.0
10
87550.0
20
7075.0
10
89050.0
20
7075.0
10
89050.0
20
7400.0
10
87550.0
20
7400.0
0
TEXT
5
500
330
224
100
AcDbEntity
100
AcDbText
8
DW-TEXTO
10
88975.0
20
7135.0
30
0.0
40
115.0
1
8.70
50
0.0
72
2
73
0
11
88975.0
21
7135.0
31
0.0
100
AcDbText
0
LWPOLYLINE
5
501
330
224
100
AcDbEntity
100
AcDbPolyline
8
PLANO-TABLA
90
4
70
1
43
0.0
10
76850.0
20
6750.0
10
81450.0
20
6750.0
10
81450.0
20
7075.0
10
76850.0
20
7075.0
0
TEXT
5
502
330
224
100
AcDbEntity
100
AcDbText
8
DW-TEXTO
10
76925.0
20
6810.0
30
0.0
40
115.0
1
Perfil Omega Galvanizado
50
0.0
72
0
73
0
100
AcDbText
0
LWPOLYLINE
5
503
330
224
100
AcDbEntity
100
AcDbPolyline
8
PLANO-TABLA
90
4
70
1
43
0.0
10
81450.0
20
6750.0
10
82650.0
20
6750.0
10
82650.0
20
7075.0
10
81450.0
20
7075.0
0
TEXT
5
504
330
224
100
AcDbEntity
100
AcDbText
8
DW-TEXTO
10
81525.0
20
6810.0
30
0.0
40
115.0
1
m lineales
50
0.0
72
0
73
0
100
AcDbText
0
LWPOLYLINE
5
505
330
224
100
AcDbEntity
100
AcDbPolyline
8
PLANO-TABLA
90
4
70
1
43
0.0
10
82650.0
20
6750.0
10
85250.0
20
6750.0
10
85250.0
20
7075.0
10
82650.0
20
7075.0
0
TEXT
5
506
330
224
100
AcDbEntity
100
AcDbText
8
DW-TEXTO
10
82725.0
20
6810.0
30
0.0
40
115.0
1
Tira de 3.00 m
50
0.0
72
0
73
0
100
AcDbText
0
LWPOLYLINE
5
507
330
224
100
AcDbEntity
100
AcDbPolyline
8
PLANO-TABLA
90
4
70
1
43
0.0
10
85250.0
20
6750.0
10
86250.0
20
6750.0
10
86250.0
20
7075.0
10
85250.0
20
7075.0
0
TEXT
5
508
330
224
100
AcDbEntity
100
AcDbText
8
DW-TEXTO
10
86175.0
20
6810.0
30
0.0
40
115.0
1
3
50
0.0
72
2
73
0
11
86175.0
21
6810.0
31
0.0
100
AcDbText
0
LWPOLYLINE
5
509
330
224
100
AcDbEntity
100
AcDbPolyline
8
PLANO-TABLA
90
4
70
1
43
0.0
10
86250.0
20
6750.0
10
87550.0
20
6750.0
10
87550.0
20
7075.0
10
86250.0
20
7075.0
0
TEXT
5
50A
330
224
100
AcDbEntity
100
AcDbText
8
DW-TEXTO
10
87475.0
20
6810.0
30
0.0
40
115.0
1
3.75
50
0.0
72
2
73
0
11
87475.0
21
6810.0
31
0.0
100
AcDbText
0
LWPOLYLINE
5
50B
330
224
100
AcDbEntity
100
AcDbPolyline
8
PLANO-TABLA
90
4
70
1
43
0.0
10
87550.0
20
6750.0
10
89050.0
20
6750.0
10
89050.0
20
7075.0
10
87550.0
20
7075.0
0
TEXT
5
50C
330
224
100
AcDbEntity
100
AcDbText
8
DW-TEXTO
10
88975.0
20
6810.0
30
0.0
40
115.0
1
11.25
50
0.0
72
2
73
0
11
88975.0
21
6810.0
31
0.0
100
AcDbText
0
LWPOLYLINE
5
50D
330
224
100
AcDbEntity
100
AcDbPolyline
8
PLANO-TABLA
90
4
70
1
43
0.0
10
76850.0
20
6425.0
10
81450.0
20
6425.0
10
81450.0
20
6750.0
10
76850.0
20
6750.0
0
TEXT
5
50E
330
224
100
AcDbEntity
100
AcDbText
8
DW-TEXTO
10
76925.0
20
6485.0
30
0.0
40
115.0
1
Tornillo T1 Zincado Anticorrosión
50
0.0
72
0
73
0
100
AcDbText
0
LWPOLYLINE
5
50F
330
224
100
AcDbEntity
100
AcDbPolyline
8
PLANO-TABLA
90
4
70
1
43
0.0
10
81450.0
20
6425.0
10
82650.0
20
6425.0
10
82650.0
20
6750.0
10
81450.0
20
6750.0
0
TEXT
5
510
330
224
100
AcDbEntity
100
AcDbText
8
DW-TEXTO
10
81525.0
20
6485.0
30
0.0
40
115.0
1
piezas
50
0.0
72
0
73
0
100
AcDbText
0
LWPOLYLINE
5
511
330
224
100
AcDbEntity
100
AcDbPolyline
8
PLANO-TABLA
90
4
70
1
43
0.0
10
82650.0
20
6425.0
10
85250.0
20
6425.0
10
85250.0
20
6750.0
10
82650.0
20
6750.0
0
TEXT
5
512
330
224
100
AcDbEntity
100
AcDbText
8
DW-TEXTO
10
82725.0
20
6485.0
30
0.0
40
115.0
1
Caja 1,000 u.
50
0.0
72
0
73
0
100
AcDbText
0
LWPOLYLINE
5
513
330
224
100
AcDbEntity
100
AcDbPolyline
8
PLANO-TABLA
90
4
70
1
43
0.0
10
85250.0
20
6425.0
10
86250.0
20
6425.0
10
86250.0
20
6750.0
10
85250.0
20
6750.0
0
TEXT
5
514
330
224
100
AcDbEntity
100
AcDbText
8
DW-TEXTO
10
86175.0
20
6485.0
30
0.0
40
115.0
1
1
50
0.0
72
2
73
0
11
86175.0
21
6485.0
31
0.0
100
AcDbText
0
LWPOLYLINE
5
515
330
224
100
AcDbEntity
100
AcDbPolyline
8
PLANO-TABLA
90
4
70
1
43
0.0
10
86250.0
20
6425.0
10
87550.0
20
6425.0
10
87550.0
20
6750.0
10
86250.0
20
6750.0
0
TEXT
5
516
330
224
100
AcDbEntity
100
AcDbText
8
DW-TEXTO
10
87475.0
20
6485.0
30
0.0
40
115.0
1
18.00
50
0.0
72
2
73
0
11
87475.0
21
6485.0
31
0.0
100
AcDbText
0
LWPOLYLINE
5
517
330
224
100
AcDbEntity
100
AcDbPolyline
8
PLANO-TABLA
90
4
70
1
43
0.0
10
87550.0
20
6425.0
10
89050.0
20
6425.0
10
89050.0
20
6750.0
10
87550.0
20
6750.0
0
TEXT
5
518
330
224
100
AcDbEntity
100
AcDbText
8
DW-TEXTO
10
88975.0
20
6485.0
30
0.0
40
115.0
1
18.00
50
0.0
72
2
73
0
11
88975.0
21
6485.0
31
0.0
100
AcDbText
0
LWPOLYLINE
5
519
330
224
100
AcDbEntity
100
AcDbPolyline
8
PLANO-TABLA
90
4
70
1
43
0.0
10
76850.0
20
6100.0
10
81450.0
20
6100.0
10
81450.0
20
6425.0
10
76850.0
20
6425.0
0
TEXT
5
51A
330
224
100
AcDbEntity
100
AcDbText
8
DW-TEXTO
10
76925.0
20
6160.0
30
0.0
40
115.0
1
Tornillo T2 Zincado Anticorrosión
50
0.0
72
0
73
0
100
AcDbText
0
LWPOLYLINE
5
51B
330
224
100
AcDbEntity
100
AcDbPolyline
8
PLANO-TABLA
90
4
70
1
43
0.0
10
81450.0
20
6100.0
10
82650.0
20
6100.0
10
82650.0
20
6425.0
10
81450.0
20
6425.0
0
TEXT
5
51C
330
224
100
AcDbEntity
100
AcDbText
8
DW-TEXTO
10
81525.0
20
6160.0
30
0.0
40
115.0
1
piezas
50
0.0
72
0
73
0
100
AcDbText
0
LWPOLYLINE
5
51D
330
224
100
AcDbEntity
100
AcDbPolyline
8
PLANO-TABLA
90
4
70
1
43
0.0
10
82650.0
20
6100.0
10
85250.0
20
6100.0
10
85250.0
20
6425.0
10
82650.0
20
6425.0
0
TEXT
5
51E
330
224
100
AcDbEntity
100
AcDbText
8
DW-TEXTO
10
82725.0
20
6160.0
30
0.0
40
115.0
1
Caja 1,000 u.
50
0.0
72
0
73
0
100
AcDbText
0
LWPOLYLINE
5
51F
330
224
100
AcDbEntity
100
AcDbPolyline
8
PLANO-TABLA
90
4
70
1
43
0.0
10
85250.0
20
6100.0
10
86250.0
20
6100.0
10
86250.0
20
6425.0
10
85250.0
20
6425.0
0
TEXT
5
520
330
224
100
AcDbEntity
100
AcDbText
8
DW-TEXTO
10
86175.0
20
6160.0
30
0.0
40
115.0
1
1
50
0.0
72
2
73
0
11
86175.0
21
6160.0
31
0.0
100
AcDbText
0
LWPOLYLINE
5
521
330
224
100
AcDbEntity
100
AcDbPolyline
8
PLANO-TABLA
90
4
70
1
43
0.0
10
86250.0
20
6100.0
10
87550.0
20
6100.0
10
87550.0
20
6425.0
10
86250.0
20
6425.0
0
TEXT
5
522
330
224
100
AcDbEntity
100
AcDbText
8
DW-TEXTO
10
87475.0
20
6160.0
30
0.0
40
115.0
1
22.00
50
0.0
72
2
73
0
11
87475.0
21
6160.0
31
0.0
100
AcDbText
0
LWPOLYLINE
5
523
330
224
100
AcDbEntity
100
AcDbPolyline
8
PLANO-TABLA
90
4
70
1
43
0.0
10
87550.0
20
6100.0
10
89050.0
20
6100.0
10
89050.0
20
6425.0
10
87550.0
20
6425.0
0
TEXT
5
524
330
224
100
AcDbEntity
100
AcDbText
8
DW-TEXTO
10
88975.0
20
6160.0
30
0.0
40
115.0
1
22.00
50
0.0
72
2
73
0
11
88975.0
21
6160.0
31
0.0
100
AcDbText
0
LWPOLYLINE
5
525
330
224
100
AcDbEntity
100
AcDbPolyline
8
PLANO-TABLA
90
4
70
1
43
0.0
10
76850.0
20
5775.0
10
81450.0
20
5775.0
10
81450.0
20
6100.0
10
76850.0
20
6100.0
0
TEXT
5
526
330
224
100
AcDbEntity
100
AcDbText
8
DW-TEXTO
10
76925.0
20
5835.0
30
0.0
40
115.0
1
Cinta de Malla Fibra de Vidrio Anti-Humedad
50
0.0
72
0
73
0
100
AcDbText
0
LWPOLYLINE
5
527
330
224
100
AcDbEntity
100
AcDbPolyline
8
PLANO-TABLA
90
4
70
1
43
0.0
10
81450.0
20
5775.0
10
82650.0
20
5775.0
10
82650.0
20
6100.0
10
81450.0
20
6100.0
0
TEXT
5
528
330
224
100
AcDbEntity
100
AcDbText
8
DW-TEXTO
10
81525.0
20
5835.0
30
0.0
40
115.0
1
m lineales
50
0.0
72
0
73
0
100
AcDbText
0
LWPOLYLINE
5
529
330
224
100
AcDbEntity
100
AcDbPolyline
8
PLANO-TABLA
90
4
70
1
43
0.0
10
82650.0
20
5775.0
10
85250.0
20
5775.0
10
85250.0
20
6100.0
10
82650.0
20
6100.0
0
TEXT
5
52A
330
224
100
AcDbEntity
100
AcDbText
8
DW-TEXTO
10
82725.0
20
5835.0
30
0.0
40
115.0
1
Rollo 90 m
50
0.0
72
0
73
0
100
AcDbText
0
LWPOLYLINE
5
52B
330
224
100
AcDbEntity
100
AcDbPolyline
8
PLANO-TABLA
90
4
70
1
43
0.0
10
85250.0
20
5775.0
10
86250.0
20
5775.0
10
86250.0
20
6100.0
10
85250.0
20
6100.0
0
TEXT
5
52C
330
224
100
AcDbEntity
100
AcDbText
8
DW-TEXTO
10
86175.0
20
5835.0
30
0.0
40
115.0
1
1
50
0.0
72
2
73
0
11
86175.0
21
5835.0
31
0.0
100
AcDbText
0
LWPOLYLINE
5
52D
330
224
100
AcDbEntity
100
AcDbPolyline
8
PLANO-TABLA
90
4
70
1
43
0.0
10
86250.0
20
5775.0
10
87550.0
20
5775.0
10
87550.0
20
6100.0
10
86250.0
20
6100.0
0
TEXT
5
52E
330
224
100
AcDbEntity
100
AcDbText
8
DW-TEXTO
10
87475.0
20
5835.0
30
0.0
40
115.0
1
10.80
50
0.0
72
2
73
0
11
87475.0
21
5835.0
31
0.0
100
AcDbText
0
LWPOLYLINE
5
52F
330
224
100
AcDbEntity
100
AcDbPolyline
8
PLANO-TABLA
90
4
70
1
43
0.0
10
87550.0
20
5775.0
10
89050.0
20
5775.0
10
89050.0
20
6100.0
10
87550.0
20
6100.0
0
TEXT
5
530
330
224
100
AcDbEntity
100
AcDbText
8
DW-TEXTO
10
88975.0
20
5835.0
30
0.0
40
115.0
1
10.80
50
0.0
72
2
73
0
11
88975.0
21
5835.0
31
0.0
100
AcDbText
0
TEXT
5
531
330
224
100
AcDbEntity
100
AcDbText
8
DW-TEXTO
10
85550.0
20
4950.0
30
0.0
40
130.0
1
COSTE DE MATERIALES
50
0.0
72
0
73
0
100
AcDbText
0
TEXT
5
532
330
224
100
AcDbEntity
100
AcDbText
8
DW-TEXTO
10
89050.0
20
4950.0
30
0.0
40
140.0
1
897.76
50
0.0
72
2
73
0
11
89050.0
21
4950.0
31
0.0
100
AcDbText
0
TEXT
5
533
330
224
100
AcDbEntity
100
AcDbText
8
DW-TEXTO
10
85550.0
20
4650.0
30
0.0
40
130.0
1
MANO DE OBRA
50
0.0
72
0
73
0
100
AcDbText
0
TEXT
5
534
330
224
100
AcDbEntity
100
AcDbText
8
DW-TEXTO
10
89050.0
20
4650.0
30
0.0
40
140.0
1
728.47
50
0.0
72
2
73
0
11
89050.0
21
4650.0
31
0.0
100
AcDbText
0
TEXT
5
535
330
224
100
AcDbEntity
100
AcDbText
8
DW-TEXTO
10
85550.0
20
4350.0
30
0.0
40
130.0
1
SUBTOTAL
50
0.0
72
0
73
0
100
AcDbText
0
TEXT
5
536
330
224
100
AcDbEntity
100
AcDbText
8
DW-TEXTO
10
89050.0
20
4350.0
30
0.0
40
140.0
1
1626.23
50
0.0
72
2
73
0
11
89050.0
21
4350.0
31
0.0
100
AcDbText
0
TEXT
5
537
330
224
100
AcDbEntity
100
AcDbText
8
DW-TEXTO
10
85550.0
20
4050.0
30
0.0
40
130.0
1
BENEFICIO / MARGEN
50
0.0
72
0
73
0
100
AcDbText
0
TEXT
5
538
330
224
100
AcDbEntity
100
AcDbText
8
DW-TEXTO
10
89050.0
20
4050.0
30
0.0
40
140.0
1
406.56
50
0.0
72
2
73
0
11
89050.0
21
4050.0
31
0.0
100
AcDbText
0
TEXT
5
539
330
224
100
AcDbEntity
100
AcDbText
8
DW-TEXTO
10
85550.0
20
3750.0
30
0.0
40
130.0
1
IMPUESTOS
50
0.0
72
0
73
0
100
AcDbText
0
TEXT
5
53A
330
224
100
AcDbEntity
100
AcDbText
8
DW-TEXTO
10
89050.0
20
3750.0
30
0.0
40
140.0
1
325.25
50
0.0
72
2
73
0
11
89050.0
21
3750.0
31
0.0
100
AcDbText
0
TEXT
5
53B
330
224
100
AcDbEntity
100
AcDbText
8
DW-TEXTO
10
85550.0
20
3450.0
30
0.0
40
130.0
1
TOTAL PRESUPUESTO
50
0.0
72
0
73
0
100
AcDbText
0
TEXT
5
53C
330
224
100
AcDbEntity
100
AcDbText
8
DW-TEXTO
10
89050.0
20
3450.0
30
0.0
40
140.0
1
2358.03
50
0.0
72
2
73
0
11
89050.0
21
3450.0
31
0.0
100
AcDbText
0
TEXT
5
53D
330
224
100
AcDbEntity
100
AcDbText
8
DW-TEXTO
10
73125.0
20
1070.0
30
0.0
40
100.0
1
EMPRESA / CONTRATISTA
50
0.0
72
0
73
0
100
AcDbText
0
TEXT
5
53E
330
224
100
AcDbEntity
100
AcDbText
8
DW-TEXTO
10
73125.0
20
710.0
30
0.0
40
130.0
1
Drywall & Steel Master SL
50
0.0
72
0
73
0
100
AcDbText
0
TEXT
5
53F
330
224
100
AcDbEntity
100
AcDbText
8
DW-TEXTO
10
77901.0
20
1070.0
30
0.0
40
100.0
1
PROYECTO
50
0.0
72
0
73
0
100
AcDbText
0
TEXT
5
540
330
224
100
AcDbEntity
100
AcDbText
8
DW-TEXTO
10
77901.0
20
710.0
30
0.0
40
130.0
1
Residencial Los Álamos - Proyecto Reforma
50
0.0
72
0
73
0
100
AcDbText
0
TEXT
5
541
330
224
100
AcDbEntity
100
AcDbText
8
DW-TEXTO
10
82279.0
20
1070.0
30
0.0
40
100.0
1
CLIENTE
50
0.0
72
0
73
0
100
AcDbText
0
TEXT
5
542
330
224
100
AcDbEntity
100
AcDbText
8
DW-TEXTO
10
82279.0
20
710.0
30
0.0
40
130.0
1
Ing. Carlos Mendoza
50
0.0
72
0
73
0
100
AcDbText
0
TEXT
5
543
330
224
100
AcDbEntity
100
AcDbText
8
DW-TEXTO
10
85662.0
20
1070.0
30
0.0
40
100.0
1
ESCALA / UNIDADES
50
0.0
72
0
73
0
100
AcDbText
0
TEXT
5
544
330
224
100
AcDbEntity
100
AcDbText
8
DW-TEXTO
10
85662.0
20
710.0
30
0.0
40
130.0
1
1:50 (MM)
50
0.0
72
0
73
0
100
AcDbText
0
TEXT
5
545
330
224
100
AcDbEntity
100
AcDbText
8
DW-TEXTO
10
88249.0
20
1070.0
30
0.0
40
100.0
1
LAM.
50
0.0
72
0
73
0
100
AcDbText
0
TEXT
5
546
330
224
100
AcDbEntity
100
AcDbText
8
DW-TEXTO
10
88249.0
20
710.0
30
0.0
40
170.0
1
4/5
50
0.0
72
0
73
0
100
AcDbText
0
TEXT
5
547
330
224
100
AcDbEntity
100
AcDbText
8
DW-TEXTO
10
90637.0
20
1070.0
30
0.0
40
100.0
1
FECHA / REV.
50
0.0
72
0
73
0
100
AcDbText
0
TEXT
5
548
330
224
100
AcDbEntity
100
AcDbText
8
DW-TEXTO
10
90637.0
20
710.0
30
0.0
40
130.0
1
2026-10-03 / A
50
0.0
72
0
73
0
100
AcDbText
0
TEXT
5
549
330
224
100
AcDbEntity
100
AcDbText
8
DW-TEXTO
10
73100.0
20
2750.0
30
0.0
40
160.0
1
COMPUTO DE MATERIALES (1)
50
0.0
72
0
73
0
100
AcDbText
0
TEXT
5
54A
330
224
100
AcDbEntity
100
AcDbText
8
DW-TEXTO
10
92800.0
20
2750.0
30
0.0
40
130.0
1
SUP. NETA: 50.24 m2
50
0.0
72
2
73
0
11
92800.0
21
2750.0
31
0.0
100
AcDbText
0
LWPOLYLINE
5
54B
330
224
100
AcDbEntity
100
AcDbPolyline
8
PLANO-MARCO
90
4
70
1
43
0.0
10
72850.0
20
400.0
10
93050.0
20
400.0
10
93050.0
20
14450.0
10
72850.0
20
14450.0
0
LWPOLYLINE
5
54C
330
224
100
AcDbEntity
100
AcDbPolyline
8
PLANO-MARCO
90
4
70
1
43
0.0
10
73000.0
20
550.0
10
92900.0
20
550.0
10
92900.0
20
14300.0
10
73000.0
20
14300.0
0
LINE
5
54D
330
224
100
AcDbEntity
8
PLANO-MARCO
10
73000.0
20
2550.0
30
0.0
11
92900.0
21
2550.0
31
0.0
0
LINE
5
54E
330
224
100
AcDbEntity
8
PLANO-MARCO
10
77776.0
20
550.0
30
0.0
11
77776.0
21
2550.0
31
0.0
0
LINE
5
54F
330
224
100
AcDbEntity
8
PLANO-MARCO
10
82154.0
20
550.0
30
0.0
11
82154.0
21
2550.0
31
0.0
0
LINE
5
550
330
224
100
AcDbEntity
8
PLANO-MARCO
10
85537.0
20
550.0
30
0.0
11
85537.0
21
2550.0
31
0.0
0
LINE
5
551
330
224
100
AcDbEntity
8
PLANO-MARCO
10
88124.0
20
550.0
30
0.0
11
88124.0
21
2550.0
31
0.0
0
LINE
5
552
330
224
100
AcDbEntity
8
PLANO-MARCO
10
90512.0
20
550.0
30
0.0
11
90512.0
21
2550.0
31
0.0
0
LINE
5
553
330
224
100
AcDbEntity
8
PLANO-MARCO
10
73000.0
20
1390.0
30
0.0
11
92900.0
21
1390.0
31
0.0
0
LWPOLYLINE
5
554
330
224
100
AcDbEntity
100
AcDbPolyline
8
PLANO-MARCO
90
4
70
1
43
0.0
10
97000.0
20
400.0
10
117200.0
20
400.0
10
117200.0
20
14450.0
10
97000.0
20
14450.0
0
LWPOLYLINE
5
555
330
224
100
AcDbEntity
100
AcDbPolyline
8
PLANO-MARCO
90
4
70
1
43
0.0
10
97150.0
20
550.0
10
117050.0
20
550.0
10
117050.0
20
14300.0
10
97150.0
20
14300.0
0
LINE
5
556
330
224
100
AcDbEntity
8
PLANO-MARCO
10
97150.0
20
2550.0
30
0.0
11
117050.0
21
2550.0
31
0.0
0
LINE
5
557
330
224
100
AcDbEntity
8
PLANO-MARCO
10
101926.0
20
550.0
30
0.0
11
101926.0
21
2550.0
31
0.0
0
LINE
5
558
330
224
100
AcDbEntity
8
PLANO-MARCO
10
106304.0
20
550.0
30
0.0
11
106304.0
21
2550.0
31
0.0
0
LINE
5
559
330
224
100
AcDbEntity
8
PLANO-MARCO
10
109687.0
20
550.0
30
0.0
11
109687.0
21
2550.0
31
0.0
0
LINE
5
55A
330
224
100
AcDbEntity
8
PLANO-MARCO
10
112274.0
20
550.0
30
0.0
11
112274.0
21
2550.0
31
0.0
0
LINE
5
55B
330
224
100
AcDbEntity
8
PLANO-MARCO
10
114662.0
20
550.0
30
0.0
11
114662.0
21
2550.0
31
0.0
0
LINE
5
55C
330
224
100
AcDbEntity
8
PLANO-MARCO
10
97150.0
20
1390.0
30
0.0
11
117050.0
21
1390.0
31
0.0
0
TEXT
5
55D
330
224
100
AcDbEntity
100
AcDbText
8
DW-TEXTO
10
97600.0
20
13750.0
30
0.0
40
230.0
1
COMPUTO DE MATERIALES
50
0.0
72
0
73
0
100
AcDbText
0
TEXT
5
55E
330
224
100
AcDbEntity
100
AcDbText
8
DW-TEXTO
10
116600.0
20
13750.0
30
0.0
40
130.0
1
MONEDA: USD
50
0.0
72
2
73
0
11
116600.0
21
13750.0
31
0.0
100
AcDbText
0
LWPOLYLINE
5
55F
330
224
100
AcDbEntity
100
AcDbPolyline
8
PLANO-TABLA
90
4
70
1
43
0.0
10
101000.0
20
13250.0
10
105600.0
20
13250.0
10
105600.0
20
13575.0
10
101000.0
20
13575.0
0
TEXT
5
560
330
224
100
AcDbEntity
100
AcDbText
8
DW-TEXTO
10
101075.0
20
13310.0
30
0.0
40
120.0
1
MATERIAL
50
0.0
72
0
73
0
100
AcDbText
0
LWPOLYLINE
5
561
330
224
100
AcDbEntity
100
AcDbPolyline
8
PLANO-TABLA
90
4
70
1
43
0.0
10
105600.0
20
13250.0
10
106800.0
20
13250.0
10
106800.0
20
13575.0
10
105600.0
20
13575.0
0
TEXT
5
562
330
224
100
AcDbEntity
100
AcDbText
8
DW-TEXTO
10
105675.0
20
13310.0
30
0.0
40
120.0
1
UNIDAD
50
0.0
72
0
73
0
100
AcDbText
0
LWPOLYLINE
5
563
330
224
100
AcDbEntity
100
AcDbPolyline
8
PLANO-TABLA
90
4
70
1
43
0.0
10
106800.0
20
13250.0
10
109400.0
20
13250.0
10
109400.0
20
13575.0
10
106800.0
20
13575.0
0
TEXT
5
564
330
224
100
AcDbEntity
100
AcDbText
8
DW-TEXTO
10
106875.0
20
13310.0
30
0.0
40
120.0
1
FORMATO COMERCIAL
50
0.0
72
0
73
0
100
AcDbText
0
LWPOLYLINE
5
565
330
224
100
AcDbEntity
100
AcDbPolyline
8
PLANO-TABLA
90
4
70
1
43
0.0
10
109400.0
20
13250.0
10
110400.0
20
13250.0
10
110400.0
20
13575.0
10
109400.0
20
13575.0
0
TEXT
5
566
330
224
100
AcDbEntity
100
AcDbText
8
DW-TEXTO
10
110325.0
20
13310.0
30
0.0
40
120.0
1
CANT.
50
0.0
72
2
73
0
11
110325.0
21
13310.0
31
0.0
100
AcDbText
0
LWPOLYLINE
5
567
330
224
100
AcDbEntity
100
AcDbPolyline
8
PLANO-TABLA
90
4
70
1
43
0.0
10
110400.0
20
13250.0
10
111700.0
20
13250.0
10
111700.0
20
13575.0
10
110400.0
20
13575.0
0
TEXT
5
568
330
224
100
AcDbEntity
100
AcDbText
8
DW-TEXTO
10
111625.0
20
13310.0
30
0.0
40
120.0
1
P. UNIT.
50
0.0
72
2
73
0
11
111625.0
21
13310.0
31
0.0
100
AcDbText
0
LWPOLYLINE
5
569
330
224
100
AcDbEntity
100
AcDbPolyline
8
PLANO-TABLA
90
4
70
1
43
0.0
10
111700.0
20
13250.0
10
113200.0
20
13250.0
10
113200.0
20
13575.0
10
111700.0
20
13575.0
0
TEXT
5
56A
330
224
100
AcDbEntity
100
AcDbText
8
DW-TEXTO
10
113125.0
20
13310.0
30
0.0
40
120.0
1
TOTAL
50
0.0
72
2
73
0
11
113125.0
21
13310.0
31
0.0
100
AcDbText
0
LWPOLYLINE
5
56B
330
224
100
AcDbEntity
100
AcDbPolyline
8
PLANO-TABLA
90
4
70
1
43
0.0
10
101000.0
20
12925.0
10
105600.0
20
12925.0
10
105600.0
20
13250.0
10
101000.0
20
13250.0
0
TEXT
5
56C
330
224
100
AcDbEntity
100
AcDbText
8
DW-TEXTO
10
101075.0
20
12985.0
30
0.0
40
115.0
1
Masilla Hidrófuga Especial RH
50
0.0
72
0
73
0
100
AcDbText
0
LWPOLYLINE
5
56D
330
224
100
AcDbEntity
100
AcDbPolyline
8
PLANO-TABLA
90
4
70
1
43
0.0
10
105600.0
20
12925.0
10
106800.0
20
12925.0
10
106800.0
20
13250.0
10
105600.0
20
13250.0
0
TEXT
5
56E
330
224
100
AcDbEntity
100
AcDbText
8
DW-TEXTO
10
105675.0
20
12985.0
30
0.0
40
115.0
1
kg
50
0.0
72
0
73
0
100
AcDbText
0
LWPOLYLINE
5
56F
330
224
100
AcDbEntity
100
AcDbPolyline
8
PLANO-TABLA
90
4
70
1
43
0.0
10
106800.0
20
12925.0
10
109400.0
20
12925.0
10
109400.0
20
13250.0
10
106800.0
20
13250.0
0
TEXT
5
570
330
224
100
AcDbEntity
100
AcDbText
8
DW-TEXTO
10
106875.0
20
12985.0
30
0.0
40
115.0
1
Balde 20 kg
50
0.0
72
0
73
0
100
AcDbText
0
LWPOLYLINE
5
571
330
224
100
AcDbEntity
100
AcDbPolyline
8
PLANO-TABLA
90
4
70
1
43
0.0
10
109400.0
20
12925.0
10
110400.0
20
12925.0
10
110400.0
20
13250.0
10
109400.0
20
13250.0
0
TEXT
5
572
330
224
100
AcDbEntity
100
AcDbText
8
DW-TEXTO
10
110325.0
20
12985.0
30
0.0
40
115.0
1
1
50
0.0
72
2
73
0
11
110325.0
21
12985.0
31
0.0
100
AcDbText
0
LWPOLYLINE
5
573
330
224
100
AcDbEntity
100
AcDbPolyline
8
PLANO-TABLA
90
4
70
1
43
0.0
10
110400.0
20
12925.0
10
111700.0
20
12925.0
10
111700.0
20
13250.0
10
110400.0
20
13250.0
0
TEXT
5
574
330
224
100
AcDbEntity
100
AcDbText
8
DW-TEXTO
10
111625.0
20
12985.0
30
0.0
40
115.0
1
22.00
50
0.0
72
2
73
0
11
111625.0
21
12985.0
31
0.0
100
AcDbText
0
LWPOLYLINE
5
575
330
224
100
AcDbEntity
100
AcDbPolyline
8
PLANO-TABLA
90
4
70
1
43
0.0
10
111700.0
20
12925.0
10
113200.0
20
12925.0
10
113200.0
20
13250.0
10
111700.0
20
13250.0
0
TEXT
5
576
330
224
100
AcDbEntity
100
AcDbText
8
DW-TEXTO
10
113125.0
20
12985.0
30
0.0
40
115.0
1
22.00
50
0.0
72
2
73
0
11
113125.0
21
12985.0
31
0.0
100
AcDbText
0
LWPOLYLINE
5
577
330
224
100
AcDbEntity
100
AcDbPolyline
8
PLANO-TABLA
90
4
70
1
43
0.0
10
101000.0
20
12600.0
10
105600.0
20
12600.0
10
105600.0
20
12925.0
10
101000.0
20
12925.0
0
TEXT
5
578
330
224
100
AcDbEntity
100
AcDbText
8
DW-TEXTO
10
101075.0
20
12660.0
30
0.0
40
115.0
1
Fulminantes y Clavos Tratados
50
0.0
72
0
73
0
100
AcDbText
0
LWPOLYLINE
5
579
330
224
100
AcDbEntity
100
AcDbPolyline
8
PLANO-TABLA
90
4
70
1
43
0.0
10
105600.0
20
12600.0
10
106800.0
20
12600.0
10
106800.0
20
12925.0
10
105600.0
20
12925.0
0
TEXT
5
57A
330
224
100
AcDbEntity
100
AcDbText
8
DW-TEXTO
10
105675.0
20
12660.0
30
0.0
40
115.0
1
juegos
50
0.0
72
0
73
0
100
AcDbText
0
LWPOLYLINE
5
57B
330
224
100
AcDbEntity
100
AcDbPolyline
8
PLANO-TABLA
90
4
70
1
43
0.0
10
106800.0
20
12600.0
10
109400.0
20
12600.0
10
109400.0
20
12925.0
10
106800.0
20
12925.0
0
TEXT
5
57C
330
224
100
AcDbEntity
100
AcDbText
8
DW-TEXTO
10
106875.0
20
12660.0
30
0.0
40
115.0
1
Caja 100 juegos
50
0.0
72
0
73
0
100
AcDbText
0
LWPOLYLINE
5
57D
330
224
100
AcDbEntity
100
AcDbPolyline
8
PLANO-TABLA
90
4
70
1
43
0.0
10
109400.0
20
12600.0
10
110400.0
20
12600.0
10
110400.0
20
12925.0
10
109400.0
20
12925.0
0
TEXT
5
57E
330
224
100
AcDbEntity
100
AcDbText
8
DW-TEXTO
10
110325.0
20
12660.0
30
0.0
40
115.0
1
1
50
0.0
72
2
73
0
11
110325.0
21
12660.0
31
0.0
100
AcDbText
0
LWPOLYLINE
5
57F
330
224
100
AcDbEntity
100
AcDbPolyline
8
PLANO-TABLA
90
4
70
1
43
0.0
10
110400.0
20
12600.0
10
111700.0
20
12600.0
10
111700.0
20
12925.0
10
110400.0
20
12925.0
0
TEXT
5
580
330
224
100
AcDbEntity
100
AcDbText
8
DW-TEXTO
10
111625.0
20
12660.0
30
0.0
40
115.0
1
28.00
50
0.0
72
2
73
0
11
111625.0
21
12660.0
31
0.0
100
AcDbText
0
LWPOLYLINE
5
581
330
224
100
AcDbEntity
100
AcDbPolyline
8
PLANO-TABLA
90
4
70
1
43
0.0
10
111700.0
20
12600.0
10
113200.0
20
12600.0
10
113200.0
20
12925.0
10
111700.0
20
12925.0
0
TEXT
5
582
330
224
100
AcDbEntity
100
AcDbText
8
DW-TEXTO
10
113125.0
20
12660.0
30
0.0
40
115.0
1
28.00
50
0.0
72
2
73
0
11
113125.0
21
12660.0
31
0.0
100
AcDbText
0
TEXT
5
583
330
224
100
AcDbEntity
100
AcDbText
8
DW-TEXTO
10
109700.0
20
11775.0
30
0.0
40
130.0
1
COSTE DE MATERIALES
50
0.0
72
0
73
0
100
AcDbText
0
TEXT
5
584
330
224
100
AcDbEntity
100
AcDbText
8
DW-TEXTO
10
113200.0
20
11775.0
30
0.0
40
140.0
1
897.76
50
0.0
72
2
73
0
11
113200.0
21
11775.0
31
0.0
100
AcDbText
0
TEXT
5
585
330
224
100
AcDbEntity
100
AcDbText
8
DW-TEXTO
10
109700.0
20
11475.0
30
0.0
40
130.0
1
MANO DE OBRA
50
0.0
72
0
73
0
100
AcDbText
0
TEXT
5
586
330
224
100
AcDbEntity
100
AcDbText
8
DW-TEXTO
10
113200.0
20
11475.0
30
0.0
40
140.0
1
728.47
50
0.0
72
2
73
0
11
113200.0
21
11475.0
31
0.0
100
AcDbText
0
TEXT
5
587
330
224
100
AcDbEntity
100
AcDbText
8
DW-TEXTO
10
109700.0
20
11175.0
30
0.0
40
130.0
1
SUBTOTAL
50
0.0
72
0
73
0
100
AcDbText
0
TEXT
5
588
330
224
100
AcDbEntity
100
AcDbText
8
DW-TEXTO
10
113200.0
20
11175.0
30
0.0
40
140.0
1
1626.23
50
0.0
72
2
73
0
11
113200.0
21
11175.0
31
0.0
100
AcDbText
0
TEXT
5
589
330
224
100
AcDbEntity
100
AcDbText
8
DW-TEXTO
10
109700.0
20
10875.0
30
0.0
40
130.0
1
BENEFICIO / MARGEN
50
0.0
72
0
73
0
100
AcDbText
0
TEXT
5
58A
330
224
100
AcDbEntity
100
AcDbText
8
DW-TEXTO
10
113200.0
20
10875.0
30
0.0
40
140.0
1
406.56
50
0.0
72
2
73
0
11
113200.0
21
10875.0
31
0.0
100
AcDbText
0
TEXT
5
58B
330
224
100
AcDbEntity
100
AcDbText
8
DW-TEXTO
10
109700.0
20
10575.0
30
0.0
40
130.0
1
IMPUESTOS
50
0.0
72
0
73
0
100
AcDbText
0
TEXT
5
58C
330
224
100
AcDbEntity
100
AcDbText
8
DW-TEXTO
10
113200.0
20
10575.0
30
0.0
40
140.0
1
325.25
50
0.0
72
2
73
0
11
113200.0
21
10575.0
31
0.0
100
AcDbText
0
TEXT
5
58D
330
224
100
AcDbEntity
100
AcDbText
8
DW-TEXTO
10
109700.0
20
10275.0
30
0.0
40
130.0
1
TOTAL PRESUPUESTO
50
0.0
72
0
73
0
100
AcDbText
0
TEXT
5
58E
330
224
100
AcDbEntity
100
AcDbText
8
DW-TEXTO
10
113200.0
20
10275.0
30
0.0
40
140.0
1
2358.03
50
0.0
72
2
73
0
11
113200.0
21
10275.0
31
0.0
100
AcDbText
0
TEXT
5
58F
330
224
100
AcDbEntity
100
AcDbText
8
DW-TEXTO
10
97275.0
20
1070.0
30
0.0
40
100.0
1
EMPRESA / CONTRATISTA
50
0.0
72
0
73
0
100
AcDbText
0
TEXT
5
590
330
224
100
AcDbEntity
100
AcDbText
8
DW-TEXTO
10
97275.0
20
710.0
30
0.0
40
130.0
1
Drywall & Steel Master SL
50
0.0
72
0
73
0
100
AcDbText
0
TEXT
5
591
330
224
100
AcDbEntity
100
AcDbText
8
DW-TEXTO
10
102051.0
20
1070.0
30
0.0
40
100.0
1
PROYECTO
50
0.0
72
0
73
0
100
AcDbText
0
TEXT
5
592
330
224
100
AcDbEntity
100
AcDbText
8
DW-TEXTO
10
102051.0
20
710.0
30
0.0
40
130.0
1
Residencial Los Álamos - Proyecto Reforma
50
0.0
72
0
73
0
100
AcDbText
0
TEXT
5
593
330
224
100
AcDbEntity
100
AcDbText
8
DW-TEXTO
10
106429.0
20
1070.0
30
0.0
40
100.0
1
CLIENTE
50
0.0
72
0
73
0
100
AcDbText
0
TEXT
5
594
330
224
100
AcDbEntity
100
AcDbText
8
DW-TEXTO
10
106429.0
20
710.0
30
0.0
40
130.0
1
Ing. Carlos Mendoza
50
0.0
72
0
73
0
100
AcDbText
0
TEXT
5
595
330
224
100
AcDbEntity
100
AcDbText
8
DW-TEXTO
10
109812.0
20
1070.0
30
0.0
40
100.0
1
ESCALA / UNIDADES
50
0.0
72
0
73
0
100
AcDbText
0
TEXT
5
596
330
224
100
AcDbEntity
100
AcDbText
8
DW-TEXTO
10
109812.0
20
710.0
30
0.0
40
130.0
1
1:50 (MM)
50
0.0
72
0
73
0
100
AcDbText
0
TEXT
5
597
330
224
100
AcDbEntity
100
AcDbText
8
DW-TEXTO
10
112399.0
20
1070.0
30
0.0
40
100.0
1
LAM.
50
0.0
72
0
73
0
100
AcDbText
0
TEXT
5
598
330
224
100
AcDbEntity
100
AcDbText
8
DW-TEXTO
10
112399.0
20
710.0
30
0.0
40
170.0
1
5/5
50
0.0
72
0
73
0
100
AcDbText
0
TEXT
5
599
330
224
100
AcDbEntity
100
AcDbText
8
DW-TEXTO
10
114787.0
20
1070.0
30
0.0
40
100.0
1
FECHA / REV.
50
0.0
72
0
73
0
100
AcDbText
0
TEXT
5
59A
330
224
100
AcDbEntity
100
AcDbText
8
DW-TEXTO
10
114787.0
20
710.0
30
0.0
40
130.0
1
2026-10-03 / A
50
0.0
72
0
73
0
100
AcDbText
0
TEXT
5
59B
330
224
100
AcDbEntity
100
AcDbText
8
DW-TEXTO
10
97250.0
20
2750.0
30
0.0
40
160.0
1
COMPUTO DE MATERIALES (2)
50
0.0
72
0
73
0
100
AcDbText
0
TEXT
5
59C
330
224
100
AcDbEntity
100
AcDbText
8
DW-TEXTO
10
116950.0
20
2750.0
30
0.0
40
130.0
1
SUP. NETA: 50.24 m2
50
0.0
72
2
73
0
11
116950.0
21
2750.0
31
0.0
100
AcDbText
0
LWPOLYLINE
5
59D
330
224
100
AcDbEntity
100
AcDbPolyline
8
PLANO-MARCO
90
4
70
1
43
0.0
10
97000.0
20
400.0
10
117200.0
20
400.0
10
117200.0
20
14450.0
10
97000.0
20
14450.0
0
LWPOLYLINE
5
59E
330
224
100
AcDbEntity
100
AcDbPolyline
8
PLANO-MARCO
90
4
70
1
43
0.0
10
97150.0
20
550.0
10
117050.0
20
550.0
10
117050.0
20
14300.0
10
97150.0
20
14300.0
0
LINE
5
59F
330
224
100
AcDbEntity
8
PLANO-MARCO
10
97150.0
20
2550.0
30
0.0
11
117050.0
21
2550.0
31
0.0
0
LINE
5
5A0
330
224
100
AcDbEntity
8
PLANO-MARCO
10
101926.0
20
550.0
30
0.0
11
101926.0
21
2550.0
31
0.0
0
LINE
5
5A1
330
224
100
AcDbEntity
8
PLANO-MARCO
10
106304.0
20
550.0
30
0.0
11
106304.0
21
2550.0
31
0.0
0
LINE
5
5A2
330
224
100
AcDbEntity
8
PLANO-MARCO
10
109687.0
20
550.0
30
0.0
11
109687.0
21
2550.0
31
0.0
0
LINE
5
5A3
330
224
100
AcDbEntity
8
PLANO-MARCO
10
112274.0
20
550.0
30
0.0
11
112274.0
21
2550.0
31
0.0
0
LINE
5
5A4
330
224
100
AcDbEntity
8
PLANO-MARCO
10
114662.0
20
550.0
30
0.0
11
114662.0
21
2550.0
31
0.0
0
LINE
5
5A5
330
224
100
AcDbEntity
8
PLANO-MARCO
10
97150.0
20
1390.0
30
0.0
11
117050.0
21
1390.0
31
0.0
0
ENDSEC
0
SECTION
2
OBJECTS
0
DICTIONARY
5
5A6
330
0
100
AcDbDictionary
281
1
3
ACAD_GROUP
350
5A7
0
DICTIONARY
5
5A7
330
5A6
100
AcDbDictionary
281
1
0
ENDSEC
0
EOF
